<?xml version="1.0" standalone="no"?>
<!DOCTYPE svg PUBLIC "-//W3C//DTD SVG 20010904//EN"
 "http://www.w3.org/TR/2001/REC-SVG-20010904/DTD/svg10.dtd">
<svg version="1.0" xmlns="http://www.w3.org/2000/svg"
 width="280.000000pt" height="280.000000pt" viewBox="0 0 280.000000 280.000000"
 preserveAspectRatio="xMidYMid meet">
<metadata>
Created by potrace 1.14, written by Peter Selinger 2001-2017
</metadata>
<g transform="translate(0.000000,280.000000) scale(0.100000,-0.100000)"
fill="#000000" stroke="none">
<path d="M1295 2732 c-247 -144 -494 -287 -535 -310 -25 -14 -83 -47 -130 -75
-47 -27 -100 -58 -118 -69 -125 -70 -299 -172 -308 -179 -9 -7 -11 -193 -10
-705 l2 -696 54 -32 c30 -18 80 -46 110 -63 30 -16 217 -124 415 -238 198
-114 380 -219 405 -233 25 -14 83 -47 130 -75 47 -27 90 -50 95 -50 9 0 176
94 440 248 50 29 106 62 125 73 19 11 62 35 95 54 33 19 116 67 185 107 69 39
132 76 140 81 8 5 60 35 115 66 55 31 102 59 105 61 3 3 5 318 5 701 l0 697
-30 19 c-29 18 -50 31 -132 77 -46 26 -657 377 -843 484 -191 110 -200 115
-208 115 -4 0 -52 -26 -107 -58z"/>
</g>
</svg>
