<svg xmlns="http://www.w3.org/2000/svg" width="2175" height="1104" viewBox="0 0 2175 1104"><g transform="translate(415.011 0)" opacity="0.5"><g transform="translate(-80.21) rotate(15.009)"><path d="M0,28.1c4.787,5.963,11.2,7.327,14.277,4.646s5.387-9.509,13.011-6.763C23.652,16.18,33.951,4.5,44.24,9.713,46.794-3.468,72.482-3.818,74.483,12.271c22.83-6.463,28.008,43.268.517,39.111-.232,13.026-22.662,17.594-25.458,5.187-4.4,10.165-22.568,11.3-24.654-2.547C12.75,59.457,1.718,43.8,0,28.1Z" fill="#fff"/><path d="M56.807.014a16.7,16.7,0,0,0-8.883,2.05,9.123,9.123,0,0,0-4.681,6.193C37.678,30.195,63.26,26.14,57.1,12.3l2.216-1.244C66.887,29.077,36.24,32.968,40.73,9.512,31.858,5.018,23.187,15.287,26.216,23.45a1.974,1.974,0,0,1-.359,1.974,1.754,1.754,0,0,1-1.865.456c-3.315-1.193-4.868-.418-6.481,1.009s-2.879,3.747-4.8,5.427c-2.1,1.834-5.119,2.142-8.119,1.273A15.492,15.492,0,0,1,0,31.3,36.073,36.073,0,0,0,7.1,45.851c4.156,4.812,8.945,6.934,14.28,4.545-1.809-11.467,14.87-16.731,16.529-2.828l-2.08.119c-1.613-10.732-14.637-6.749-11.923,4.2.739,2.983,1.71,5.04,3.412,6.425a10.5,10.5,0,0,0,6.3,2.213c4.711.153,9.695-2.427,11.534-6.671a1.781,1.781,0,0,1,1.815-1.064,1.953,1.953,0,0,1,1.586,1.494,6.589,6.589,0,0,0,4.03,4.9,12.8,12.8,0,0,0,7.528.558,15.074,15.074,0,0,0,7.244-3.625,9.317,9.317,0,0,0,3.1-6.74C55.478,42.343,65.737,24.489,75.6,30.5l-.392,1.959c-7.646-5.258-17.153,11.025-2.757,15.16,6.373.964,10.442-1.085,13.111-4.6s3.84-8.7,3.508-13.876S86.9,18.866,84.017,15.607A10.671,10.671,0,0,0,72.236,12.2a1.945,1.945,0,0,1-2.278-1.632,10.825,10.825,0,0,0-4.458-7.7A15.8,15.8,0,0,0,56.8.014Z" transform="translate(2.858 1.89)" fill="#04192e"/></g><g transform="translate(237.935) rotate(15.009)"><path d="M0,28.1c4.787,5.963,11.2,7.327,14.277,4.646s5.387-9.509,13.011-6.763C23.652,16.18,33.951,4.5,44.24,9.713,46.794-3.468,72.482-3.818,74.483,12.271c22.83-6.463,28.008,43.268.517,39.111-.232,13.026-22.662,17.594-25.458,5.187-4.4,10.165-22.568,11.3-24.654-2.547C12.75,59.457,1.718,43.8,0,28.1Z" fill="#fff"/><path d="M56.807.014a16.7,16.7,0,0,0-8.883,2.05,9.123,9.123,0,0,0-4.681,6.193C37.678,30.195,63.26,26.14,57.1,12.3l2.216-1.244C66.887,29.077,36.24,32.968,40.73,9.512,31.858,5.018,23.187,15.287,26.216,23.45a1.974,1.974,0,0,1-.359,1.974,1.754,1.754,0,0,1-1.865.456c-3.315-1.193-4.868-.418-6.481,1.009s-2.879,3.747-4.8,5.427c-2.1,1.834-5.119,2.142-8.119,1.273A15.492,15.492,0,0,1,0,31.3,36.073,36.073,0,0,0,7.1,45.851c4.156,4.812,8.945,6.934,14.28,4.545-1.809-11.467,14.87-16.731,16.529-2.828l-2.08.119c-1.613-10.732-14.637-6.749-11.923,4.2.739,2.983,1.71,5.04,3.412,6.425a10.5,10.5,0,0,0,6.3,2.213c4.711.153,9.695-2.427,11.534-6.671a1.781,1.781,0,0,1,1.815-1.064,1.953,1.953,0,0,1,1.586,1.494,6.589,6.589,0,0,0,4.03,4.9,12.8,12.8,0,0,0,7.528.558,15.074,15.074,0,0,0,7.244-3.625,9.317,9.317,0,0,0,3.1-6.74C55.478,42.343,65.737,24.489,75.6,30.5l-.392,1.959c-7.646-5.258-17.153,11.025-2.757,15.16,6.373.964,10.442-1.085,13.111-4.6s3.84-8.7,3.508-13.876S86.9,18.866,84.017,15.607A10.671,10.671,0,0,0,72.236,12.2a1.945,1.945,0,0,1-2.278-1.632,10.825,10.825,0,0,0-4.458-7.7A15.8,15.8,0,0,0,56.8.014Z" transform="translate(2.858 1.89)" fill="#04192e"/></g><g transform="translate(555.867) rotate(15.009)"><path d="M0,28.1c4.787,5.963,11.2,7.327,14.277,4.646s5.387-9.509,13.011-6.763C23.652,16.18,33.951,4.5,44.24,9.713,46.794-3.468,72.482-3.818,74.483,12.271c22.83-6.463,28.008,43.268.517,39.111-.232,13.026-22.662,17.594-25.458,5.187-4.4,10.165-22.568,11.3-24.654-2.547C12.75,59.457,1.718,43.8,0,28.1Z" fill="#fff"/><path d="M56.807.014a16.7,16.7,0,0,0-8.883,2.05,9.123,9.123,0,0,0-4.681,6.193C37.678,30.195,63.26,26.14,57.1,12.3l2.216-1.244C66.887,29.077,36.24,32.968,40.73,9.512,31.858,5.018,23.187,15.287,26.216,23.45a1.974,1.974,0,0,1-.359,1.974,1.754,1.754,0,0,1-1.865.456c-3.315-1.193-4.868-.418-6.481,1.009s-2.879,3.747-4.8,5.427c-2.1,1.834-5.119,2.142-8.119,1.273A15.492,15.492,0,0,1,0,31.3,36.073,36.073,0,0,0,7.1,45.851c4.156,4.812,8.945,6.934,14.28,4.545-1.809-11.467,14.87-16.731,16.529-2.828l-2.08.119c-1.613-10.732-14.637-6.749-11.923,4.2.739,2.983,1.71,5.04,3.412,6.425a10.5,10.5,0,0,0,6.3,2.213c4.711.153,9.695-2.427,11.534-6.671a1.781,1.781,0,0,1,1.815-1.064,1.953,1.953,0,0,1,1.586,1.494,6.589,6.589,0,0,0,4.03,4.9,12.8,12.8,0,0,0,7.528.558,15.074,15.074,0,0,0,7.244-3.625,9.317,9.317,0,0,0,3.1-6.74C55.478,42.343,65.737,24.489,75.6,30.5l-.392,1.959c-7.646-5.258-17.153,11.025-2.757,15.16,6.373.964,10.442-1.085,13.111-4.6s3.84-8.7,3.508-13.876S86.9,18.866,84.017,15.607A10.671,10.671,0,0,0,72.236,12.2a1.945,1.945,0,0,1-2.278-1.632,10.825,10.825,0,0,0-4.458-7.7A15.8,15.8,0,0,0,56.8.014Z" transform="translate(2.858 1.89)" fill="#04192e"/></g><g transform="translate(1192.016) rotate(15.009)"><path d="M0,28.1c4.787,5.963,11.2,7.327,14.277,4.646s5.387-9.509,13.011-6.763C23.652,16.18,33.951,4.5,44.24,9.713,46.794-3.468,72.482-3.818,74.483,12.271c22.83-6.463,28.008,43.268.517,39.111-.232,13.026-22.662,17.594-25.458,5.187-4.4,10.165-22.568,11.3-24.654-2.547C12.75,59.457,1.718,43.8,0,28.1Z" fill="#fff"/><path d="M56.807.014a16.7,16.7,0,0,0-8.883,2.05,9.123,9.123,0,0,0-4.681,6.193C37.678,30.195,63.26,26.14,57.1,12.3l2.216-1.244C66.887,29.077,36.24,32.968,40.73,9.512,31.858,5.018,23.187,15.287,26.216,23.45a1.974,1.974,0,0,1-.359,1.974,1.754,1.754,0,0,1-1.865.456c-3.315-1.193-4.868-.418-6.481,1.009s-2.879,3.747-4.8,5.427c-2.1,1.834-5.119,2.142-8.119,1.273A15.492,15.492,0,0,1,0,31.3,36.073,36.073,0,0,0,7.1,45.851c4.156,4.812,8.945,6.934,14.28,4.545-1.809-11.467,14.87-16.731,16.529-2.828l-2.08.119c-1.613-10.732-14.637-6.749-11.923,4.2.739,2.983,1.71,5.04,3.412,6.425a10.5,10.5,0,0,0,6.3,2.213c4.711.153,9.695-2.427,11.534-6.671a1.781,1.781,0,0,1,1.815-1.064,1.953,1.953,0,0,1,1.586,1.494,6.589,6.589,0,0,0,4.03,4.9,12.8,12.8,0,0,0,7.528.558,15.074,15.074,0,0,0,7.244-3.625,9.317,9.317,0,0,0,3.1-6.74C55.478,42.343,65.737,24.489,75.6,30.5l-.392,1.959c-7.646-5.258-17.153,11.025-2.757,15.16,6.373.964,10.442-1.085,13.111-4.6s3.84-8.7,3.508-13.876S86.9,18.866,84.017,15.607A10.671,10.671,0,0,0,72.236,12.2a1.945,1.945,0,0,1-2.278-1.632,10.825,10.825,0,0,0-4.458-7.7A15.8,15.8,0,0,0,56.8.014Z" transform="translate(2.858 1.89)" fill="#04192e"/></g><g transform="translate(873.8) rotate(15.009)"><path d="M0,28.1c4.787,5.963,11.2,7.327,14.277,4.646s5.387-9.509,13.011-6.763C23.652,16.18,33.951,4.5,44.24,9.713,46.794-3.468,72.482-3.818,74.483,12.271c22.83-6.463,28.008,43.268.517,39.111-.232,13.026-22.662,17.594-25.458,5.187-4.4,10.165-22.568,11.3-24.654-2.547C12.75,59.457,1.718,43.8,0,28.1Z" fill="#fff"/><path d="M56.807.014a16.7,16.7,0,0,0-8.883,2.05,9.123,9.123,0,0,0-4.681,6.193C37.678,30.195,63.26,26.14,57.1,12.3l2.216-1.244C66.887,29.077,36.24,32.968,40.73,9.512,31.858,5.018,23.187,15.287,26.216,23.45a1.974,1.974,0,0,1-.359,1.974,1.754,1.754,0,0,1-1.865.456c-3.315-1.193-4.868-.418-6.481,1.009s-2.879,3.747-4.8,5.427c-2.1,1.834-5.119,2.142-8.119,1.273A15.492,15.492,0,0,1,0,31.3,36.073,36.073,0,0,0,7.1,45.851c4.156,4.812,8.945,6.934,14.28,4.545-1.809-11.467,14.87-16.731,16.529-2.828l-2.08.119c-1.613-10.732-14.637-6.749-11.923,4.2.739,2.983,1.71,5.04,3.412,6.425a10.5,10.5,0,0,0,6.3,2.213c4.711.153,9.695-2.427,11.534-6.671a1.781,1.781,0,0,1,1.815-1.064,1.953,1.953,0,0,1,1.586,1.494,6.589,6.589,0,0,0,4.03,4.9,12.8,12.8,0,0,0,7.528.558,15.074,15.074,0,0,0,7.244-3.625,9.317,9.317,0,0,0,3.1-6.74C55.478,42.343,65.737,24.489,75.6,30.5l-.392,1.959c-7.646-5.258-17.153,11.025-2.757,15.16,6.373.964,10.442-1.085,13.111-4.6s3.84-8.7,3.508-13.876S86.9,18.866,84.017,15.607A10.671,10.671,0,0,0,72.236,12.2a1.945,1.945,0,0,1-2.278-1.632,10.825,10.825,0,0,0-4.458-7.7A15.8,15.8,0,0,0,56.8.014Z" transform="translate(2.858 1.89)" fill="#04192e"/></g><g transform="translate(1509.949) rotate(15.009)"><path d="M0,28.1c4.787,5.963,11.2,7.327,14.277,4.646s5.387-9.509,13.011-6.763C23.652,16.18,33.951,4.5,44.24,9.713,46.794-3.468,72.482-3.818,74.483,12.271c22.83-6.463,28.008,43.268.517,39.111-.232,13.026-22.662,17.594-25.458,5.187-4.4,10.165-22.568,11.3-24.654-2.547C12.75,59.457,1.718,43.8,0,28.1Z" fill="#fff"/><path d="M56.807.014a16.7,16.7,0,0,0-8.883,2.05,9.123,9.123,0,0,0-4.681,6.193C37.678,30.195,63.26,26.14,57.1,12.3l2.216-1.244C66.887,29.077,36.24,32.968,40.73,9.512,31.858,5.018,23.187,15.287,26.216,23.45a1.974,1.974,0,0,1-.359,1.974,1.754,1.754,0,0,1-1.865.456c-3.315-1.193-4.868-.418-6.481,1.009s-2.879,3.747-4.8,5.427c-2.1,1.834-5.119,2.142-8.119,1.273A15.492,15.492,0,0,1,0,31.3,36.073,36.073,0,0,0,7.1,45.851c4.156,4.812,8.945,6.934,14.28,4.545-1.809-11.467,14.87-16.731,16.529-2.828l-2.08.119c-1.613-10.732-14.637-6.749-11.923,4.2.739,2.983,1.71,5.04,3.412,6.425a10.5,10.5,0,0,0,6.3,2.213c4.711.153,9.695-2.427,11.534-6.671a1.781,1.781,0,0,1,1.815-1.064,1.953,1.953,0,0,1,1.586,1.494,6.589,6.589,0,0,0,4.03,4.9,12.8,12.8,0,0,0,7.528.558,15.074,15.074,0,0,0,7.244-3.625,9.317,9.317,0,0,0,3.1-6.74C55.478,42.343,65.737,24.489,75.6,30.5l-.392,1.959c-7.646-5.258-17.153,11.025-2.757,15.16,6.373.964,10.442-1.085,13.111-4.6s3.84-8.7,3.508-13.876S86.9,18.866,84.017,15.607A10.671,10.671,0,0,0,72.236,12.2a1.945,1.945,0,0,1-2.278-1.632,10.825,10.825,0,0,0-4.458-7.7A15.8,15.8,0,0,0,56.8.014Z" transform="translate(2.858 1.89)" fill="#04192e"/></g><g transform="translate(-398.355) rotate(15.009)"><path d="M0,28.1c4.787,5.963,11.2,7.327,14.277,4.646s5.387-9.509,13.011-6.763C23.652,16.18,33.951,4.5,44.24,9.713,46.794-3.468,72.482-3.818,74.483,12.271c22.83-6.463,28.008,43.268.517,39.111-.232,13.026-22.662,17.594-25.458,5.187-4.4,10.165-22.568,11.3-24.654-2.547C12.75,59.457,1.718,43.8,0,28.1Z" fill="#fff"/><path d="M56.807.014a16.7,16.7,0,0,0-8.883,2.05,9.123,9.123,0,0,0-4.681,6.193C37.678,30.195,63.26,26.14,57.1,12.3l2.216-1.244C66.887,29.077,36.24,32.968,40.73,9.512,31.858,5.018,23.187,15.287,26.216,23.45a1.974,1.974,0,0,1-.359,1.974,1.754,1.754,0,0,1-1.865.456c-3.315-1.193-4.868-.418-6.481,1.009s-2.879,3.747-4.8,5.427c-2.1,1.834-5.119,2.142-8.119,1.273A15.492,15.492,0,0,1,0,31.3,36.073,36.073,0,0,0,7.1,45.851c4.156,4.812,8.945,6.934,14.28,4.545-1.809-11.467,14.87-16.731,16.529-2.828l-2.08.119c-1.613-10.732-14.637-6.749-11.923,4.2.739,2.983,1.71,5.04,3.412,6.425a10.5,10.5,0,0,0,6.3,2.213c4.711.153,9.695-2.427,11.534-6.671a1.781,1.781,0,0,1,1.815-1.064,1.953,1.953,0,0,1,1.586,1.494,6.589,6.589,0,0,0,4.03,4.9,12.8,12.8,0,0,0,7.528.558,15.074,15.074,0,0,0,7.244-3.625,9.317,9.317,0,0,0,3.1-6.74C55.478,42.343,65.737,24.489,75.6,30.5l-.392,1.959c-7.646-5.258-17.153,11.025-2.757,15.16,6.373.964,10.442-1.085,13.111-4.6s3.84-8.7,3.508-13.876S86.9,18.866,84.017,15.607A10.671,10.671,0,0,0,72.236,12.2a1.945,1.945,0,0,1-2.278-1.632,10.825,10.825,0,0,0-4.458-7.7A15.8,15.8,0,0,0,56.8.014Z" transform="translate(2.858 1.89)" fill="#04192e"/></g><g transform="translate(237.935 275.981) rotate(15.009)"><path d="M0,28.1c4.787,5.963,11.2,7.327,14.277,4.646s5.387-9.509,13.011-6.763C23.652,16.18,33.951,4.5,44.24,9.713,46.794-3.468,72.482-3.818,74.483,12.271c22.83-6.463,28.008,43.268.517,39.111-.232,13.026-22.662,17.594-25.458,5.187-4.4,10.165-22.568,11.3-24.654-2.547C12.75,59.457,1.718,43.8,0,28.1Z" fill="#fff"/><path d="M56.807.014a16.7,16.7,0,0,0-8.883,2.05,9.123,9.123,0,0,0-4.681,6.193C37.678,30.195,63.26,26.14,57.1,12.3l2.216-1.244C66.887,29.077,36.24,32.968,40.73,9.512,31.858,5.018,23.187,15.287,26.216,23.45a1.974,1.974,0,0,1-.359,1.974,1.754,1.754,0,0,1-1.865.456c-3.315-1.193-4.868-.418-6.481,1.009s-2.879,3.747-4.8,5.427c-2.1,1.834-5.119,2.142-8.119,1.273A15.492,15.492,0,0,1,0,31.3,36.073,36.073,0,0,0,7.1,45.851c4.156,4.812,8.945,6.934,14.28,4.545-1.809-11.467,14.87-16.731,16.529-2.828l-2.08.119c-1.613-10.732-14.637-6.749-11.923,4.2.739,2.983,1.71,5.04,3.412,6.425a10.5,10.5,0,0,0,6.3,2.213c4.711.153,9.695-2.427,11.534-6.671a1.781,1.781,0,0,1,1.815-1.064,1.953,1.953,0,0,1,1.586,1.494,6.589,6.589,0,0,0,4.03,4.9,12.8,12.8,0,0,0,7.528.558,15.074,15.074,0,0,0,7.244-3.625,9.317,9.317,0,0,0,3.1-6.74C55.478,42.343,65.737,24.489,75.6,30.5l-.392,1.959c-7.646-5.258-17.153,11.025-2.757,15.16,6.373.964,10.442-1.085,13.111-4.6s3.84-8.7,3.508-13.876S86.9,18.866,84.017,15.607A10.671,10.671,0,0,0,72.236,12.2a1.945,1.945,0,0,1-2.278-1.632,10.825,10.825,0,0,0-4.458-7.7A15.8,15.8,0,0,0,56.8.014Z" transform="translate(2.858 1.89)" fill="#04192e"/></g><g transform="translate(555.867 275.981) rotate(15.009)"><path d="M0,28.1c4.787,5.963,11.2,7.327,14.277,4.646s5.387-9.509,13.011-6.763C23.652,16.18,33.951,4.5,44.24,9.713,46.794-3.468,72.482-3.818,74.483,12.271c22.83-6.463,28.008,43.268.517,39.111-.232,13.026-22.662,17.594-25.458,5.187-4.4,10.165-22.568,11.3-24.654-2.547C12.75,59.457,1.718,43.8,0,28.1Z" fill="#fff"/><path d="M56.807.014a16.7,16.7,0,0,0-8.883,2.05,9.123,9.123,0,0,0-4.681,6.193C37.678,30.195,63.26,26.14,57.1,12.3l2.216-1.244C66.887,29.077,36.24,32.968,40.73,9.512,31.858,5.018,23.187,15.287,26.216,23.45a1.974,1.974,0,0,1-.359,1.974,1.754,1.754,0,0,1-1.865.456c-3.315-1.193-4.868-.418-6.481,1.009s-2.879,3.747-4.8,5.427c-2.1,1.834-5.119,2.142-8.119,1.273A15.492,15.492,0,0,1,0,31.3,36.073,36.073,0,0,0,7.1,45.851c4.156,4.812,8.945,6.934,14.28,4.545-1.809-11.467,14.87-16.731,16.529-2.828l-2.08.119c-1.613-10.732-14.637-6.749-11.923,4.2.739,2.983,1.71,5.04,3.412,6.425a10.5,10.5,0,0,0,6.3,2.213c4.711.153,9.695-2.427,11.534-6.671a1.781,1.781,0,0,1,1.815-1.064,1.953,1.953,0,0,1,1.586,1.494,6.589,6.589,0,0,0,4.03,4.9,12.8,12.8,0,0,0,7.528.558,15.074,15.074,0,0,0,7.244-3.625,9.317,9.317,0,0,0,3.1-6.74C55.478,42.343,65.737,24.489,75.6,30.5l-.392,1.959c-7.646-5.258-17.153,11.025-2.757,15.16,6.373.964,10.442-1.085,13.111-4.6s3.84-8.7,3.508-13.876S86.9,18.866,84.017,15.607A10.671,10.671,0,0,0,72.236,12.2a1.945,1.945,0,0,1-2.278-1.632,10.825,10.825,0,0,0-4.458-7.7A15.8,15.8,0,0,0,56.8.014Z" transform="translate(2.858 1.89)" fill="#04192e"/></g><g transform="translate(1192.016 275.981) rotate(15.009)"><path d="M0,28.1c4.787,5.963,11.2,7.327,14.277,4.646s5.387-9.509,13.011-6.763C23.652,16.18,33.951,4.5,44.24,9.713,46.794-3.468,72.482-3.818,74.483,12.271c22.83-6.463,28.008,43.268.517,39.111-.232,13.026-22.662,17.594-25.458,5.187-4.4,10.165-22.568,11.3-24.654-2.547C12.75,59.457,1.718,43.8,0,28.1Z" fill="#fff"/><path d="M56.807.014a16.7,16.7,0,0,0-8.883,2.05,9.123,9.123,0,0,0-4.681,6.193C37.678,30.195,63.26,26.14,57.1,12.3l2.216-1.244C66.887,29.077,36.24,32.968,40.73,9.512,31.858,5.018,23.187,15.287,26.216,23.45a1.974,1.974,0,0,1-.359,1.974,1.754,1.754,0,0,1-1.865.456c-3.315-1.193-4.868-.418-6.481,1.009s-2.879,3.747-4.8,5.427c-2.1,1.834-5.119,2.142-8.119,1.273A15.492,15.492,0,0,1,0,31.3,36.073,36.073,0,0,0,7.1,45.851c4.156,4.812,8.945,6.934,14.28,4.545-1.809-11.467,14.87-16.731,16.529-2.828l-2.08.119c-1.613-10.732-14.637-6.749-11.923,4.2.739,2.983,1.71,5.04,3.412,6.425a10.5,10.5,0,0,0,6.3,2.213c4.711.153,9.695-2.427,11.534-6.671a1.781,1.781,0,0,1,1.815-1.064,1.953,1.953,0,0,1,1.586,1.494,6.589,6.589,0,0,0,4.03,4.9,12.8,12.8,0,0,0,7.528.558,15.074,15.074,0,0,0,7.244-3.625,9.317,9.317,0,0,0,3.1-6.74C55.478,42.343,65.737,24.489,75.6,30.5l-.392,1.959c-7.646-5.258-17.153,11.025-2.757,15.16,6.373.964,10.442-1.085,13.111-4.6s3.84-8.7,3.508-13.876S86.9,18.866,84.017,15.607A10.671,10.671,0,0,0,72.236,12.2a1.945,1.945,0,0,1-2.278-1.632,10.825,10.825,0,0,0-4.458-7.7A15.8,15.8,0,0,0,56.8.014Z" transform="translate(2.858 1.89)" fill="#04192e"/></g><g transform="translate(873.8 275.981) rotate(15.009)"><path d="M0,28.1c4.787,5.963,11.2,7.327,14.277,4.646s5.387-9.509,13.011-6.763C23.652,16.18,33.951,4.5,44.24,9.713,46.794-3.468,72.482-3.818,74.483,12.271c22.83-6.463,28.008,43.268.517,39.111-.232,13.026-22.662,17.594-25.458,5.187-4.4,10.165-22.568,11.3-24.654-2.547C12.75,59.457,1.718,43.8,0,28.1Z" fill="#fff"/><path d="M56.807.014a16.7,16.7,0,0,0-8.883,2.05,9.123,9.123,0,0,0-4.681,6.193C37.678,30.195,63.26,26.14,57.1,12.3l2.216-1.244C66.887,29.077,36.24,32.968,40.73,9.512,31.858,5.018,23.187,15.287,26.216,23.45a1.974,1.974,0,0,1-.359,1.974,1.754,1.754,0,0,1-1.865.456c-3.315-1.193-4.868-.418-6.481,1.009s-2.879,3.747-4.8,5.427c-2.1,1.834-5.119,2.142-8.119,1.273A15.492,15.492,0,0,1,0,31.3,36.073,36.073,0,0,0,7.1,45.851c4.156,4.812,8.945,6.934,14.28,4.545-1.809-11.467,14.87-16.731,16.529-2.828l-2.08.119c-1.613-10.732-14.637-6.749-11.923,4.2.739,2.983,1.71,5.04,3.412,6.425a10.5,10.5,0,0,0,6.3,2.213c4.711.153,9.695-2.427,11.534-6.671a1.781,1.781,0,0,1,1.815-1.064,1.953,1.953,0,0,1,1.586,1.494,6.589,6.589,0,0,0,4.03,4.9,12.8,12.8,0,0,0,7.528.558,15.074,15.074,0,0,0,7.244-3.625,9.317,9.317,0,0,0,3.1-6.74C55.478,42.343,65.737,24.489,75.6,30.5l-.392,1.959c-7.646-5.258-17.153,11.025-2.757,15.16,6.373.964,10.442-1.085,13.111-4.6s3.84-8.7,3.508-13.876S86.9,18.866,84.017,15.607A10.671,10.671,0,0,0,72.236,12.2a1.945,1.945,0,0,1-2.278-1.632,10.825,10.825,0,0,0-4.458-7.7A15.8,15.8,0,0,0,56.8.014Z" transform="translate(2.858 1.89)" fill="#04192e"/></g><g transform="translate(1509.949 275.981) rotate(15.009)"><path d="M0,28.1c4.787,5.963,11.2,7.327,14.277,4.646s5.387-9.509,13.011-6.763C23.652,16.18,33.951,4.5,44.24,9.713,46.794-3.468,72.482-3.818,74.483,12.271c22.83-6.463,28.008,43.268.517,39.111-.232,13.026-22.662,17.594-25.458,5.187-4.4,10.165-22.568,11.3-24.654-2.547C12.75,59.457,1.718,43.8,0,28.1Z" fill="#fff"/><path d="M56.807.014a16.7,16.7,0,0,0-8.883,2.05,9.123,9.123,0,0,0-4.681,6.193C37.678,30.195,63.26,26.14,57.1,12.3l2.216-1.244C66.887,29.077,36.24,32.968,40.73,9.512,31.858,5.018,23.187,15.287,26.216,23.45a1.974,1.974,0,0,1-.359,1.974,1.754,1.754,0,0,1-1.865.456c-3.315-1.193-4.868-.418-6.481,1.009s-2.879,3.747-4.8,5.427c-2.1,1.834-5.119,2.142-8.119,1.273A15.492,15.492,0,0,1,0,31.3,36.073,36.073,0,0,0,7.1,45.851c4.156,4.812,8.945,6.934,14.28,4.545-1.809-11.467,14.87-16.731,16.529-2.828l-2.08.119c-1.613-10.732-14.637-6.749-11.923,4.2.739,2.983,1.71,5.04,3.412,6.425a10.5,10.5,0,0,0,6.3,2.213c4.711.153,9.695-2.427,11.534-6.671a1.781,1.781,0,0,1,1.815-1.064,1.953,1.953,0,0,1,1.586,1.494,6.589,6.589,0,0,0,4.03,4.9,12.8,12.8,0,0,0,7.528.558,15.074,15.074,0,0,0,7.244-3.625,9.317,9.317,0,0,0,3.1-6.74C55.478,42.343,65.737,24.489,75.6,30.5l-.392,1.959c-7.646-5.258-17.153,11.025-2.757,15.16,6.373.964,10.442-1.085,13.111-4.6s3.84-8.7,3.508-13.876S86.9,18.866,84.017,15.607A10.671,10.671,0,0,0,72.236,12.2a1.945,1.945,0,0,1-2.278-1.632,10.825,10.825,0,0,0-4.458-7.7A15.8,15.8,0,0,0,56.8.014Z" transform="translate(2.858 1.89)" fill="#04192e"/></g><g transform="translate(237.935 551.963) rotate(15.009)"><path d="M0,28.1c4.787,5.963,11.2,7.327,14.277,4.646s5.387-9.509,13.011-6.763C23.652,16.18,33.951,4.5,44.24,9.713,46.794-3.468,72.482-3.818,74.483,12.271c22.83-6.463,28.008,43.268.517,39.111-.232,13.026-22.662,17.594-25.458,5.187-4.4,10.165-22.568,11.3-24.654-2.547C12.75,59.457,1.718,43.8,0,28.1Z" fill="#fff"/><path d="M56.807.014a16.7,16.7,0,0,0-8.883,2.05,9.123,9.123,0,0,0-4.681,6.193C37.678,30.195,63.26,26.14,57.1,12.3l2.216-1.244C66.887,29.077,36.24,32.968,40.73,9.512,31.858,5.018,23.187,15.287,26.216,23.45a1.974,1.974,0,0,1-.359,1.974,1.754,1.754,0,0,1-1.865.456c-3.315-1.193-4.868-.418-6.481,1.009s-2.879,3.747-4.8,5.427c-2.1,1.834-5.119,2.142-8.119,1.273A15.492,15.492,0,0,1,0,31.3,36.073,36.073,0,0,0,7.1,45.851c4.156,4.812,8.945,6.934,14.28,4.545-1.809-11.467,14.87-16.731,16.529-2.828l-2.08.119c-1.613-10.732-14.637-6.749-11.923,4.2.739,2.983,1.71,5.04,3.412,6.425a10.5,10.5,0,0,0,6.3,2.213c4.711.153,9.695-2.427,11.534-6.671a1.781,1.781,0,0,1,1.815-1.064,1.953,1.953,0,0,1,1.586,1.494,6.589,6.589,0,0,0,4.03,4.9,12.8,12.8,0,0,0,7.528.558,15.074,15.074,0,0,0,7.244-3.625,9.317,9.317,0,0,0,3.1-6.74C55.478,42.343,65.737,24.489,75.6,30.5l-.392,1.959c-7.646-5.258-17.153,11.025-2.757,15.16,6.373.964,10.442-1.085,13.111-4.6s3.84-8.7,3.508-13.876S86.9,18.866,84.017,15.607A10.671,10.671,0,0,0,72.236,12.2a1.945,1.945,0,0,1-2.278-1.632,10.825,10.825,0,0,0-4.458-7.7A15.8,15.8,0,0,0,56.8.014Z" transform="translate(2.858 1.89)" fill="#04192e"/></g><g transform="translate(555.867 551.963) rotate(15.009)"><path d="M0,28.1c4.787,5.963,11.2,7.327,14.277,4.646s5.387-9.509,13.011-6.763C23.652,16.18,33.951,4.5,44.24,9.713,46.794-3.468,72.482-3.818,74.483,12.271c22.83-6.463,28.008,43.268.517,39.111-.232,13.026-22.662,17.594-25.458,5.187-4.4,10.165-22.568,11.3-24.654-2.547C12.75,59.457,1.718,43.8,0,28.1Z" fill="#fff"/><path d="M56.807.014a16.7,16.7,0,0,0-8.883,2.05,9.123,9.123,0,0,0-4.681,6.193C37.678,30.195,63.26,26.14,57.1,12.3l2.216-1.244C66.887,29.077,36.24,32.968,40.73,9.512,31.858,5.018,23.187,15.287,26.216,23.45a1.974,1.974,0,0,1-.359,1.974,1.754,1.754,0,0,1-1.865.456c-3.315-1.193-4.868-.418-6.481,1.009s-2.879,3.747-4.8,5.427c-2.1,1.834-5.119,2.142-8.119,1.273A15.492,15.492,0,0,1,0,31.3,36.073,36.073,0,0,0,7.1,45.851c4.156,4.812,8.945,6.934,14.28,4.545-1.809-11.467,14.87-16.731,16.529-2.828l-2.08.119c-1.613-10.732-14.637-6.749-11.923,4.2.739,2.983,1.71,5.04,3.412,6.425a10.5,10.5,0,0,0,6.3,2.213c4.711.153,9.695-2.427,11.534-6.671a1.781,1.781,0,0,1,1.815-1.064,1.953,1.953,0,0,1,1.586,1.494,6.589,6.589,0,0,0,4.03,4.9,12.8,12.8,0,0,0,7.528.558,15.074,15.074,0,0,0,7.244-3.625,9.317,9.317,0,0,0,3.1-6.74C55.478,42.343,65.737,24.489,75.6,30.5l-.392,1.959c-7.646-5.258-17.153,11.025-2.757,15.16,6.373.964,10.442-1.085,13.111-4.6s3.84-8.7,3.508-13.876S86.9,18.866,84.017,15.607A10.671,10.671,0,0,0,72.236,12.2a1.945,1.945,0,0,1-2.278-1.632,10.825,10.825,0,0,0-4.458-7.7A15.8,15.8,0,0,0,56.8.014Z" transform="translate(2.858 1.89)" fill="#04192e"/></g><g transform="translate(1192.016 551.963) rotate(15.009)"><path d="M0,28.1c4.787,5.963,11.2,7.327,14.277,4.646s5.387-9.509,13.011-6.763C23.652,16.18,33.951,4.5,44.24,9.713,46.794-3.468,72.482-3.818,74.483,12.271c22.83-6.463,28.008,43.268.517,39.111-.232,13.026-22.662,17.594-25.458,5.187-4.4,10.165-22.568,11.3-24.654-2.547C12.75,59.457,1.718,43.8,0,28.1Z" fill="#fff"/><path d="M56.807.014a16.7,16.7,0,0,0-8.883,2.05,9.123,9.123,0,0,0-4.681,6.193C37.678,30.195,63.26,26.14,57.1,12.3l2.216-1.244C66.887,29.077,36.24,32.968,40.73,9.512,31.858,5.018,23.187,15.287,26.216,23.45a1.974,1.974,0,0,1-.359,1.974,1.754,1.754,0,0,1-1.865.456c-3.315-1.193-4.868-.418-6.481,1.009s-2.879,3.747-4.8,5.427c-2.1,1.834-5.119,2.142-8.119,1.273A15.492,15.492,0,0,1,0,31.3,36.073,36.073,0,0,0,7.1,45.851c4.156,4.812,8.945,6.934,14.28,4.545-1.809-11.467,14.87-16.731,16.529-2.828l-2.08.119c-1.613-10.732-14.637-6.749-11.923,4.2.739,2.983,1.71,5.04,3.412,6.425a10.5,10.5,0,0,0,6.3,2.213c4.711.153,9.695-2.427,11.534-6.671a1.781,1.781,0,0,1,1.815-1.064,1.953,1.953,0,0,1,1.586,1.494,6.589,6.589,0,0,0,4.03,4.9,12.8,12.8,0,0,0,7.528.558,15.074,15.074,0,0,0,7.244-3.625,9.317,9.317,0,0,0,3.1-6.74C55.478,42.343,65.737,24.489,75.6,30.5l-.392,1.959c-7.646-5.258-17.153,11.025-2.757,15.16,6.373.964,10.442-1.085,13.111-4.6s3.84-8.7,3.508-13.876S86.9,18.866,84.017,15.607A10.671,10.671,0,0,0,72.236,12.2a1.945,1.945,0,0,1-2.278-1.632,10.825,10.825,0,0,0-4.458-7.7A15.8,15.8,0,0,0,56.8.014Z" transform="translate(2.858 1.89)" fill="#04192e"/></g><g transform="translate(873.8 551.963) rotate(15.009)"><path d="M0,28.1c4.787,5.963,11.2,7.327,14.277,4.646s5.387-9.509,13.011-6.763C23.652,16.18,33.951,4.5,44.24,9.713,46.794-3.468,72.482-3.818,74.483,12.271c22.83-6.463,28.008,43.268.517,39.111-.232,13.026-22.662,17.594-25.458,5.187-4.4,10.165-22.568,11.3-24.654-2.547C12.75,59.457,1.718,43.8,0,28.1Z" fill="#fff"/><path d="M56.807.014a16.7,16.7,0,0,0-8.883,2.05,9.123,9.123,0,0,0-4.681,6.193C37.678,30.195,63.26,26.14,57.1,12.3l2.216-1.244C66.887,29.077,36.24,32.968,40.73,9.512,31.858,5.018,23.187,15.287,26.216,23.45a1.974,1.974,0,0,1-.359,1.974,1.754,1.754,0,0,1-1.865.456c-3.315-1.193-4.868-.418-6.481,1.009s-2.879,3.747-4.8,5.427c-2.1,1.834-5.119,2.142-8.119,1.273A15.492,15.492,0,0,1,0,31.3,36.073,36.073,0,0,0,7.1,45.851c4.156,4.812,8.945,6.934,14.28,4.545-1.809-11.467,14.87-16.731,16.529-2.828l-2.08.119c-1.613-10.732-14.637-6.749-11.923,4.2.739,2.983,1.71,5.04,3.412,6.425a10.5,10.5,0,0,0,6.3,2.213c4.711.153,9.695-2.427,11.534-6.671a1.781,1.781,0,0,1,1.815-1.064,1.953,1.953,0,0,1,1.586,1.494,6.589,6.589,0,0,0,4.03,4.9,12.8,12.8,0,0,0,7.528.558,15.074,15.074,0,0,0,7.244-3.625,9.317,9.317,0,0,0,3.1-6.74C55.478,42.343,65.737,24.489,75.6,30.5l-.392,1.959c-7.646-5.258-17.153,11.025-2.757,15.16,6.373.964,10.442-1.085,13.111-4.6s3.84-8.7,3.508-13.876S86.9,18.866,84.017,15.607A10.671,10.671,0,0,0,72.236,12.2a1.945,1.945,0,0,1-2.278-1.632,10.825,10.825,0,0,0-4.458-7.7A15.8,15.8,0,0,0,56.8.014Z" transform="translate(2.858 1.89)" fill="#04192e"/></g><g transform="translate(1509.949 551.963) rotate(15.009)"><path d="M0,28.1c4.787,5.963,11.2,7.327,14.277,4.646s5.387-9.509,13.011-6.763C23.652,16.18,33.951,4.5,44.24,9.713,46.794-3.468,72.482-3.818,74.483,12.271c22.83-6.463,28.008,43.268.517,39.111-.232,13.026-22.662,17.594-25.458,5.187-4.4,10.165-22.568,11.3-24.654-2.547C12.75,59.457,1.718,43.8,0,28.1Z" fill="#fff"/><path d="M56.807.014a16.7,16.7,0,0,0-8.883,2.05,9.123,9.123,0,0,0-4.681,6.193C37.678,30.195,63.26,26.14,57.1,12.3l2.216-1.244C66.887,29.077,36.24,32.968,40.73,9.512,31.858,5.018,23.187,15.287,26.216,23.45a1.974,1.974,0,0,1-.359,1.974,1.754,1.754,0,0,1-1.865.456c-3.315-1.193-4.868-.418-6.481,1.009s-2.879,3.747-4.8,5.427c-2.1,1.834-5.119,2.142-8.119,1.273A15.492,15.492,0,0,1,0,31.3,36.073,36.073,0,0,0,7.1,45.851c4.156,4.812,8.945,6.934,14.28,4.545-1.809-11.467,14.87-16.731,16.529-2.828l-2.08.119c-1.613-10.732-14.637-6.749-11.923,4.2.739,2.983,1.71,5.04,3.412,6.425a10.5,10.5,0,0,0,6.3,2.213c4.711.153,9.695-2.427,11.534-6.671a1.781,1.781,0,0,1,1.815-1.064,1.953,1.953,0,0,1,1.586,1.494,6.589,6.589,0,0,0,4.03,4.9,12.8,12.8,0,0,0,7.528.558,15.074,15.074,0,0,0,7.244-3.625,9.317,9.317,0,0,0,3.1-6.74C55.478,42.343,65.737,24.489,75.6,30.5l-.392,1.959c-7.646-5.258-17.153,11.025-2.757,15.16,6.373.964,10.442-1.085,13.111-4.6s3.84-8.7,3.508-13.876S86.9,18.866,84.017,15.607A10.671,10.671,0,0,0,72.236,12.2a1.945,1.945,0,0,1-2.278-1.632,10.825,10.825,0,0,0-4.458-7.7A15.8,15.8,0,0,0,56.8.014Z" transform="translate(2.858 1.89)" fill="#04192e"/></g><g transform="translate(237.935 827.944) rotate(15.009)"><path d="M0,28.1c4.787,5.963,11.2,7.327,14.277,4.646s5.387-9.509,13.011-6.763C23.652,16.18,33.951,4.5,44.24,9.713,46.794-3.468,72.482-3.818,74.483,12.271c22.83-6.463,28.008,43.268.517,39.111-.232,13.026-22.662,17.594-25.458,5.187-4.4,10.165-22.568,11.3-24.654-2.547C12.75,59.457,1.718,43.8,0,28.1Z" fill="#fff"/><path d="M56.807.014a16.7,16.7,0,0,0-8.883,2.05,9.123,9.123,0,0,0-4.681,6.193C37.678,30.195,63.26,26.14,57.1,12.3l2.216-1.244C66.887,29.077,36.24,32.968,40.73,9.512,31.858,5.018,23.187,15.287,26.216,23.45a1.974,1.974,0,0,1-.359,1.974,1.754,1.754,0,0,1-1.865.456c-3.315-1.193-4.868-.418-6.481,1.009s-2.879,3.747-4.8,5.427c-2.1,1.834-5.119,2.142-8.119,1.273A15.492,15.492,0,0,1,0,31.3,36.073,36.073,0,0,0,7.1,45.851c4.156,4.812,8.945,6.934,14.28,4.545-1.809-11.467,14.87-16.731,16.529-2.828l-2.08.119c-1.613-10.732-14.637-6.749-11.923,4.2.739,2.983,1.71,5.04,3.412,6.425a10.5,10.5,0,0,0,6.3,2.213c4.711.153,9.695-2.427,11.534-6.671a1.781,1.781,0,0,1,1.815-1.064,1.953,1.953,0,0,1,1.586,1.494,6.589,6.589,0,0,0,4.03,4.9,12.8,12.8,0,0,0,7.528.558,15.074,15.074,0,0,0,7.244-3.625,9.317,9.317,0,0,0,3.1-6.74C55.478,42.343,65.737,24.489,75.6,30.5l-.392,1.959c-7.646-5.258-17.153,11.025-2.757,15.16,6.373.964,10.442-1.085,13.111-4.6s3.84-8.7,3.508-13.876S86.9,18.866,84.017,15.607A10.671,10.671,0,0,0,72.236,12.2a1.945,1.945,0,0,1-2.278-1.632,10.825,10.825,0,0,0-4.458-7.7A15.8,15.8,0,0,0,56.8.014Z" transform="translate(2.858 1.89)" fill="#04192e"/></g><g transform="translate(555.867 827.944) rotate(15.009)"><path d="M0,28.1c4.787,5.963,11.2,7.327,14.277,4.646s5.387-9.509,13.011-6.763C23.652,16.18,33.951,4.5,44.24,9.713,46.794-3.468,72.482-3.818,74.483,12.271c22.83-6.463,28.008,43.268.517,39.111-.232,13.026-22.662,17.594-25.458,5.187-4.4,10.165-22.568,11.3-24.654-2.547C12.75,59.457,1.718,43.8,0,28.1Z" fill="#fff"/><path d="M56.807.014a16.7,16.7,0,0,0-8.883,2.05,9.123,9.123,0,0,0-4.681,6.193C37.678,30.195,63.26,26.14,57.1,12.3l2.216-1.244C66.887,29.077,36.24,32.968,40.73,9.512,31.858,5.018,23.187,15.287,26.216,23.45a1.974,1.974,0,0,1-.359,1.974,1.754,1.754,0,0,1-1.865.456c-3.315-1.193-4.868-.418-6.481,1.009s-2.879,3.747-4.8,5.427c-2.1,1.834-5.119,2.142-8.119,1.273A15.492,15.492,0,0,1,0,31.3,36.073,36.073,0,0,0,7.1,45.851c4.156,4.812,8.945,6.934,14.28,4.545-1.809-11.467,14.87-16.731,16.529-2.828l-2.08.119c-1.613-10.732-14.637-6.749-11.923,4.2.739,2.983,1.71,5.04,3.412,6.425a10.5,10.5,0,0,0,6.3,2.213c4.711.153,9.695-2.427,11.534-6.671a1.781,1.781,0,0,1,1.815-1.064,1.953,1.953,0,0,1,1.586,1.494,6.589,6.589,0,0,0,4.03,4.9,12.8,12.8,0,0,0,7.528.558,15.074,15.074,0,0,0,7.244-3.625,9.317,9.317,0,0,0,3.1-6.74C55.478,42.343,65.737,24.489,75.6,30.5l-.392,1.959c-7.646-5.258-17.153,11.025-2.757,15.16,6.373.964,10.442-1.085,13.111-4.6s3.84-8.7,3.508-13.876S86.9,18.866,84.017,15.607A10.671,10.671,0,0,0,72.236,12.2a1.945,1.945,0,0,1-2.278-1.632,10.825,10.825,0,0,0-4.458-7.7A15.8,15.8,0,0,0,56.8.014Z" transform="translate(2.858 1.89)" fill="#04192e"/></g><g transform="translate(1192.016 827.944) rotate(15.009)"><path d="M0,28.1c4.787,5.963,11.2,7.327,14.277,4.646s5.387-9.509,13.011-6.763C23.652,16.18,33.951,4.5,44.24,9.713,46.794-3.468,72.482-3.818,74.483,12.271c22.83-6.463,28.008,43.268.517,39.111-.232,13.026-22.662,17.594-25.458,5.187-4.4,10.165-22.568,11.3-24.654-2.547C12.75,59.457,1.718,43.8,0,28.1Z" fill="#fff"/><path d="M56.807.014a16.7,16.7,0,0,0-8.883,2.05,9.123,9.123,0,0,0-4.681,6.193C37.678,30.195,63.26,26.14,57.1,12.3l2.216-1.244C66.887,29.077,36.24,32.968,40.73,9.512,31.858,5.018,23.187,15.287,26.216,23.45a1.974,1.974,0,0,1-.359,1.974,1.754,1.754,0,0,1-1.865.456c-3.315-1.193-4.868-.418-6.481,1.009s-2.879,3.747-4.8,5.427c-2.1,1.834-5.119,2.142-8.119,1.273A15.492,15.492,0,0,1,0,31.3,36.073,36.073,0,0,0,7.1,45.851c4.156,4.812,8.945,6.934,14.28,4.545-1.809-11.467,14.87-16.731,16.529-2.828l-2.08.119c-1.613-10.732-14.637-6.749-11.923,4.2.739,2.983,1.71,5.04,3.412,6.425a10.5,10.5,0,0,0,6.3,2.213c4.711.153,9.695-2.427,11.534-6.671a1.781,1.781,0,0,1,1.815-1.064,1.953,1.953,0,0,1,1.586,1.494,6.589,6.589,0,0,0,4.03,4.9,12.8,12.8,0,0,0,7.528.558,15.074,15.074,0,0,0,7.244-3.625,9.317,9.317,0,0,0,3.1-6.74C55.478,42.343,65.737,24.489,75.6,30.5l-.392,1.959c-7.646-5.258-17.153,11.025-2.757,15.16,6.373.964,10.442-1.085,13.111-4.6s3.84-8.7,3.508-13.876S86.9,18.866,84.017,15.607A10.671,10.671,0,0,0,72.236,12.2a1.945,1.945,0,0,1-2.278-1.632,10.825,10.825,0,0,0-4.458-7.7A15.8,15.8,0,0,0,56.8.014Z" transform="translate(2.858 1.89)" fill="#04192e"/></g><g transform="translate(873.8 827.944) rotate(15.009)"><path d="M0,28.1c4.787,5.963,11.2,7.327,14.277,4.646s5.387-9.509,13.011-6.763C23.652,16.18,33.951,4.5,44.24,9.713,46.794-3.468,72.482-3.818,74.483,12.271c22.83-6.463,28.008,43.268.517,39.111-.232,13.026-22.662,17.594-25.458,5.187-4.4,10.165-22.568,11.3-24.654-2.547C12.75,59.457,1.718,43.8,0,28.1Z" fill="#fff"/><path d="M56.807.014a16.7,16.7,0,0,0-8.883,2.05,9.123,9.123,0,0,0-4.681,6.193C37.678,30.195,63.26,26.14,57.1,12.3l2.216-1.244C66.887,29.077,36.24,32.968,40.73,9.512,31.858,5.018,23.187,15.287,26.216,23.45a1.974,1.974,0,0,1-.359,1.974,1.754,1.754,0,0,1-1.865.456c-3.315-1.193-4.868-.418-6.481,1.009s-2.879,3.747-4.8,5.427c-2.1,1.834-5.119,2.142-8.119,1.273A15.492,15.492,0,0,1,0,31.3,36.073,36.073,0,0,0,7.1,45.851c4.156,4.812,8.945,6.934,14.28,4.545-1.809-11.467,14.87-16.731,16.529-2.828l-2.08.119c-1.613-10.732-14.637-6.749-11.923,4.2.739,2.983,1.71,5.04,3.412,6.425a10.5,10.5,0,0,0,6.3,2.213c4.711.153,9.695-2.427,11.534-6.671a1.781,1.781,0,0,1,1.815-1.064,1.953,1.953,0,0,1,1.586,1.494,6.589,6.589,0,0,0,4.03,4.9,12.8,12.8,0,0,0,7.528.558,15.074,15.074,0,0,0,7.244-3.625,9.317,9.317,0,0,0,3.1-6.74C55.478,42.343,65.737,24.489,75.6,30.5l-.392,1.959c-7.646-5.258-17.153,11.025-2.757,15.16,6.373.964,10.442-1.085,13.111-4.6s3.84-8.7,3.508-13.876S86.9,18.866,84.017,15.607A10.671,10.671,0,0,0,72.236,12.2a1.945,1.945,0,0,1-2.278-1.632,10.825,10.825,0,0,0-4.458-7.7A15.8,15.8,0,0,0,56.8.014Z" transform="translate(2.858 1.89)" fill="#04192e"/></g><g transform="translate(1509.949 827.944) rotate(15.009)"><path d="M0,28.1c4.787,5.963,11.2,7.327,14.277,4.646s5.387-9.509,13.011-6.763C23.652,16.18,33.951,4.5,44.24,9.713,46.794-3.468,72.482-3.818,74.483,12.271c22.83-6.463,28.008,43.268.517,39.111-.232,13.026-22.662,17.594-25.458,5.187-4.4,10.165-22.568,11.3-24.654-2.547C12.75,59.457,1.718,43.8,0,28.1Z" fill="#fff"/><path d="M56.807.014a16.7,16.7,0,0,0-8.883,2.05,9.123,9.123,0,0,0-4.681,6.193C37.678,30.195,63.26,26.14,57.1,12.3l2.216-1.244C66.887,29.077,36.24,32.968,40.73,9.512,31.858,5.018,23.187,15.287,26.216,23.45a1.974,1.974,0,0,1-.359,1.974,1.754,1.754,0,0,1-1.865.456c-3.315-1.193-4.868-.418-6.481,1.009s-2.879,3.747-4.8,5.427c-2.1,1.834-5.119,2.142-8.119,1.273A15.492,15.492,0,0,1,0,31.3,36.073,36.073,0,0,0,7.1,45.851c4.156,4.812,8.945,6.934,14.28,4.545-1.809-11.467,14.87-16.731,16.529-2.828l-2.08.119c-1.613-10.732-14.637-6.749-11.923,4.2.739,2.983,1.71,5.04,3.412,6.425a10.5,10.5,0,0,0,6.3,2.213c4.711.153,9.695-2.427,11.534-6.671a1.781,1.781,0,0,1,1.815-1.064,1.953,1.953,0,0,1,1.586,1.494,6.589,6.589,0,0,0,4.03,4.9,12.8,12.8,0,0,0,7.528.558,15.074,15.074,0,0,0,7.244-3.625,9.317,9.317,0,0,0,3.1-6.74C55.478,42.343,65.737,24.489,75.6,30.5l-.392,1.959c-7.646-5.258-17.153,11.025-2.757,15.16,6.373.964,10.442-1.085,13.111-4.6s3.84-8.7,3.508-13.876S86.9,18.866,84.017,15.607A10.671,10.671,0,0,0,72.236,12.2a1.945,1.945,0,0,1-2.278-1.632,10.825,10.825,0,0,0-4.458-7.7A15.8,15.8,0,0,0,56.8.014Z" transform="translate(2.858 1.89)" fill="#04192e"/></g><g transform="translate(-80.21 275.981) rotate(15.009)"><path d="M0,28.1c4.787,5.963,11.2,7.327,14.277,4.646s5.387-9.509,13.011-6.763C23.652,16.18,33.951,4.5,44.24,9.713,46.794-3.468,72.482-3.818,74.483,12.271c22.83-6.463,28.008,43.268.517,39.111-.232,13.026-22.662,17.594-25.458,5.187-4.4,10.165-22.568,11.3-24.654-2.547C12.75,59.457,1.718,43.8,0,28.1Z" fill="#fff"/><path d="M56.807.014a16.7,16.7,0,0,0-8.883,2.05,9.123,9.123,0,0,0-4.681,6.193C37.678,30.195,63.26,26.14,57.1,12.3l2.216-1.244C66.887,29.077,36.24,32.968,40.73,9.512,31.858,5.018,23.187,15.287,26.216,23.45a1.974,1.974,0,0,1-.359,1.974,1.754,1.754,0,0,1-1.865.456c-3.315-1.193-4.868-.418-6.481,1.009s-2.879,3.747-4.8,5.427c-2.1,1.834-5.119,2.142-8.119,1.273A15.492,15.492,0,0,1,0,31.3,36.073,36.073,0,0,0,7.1,45.851c4.156,4.812,8.945,6.934,14.28,4.545-1.809-11.467,14.87-16.731,16.529-2.828l-2.08.119c-1.613-10.732-14.637-6.749-11.923,4.2.739,2.983,1.71,5.04,3.412,6.425a10.5,10.5,0,0,0,6.3,2.213c4.711.153,9.695-2.427,11.534-6.671a1.781,1.781,0,0,1,1.815-1.064,1.953,1.953,0,0,1,1.586,1.494,6.589,6.589,0,0,0,4.03,4.9,12.8,12.8,0,0,0,7.528.558,15.074,15.074,0,0,0,7.244-3.625,9.317,9.317,0,0,0,3.1-6.74C55.478,42.343,65.737,24.489,75.6,30.5l-.392,1.959c-7.646-5.258-17.153,11.025-2.757,15.16,6.373.964,10.442-1.085,13.111-4.6s3.84-8.7,3.508-13.876S86.9,18.866,84.017,15.607A10.671,10.671,0,0,0,72.236,12.2a1.945,1.945,0,0,1-2.278-1.632,10.825,10.825,0,0,0-4.458-7.7A15.8,15.8,0,0,0,56.8.014Z" transform="translate(2.858 1.89)" fill="#04192e"/></g><g transform="translate(-80.21 551.963) rotate(15.009)"><path d="M0,28.1c4.787,5.963,11.2,7.327,14.277,4.646s5.387-9.509,13.011-6.763C23.652,16.18,33.951,4.5,44.24,9.713,46.794-3.468,72.482-3.818,74.483,12.271c22.83-6.463,28.008,43.268.517,39.111-.232,13.026-22.662,17.594-25.458,5.187-4.4,10.165-22.568,11.3-24.654-2.547C12.75,59.457,1.718,43.8,0,28.1Z" fill="#fff"/><path d="M56.807.014a16.7,16.7,0,0,0-8.883,2.05,9.123,9.123,0,0,0-4.681,6.193C37.678,30.195,63.26,26.14,57.1,12.3l2.216-1.244C66.887,29.077,36.24,32.968,40.73,9.512,31.858,5.018,23.187,15.287,26.216,23.45a1.974,1.974,0,0,1-.359,1.974,1.754,1.754,0,0,1-1.865.456c-3.315-1.193-4.868-.418-6.481,1.009s-2.879,3.747-4.8,5.427c-2.1,1.834-5.119,2.142-8.119,1.273A15.492,15.492,0,0,1,0,31.3,36.073,36.073,0,0,0,7.1,45.851c4.156,4.812,8.945,6.934,14.28,4.545-1.809-11.467,14.87-16.731,16.529-2.828l-2.08.119c-1.613-10.732-14.637-6.749-11.923,4.2.739,2.983,1.71,5.04,3.412,6.425a10.5,10.5,0,0,0,6.3,2.213c4.711.153,9.695-2.427,11.534-6.671a1.781,1.781,0,0,1,1.815-1.064,1.953,1.953,0,0,1,1.586,1.494,6.589,6.589,0,0,0,4.03,4.9,12.8,12.8,0,0,0,7.528.558,15.074,15.074,0,0,0,7.244-3.625,9.317,9.317,0,0,0,3.1-6.74C55.478,42.343,65.737,24.489,75.6,30.5l-.392,1.959c-7.646-5.258-17.153,11.025-2.757,15.16,6.373.964,10.442-1.085,13.111-4.6s3.84-8.7,3.508-13.876S86.9,18.866,84.017,15.607A10.671,10.671,0,0,0,72.236,12.2a1.945,1.945,0,0,1-2.278-1.632,10.825,10.825,0,0,0-4.458-7.7A15.8,15.8,0,0,0,56.8.014Z" transform="translate(2.858 1.89)" fill="#04192e"/></g><g transform="translate(-80.21 827.944) rotate(15.009)"><path d="M0,28.1c4.787,5.963,11.2,7.327,14.277,4.646s5.387-9.509,13.011-6.763C23.652,16.18,33.951,4.5,44.24,9.713,46.794-3.468,72.482-3.818,74.483,12.271c22.83-6.463,28.008,43.268.517,39.111-.232,13.026-22.662,17.594-25.458,5.187-4.4,10.165-22.568,11.3-24.654-2.547C12.75,59.457,1.718,43.8,0,28.1Z" fill="#fff"/><path d="M56.807.014a16.7,16.7,0,0,0-8.883,2.05,9.123,9.123,0,0,0-4.681,6.193C37.678,30.195,63.26,26.14,57.1,12.3l2.216-1.244C66.887,29.077,36.24,32.968,40.73,9.512,31.858,5.018,23.187,15.287,26.216,23.45a1.974,1.974,0,0,1-.359,1.974,1.754,1.754,0,0,1-1.865.456c-3.315-1.193-4.868-.418-6.481,1.009s-2.879,3.747-4.8,5.427c-2.1,1.834-5.119,2.142-8.119,1.273A15.492,15.492,0,0,1,0,31.3,36.073,36.073,0,0,0,7.1,45.851c4.156,4.812,8.945,6.934,14.28,4.545-1.809-11.467,14.87-16.731,16.529-2.828l-2.08.119c-1.613-10.732-14.637-6.749-11.923,4.2.739,2.983,1.71,5.04,3.412,6.425a10.5,10.5,0,0,0,6.3,2.213c4.711.153,9.695-2.427,11.534-6.671a1.781,1.781,0,0,1,1.815-1.064,1.953,1.953,0,0,1,1.586,1.494,6.589,6.589,0,0,0,4.03,4.9,12.8,12.8,0,0,0,7.528.558,15.074,15.074,0,0,0,7.244-3.625,9.317,9.317,0,0,0,3.1-6.74C55.478,42.343,65.737,24.489,75.6,30.5l-.392,1.959c-7.646-5.258-17.153,11.025-2.757,15.16,6.373.964,10.442-1.085,13.111-4.6s3.84-8.7,3.508-13.876S86.9,18.866,84.017,15.607A10.671,10.671,0,0,0,72.236,12.2a1.945,1.945,0,0,1-2.278-1.632,10.825,10.825,0,0,0-4.458-7.7A15.8,15.8,0,0,0,56.8.014Z" transform="translate(2.858 1.89)" fill="#04192e"/></g><g transform="translate(-398.355 275.981) rotate(15.009)"><path d="M0,28.1c4.787,5.963,11.2,7.327,14.277,4.646s5.387-9.509,13.011-6.763C23.652,16.18,33.951,4.5,44.24,9.713,46.794-3.468,72.482-3.818,74.483,12.271c22.83-6.463,28.008,43.268.517,39.111-.232,13.026-22.662,17.594-25.458,5.187-4.4,10.165-22.568,11.3-24.654-2.547C12.75,59.457,1.718,43.8,0,28.1Z" fill="#fff"/><path d="M56.807.014a16.7,16.7,0,0,0-8.883,2.05,9.123,9.123,0,0,0-4.681,6.193C37.678,30.195,63.26,26.14,57.1,12.3l2.216-1.244C66.887,29.077,36.24,32.968,40.73,9.512,31.858,5.018,23.187,15.287,26.216,23.45a1.974,1.974,0,0,1-.359,1.974,1.754,1.754,0,0,1-1.865.456c-3.315-1.193-4.868-.418-6.481,1.009s-2.879,3.747-4.8,5.427c-2.1,1.834-5.119,2.142-8.119,1.273A15.492,15.492,0,0,1,0,31.3,36.073,36.073,0,0,0,7.1,45.851c4.156,4.812,8.945,6.934,14.28,4.545-1.809-11.467,14.87-16.731,16.529-2.828l-2.08.119c-1.613-10.732-14.637-6.749-11.923,4.2.739,2.983,1.71,5.04,3.412,6.425a10.5,10.5,0,0,0,6.3,2.213c4.711.153,9.695-2.427,11.534-6.671a1.781,1.781,0,0,1,1.815-1.064,1.953,1.953,0,0,1,1.586,1.494,6.589,6.589,0,0,0,4.03,4.9,12.8,12.8,0,0,0,7.528.558,15.074,15.074,0,0,0,7.244-3.625,9.317,9.317,0,0,0,3.1-6.74C55.478,42.343,65.737,24.489,75.6,30.5l-.392,1.959c-7.646-5.258-17.153,11.025-2.757,15.16,6.373.964,10.442-1.085,13.111-4.6s3.84-8.7,3.508-13.876S86.9,18.866,84.017,15.607A10.671,10.671,0,0,0,72.236,12.2a1.945,1.945,0,0,1-2.278-1.632,10.825,10.825,0,0,0-4.458-7.7A15.8,15.8,0,0,0,56.8.014Z" transform="translate(2.858 1.89)" fill="#04192e"/></g><g transform="translate(-398.355 551.963) rotate(15.009)"><path d="M0,28.1c4.787,5.963,11.2,7.327,14.277,4.646s5.387-9.509,13.011-6.763C23.652,16.18,33.951,4.5,44.24,9.713,46.794-3.468,72.482-3.818,74.483,12.271c22.83-6.463,28.008,43.268.517,39.111-.232,13.026-22.662,17.594-25.458,5.187-4.4,10.165-22.568,11.3-24.654-2.547C12.75,59.457,1.718,43.8,0,28.1Z" fill="#fff"/><path d="M56.807.014a16.7,16.7,0,0,0-8.883,2.05,9.123,9.123,0,0,0-4.681,6.193C37.678,30.195,63.26,26.14,57.1,12.3l2.216-1.244C66.887,29.077,36.24,32.968,40.73,9.512,31.858,5.018,23.187,15.287,26.216,23.45a1.974,1.974,0,0,1-.359,1.974,1.754,1.754,0,0,1-1.865.456c-3.315-1.193-4.868-.418-6.481,1.009s-2.879,3.747-4.8,5.427c-2.1,1.834-5.119,2.142-8.119,1.273A15.492,15.492,0,0,1,0,31.3,36.073,36.073,0,0,0,7.1,45.851c4.156,4.812,8.945,6.934,14.28,4.545-1.809-11.467,14.87-16.731,16.529-2.828l-2.08.119c-1.613-10.732-14.637-6.749-11.923,4.2.739,2.983,1.71,5.04,3.412,6.425a10.5,10.5,0,0,0,6.3,2.213c4.711.153,9.695-2.427,11.534-6.671a1.781,1.781,0,0,1,1.815-1.064,1.953,1.953,0,0,1,1.586,1.494,6.589,6.589,0,0,0,4.03,4.9,12.8,12.8,0,0,0,7.528.558,15.074,15.074,0,0,0,7.244-3.625,9.317,9.317,0,0,0,3.1-6.74C55.478,42.343,65.737,24.489,75.6,30.5l-.392,1.959c-7.646-5.258-17.153,11.025-2.757,15.16,6.373.964,10.442-1.085,13.111-4.6s3.84-8.7,3.508-13.876S86.9,18.866,84.017,15.607A10.671,10.671,0,0,0,72.236,12.2a1.945,1.945,0,0,1-2.278-1.632,10.825,10.825,0,0,0-4.458-7.7A15.8,15.8,0,0,0,56.8.014Z" transform="translate(2.858 1.89)" fill="#04192e"/></g><g transform="translate(-398.355 827.944) rotate(15.009)"><path d="M0,28.1c4.787,5.963,11.2,7.327,14.277,4.646s5.387-9.509,13.011-6.763C23.652,16.18,33.951,4.5,44.24,9.713,46.794-3.468,72.482-3.818,74.483,12.271c22.83-6.463,28.008,43.268.517,39.111-.232,13.026-22.662,17.594-25.458,5.187-4.4,10.165-22.568,11.3-24.654-2.547C12.75,59.457,1.718,43.8,0,28.1Z" fill="#fff"/><path d="M56.807.014a16.7,16.7,0,0,0-8.883,2.05,9.123,9.123,0,0,0-4.681,6.193C37.678,30.195,63.26,26.14,57.1,12.3l2.216-1.244C66.887,29.077,36.24,32.968,40.73,9.512,31.858,5.018,23.187,15.287,26.216,23.45a1.974,1.974,0,0,1-.359,1.974,1.754,1.754,0,0,1-1.865.456c-3.315-1.193-4.868-.418-6.481,1.009s-2.879,3.747-4.8,5.427c-2.1,1.834-5.119,2.142-8.119,1.273A15.492,15.492,0,0,1,0,31.3,36.073,36.073,0,0,0,7.1,45.851c4.156,4.812,8.945,6.934,14.28,4.545-1.809-11.467,14.87-16.731,16.529-2.828l-2.08.119c-1.613-10.732-14.637-6.749-11.923,4.2.739,2.983,1.71,5.04,3.412,6.425a10.5,10.5,0,0,0,6.3,2.213c4.711.153,9.695-2.427,11.534-6.671a1.781,1.781,0,0,1,1.815-1.064,1.953,1.953,0,0,1,1.586,1.494,6.589,6.589,0,0,0,4.03,4.9,12.8,12.8,0,0,0,7.528.558,15.074,15.074,0,0,0,7.244-3.625,9.317,9.317,0,0,0,3.1-6.74C55.478,42.343,65.737,24.489,75.6,30.5l-.392,1.959c-7.646-5.258-17.153,11.025-2.757,15.16,6.373.964,10.442-1.085,13.111-4.6s3.84-8.7,3.508-13.876S86.9,18.866,84.017,15.607A10.671,10.671,0,0,0,72.236,12.2a1.945,1.945,0,0,1-2.278-1.632,10.825,10.825,0,0,0-4.458-7.7A15.8,15.8,0,0,0,56.8.014Z" transform="translate(2.858 1.89)" fill="#04192e"/></g><g transform="translate(397.007 137.991) rotate(15.009)"><path d="M0,28.1c4.787,5.963,11.2,7.327,14.277,4.646s5.387-9.509,13.011-6.763C23.652,16.18,33.951,4.5,44.24,9.713,46.794-3.468,72.482-3.818,74.483,12.271c22.83-6.463,28.008,43.268.517,39.111-.232,13.026-22.662,17.594-25.458,5.187-4.4,10.165-22.568,11.3-24.654-2.547C12.75,59.457,1.718,43.8,0,28.1Z" fill="#fff"/><path d="M56.807.014a16.7,16.7,0,0,0-8.883,2.05,9.123,9.123,0,0,0-4.681,6.193C37.678,30.195,63.26,26.14,57.1,12.3l2.216-1.244C66.887,29.077,36.24,32.968,40.73,9.512,31.858,5.018,23.187,15.287,26.216,23.45a1.974,1.974,0,0,1-.359,1.974,1.754,1.754,0,0,1-1.865.456c-3.315-1.193-4.868-.418-6.481,1.009s-2.879,3.747-4.8,5.427c-2.1,1.834-5.119,2.142-8.119,1.273A15.492,15.492,0,0,1,0,31.3,36.073,36.073,0,0,0,7.1,45.851c4.156,4.812,8.945,6.934,14.28,4.545-1.809-11.467,14.87-16.731,16.529-2.828l-2.08.119c-1.613-10.732-14.637-6.749-11.923,4.2.739,2.983,1.71,5.04,3.412,6.425a10.5,10.5,0,0,0,6.3,2.213c4.711.153,9.695-2.427,11.534-6.671a1.781,1.781,0,0,1,1.815-1.064,1.953,1.953,0,0,1,1.586,1.494,6.589,6.589,0,0,0,4.03,4.9,12.8,12.8,0,0,0,7.528.558,15.074,15.074,0,0,0,7.244-3.625,9.317,9.317,0,0,0,3.1-6.74C55.478,42.343,65.737,24.489,75.6,30.5l-.392,1.959c-7.646-5.258-17.153,11.025-2.757,15.16,6.373.964,10.442-1.085,13.111-4.6s3.84-8.7,3.508-13.876S86.9,18.866,84.017,15.607A10.671,10.671,0,0,0,72.236,12.2a1.945,1.945,0,0,1-2.278-1.632,10.825,10.825,0,0,0-4.458-7.7A15.8,15.8,0,0,0,56.8.014Z" transform="translate(2.858 1.89)" fill="#04192e"/></g><g transform="translate(714.94 137.991) rotate(15.009)"><path d="M0,28.1c4.787,5.963,11.2,7.327,14.277,4.646s5.387-9.509,13.011-6.763C23.652,16.18,33.951,4.5,44.24,9.713,46.794-3.468,72.482-3.818,74.483,12.271c22.83-6.463,28.008,43.268.517,39.111-.232,13.026-22.662,17.594-25.458,5.187-4.4,10.165-22.568,11.3-24.654-2.547C12.75,59.457,1.718,43.8,0,28.1Z" fill="#fff"/><path d="M56.807.014a16.7,16.7,0,0,0-8.883,2.05,9.123,9.123,0,0,0-4.681,6.193C37.678,30.195,63.26,26.14,57.1,12.3l2.216-1.244C66.887,29.077,36.24,32.968,40.73,9.512,31.858,5.018,23.187,15.287,26.216,23.45a1.974,1.974,0,0,1-.359,1.974,1.754,1.754,0,0,1-1.865.456c-3.315-1.193-4.868-.418-6.481,1.009s-2.879,3.747-4.8,5.427c-2.1,1.834-5.119,2.142-8.119,1.273A15.492,15.492,0,0,1,0,31.3,36.073,36.073,0,0,0,7.1,45.851c4.156,4.812,8.945,6.934,14.28,4.545-1.809-11.467,14.87-16.731,16.529-2.828l-2.08.119c-1.613-10.732-14.637-6.749-11.923,4.2.739,2.983,1.71,5.04,3.412,6.425a10.5,10.5,0,0,0,6.3,2.213c4.711.153,9.695-2.427,11.534-6.671a1.781,1.781,0,0,1,1.815-1.064,1.953,1.953,0,0,1,1.586,1.494,6.589,6.589,0,0,0,4.03,4.9,12.8,12.8,0,0,0,7.528.558,15.074,15.074,0,0,0,7.244-3.625,9.317,9.317,0,0,0,3.1-6.74C55.478,42.343,65.737,24.489,75.6,30.5l-.392,1.959c-7.646-5.258-17.153,11.025-2.757,15.16,6.373.964,10.442-1.085,13.111-4.6s3.84-8.7,3.508-13.876S86.9,18.866,84.017,15.607A10.671,10.671,0,0,0,72.236,12.2a1.945,1.945,0,0,1-2.278-1.632,10.825,10.825,0,0,0-4.458-7.7A15.8,15.8,0,0,0,56.8.014Z" transform="translate(2.858 1.89)" fill="#04192e"/></g><g transform="translate(1351.089 137.991) rotate(15.009)"><path d="M0,28.1c4.787,5.963,11.2,7.327,14.277,4.646s5.387-9.509,13.011-6.763C23.652,16.18,33.951,4.5,44.24,9.713,46.794-3.468,72.482-3.818,74.483,12.271c22.83-6.463,28.008,43.268.517,39.111-.232,13.026-22.662,17.594-25.458,5.187-4.4,10.165-22.568,11.3-24.654-2.547C12.75,59.457,1.718,43.8,0,28.1Z" fill="#fff"/><path d="M56.807.014a16.7,16.7,0,0,0-8.883,2.05,9.123,9.123,0,0,0-4.681,6.193C37.678,30.195,63.26,26.14,57.1,12.3l2.216-1.244C66.887,29.077,36.24,32.968,40.73,9.512,31.858,5.018,23.187,15.287,26.216,23.45a1.974,1.974,0,0,1-.359,1.974,1.754,1.754,0,0,1-1.865.456c-3.315-1.193-4.868-.418-6.481,1.009s-2.879,3.747-4.8,5.427c-2.1,1.834-5.119,2.142-8.119,1.273A15.492,15.492,0,0,1,0,31.3,36.073,36.073,0,0,0,7.1,45.851c4.156,4.812,8.945,6.934,14.28,4.545-1.809-11.467,14.87-16.731,16.529-2.828l-2.08.119c-1.613-10.732-14.637-6.749-11.923,4.2.739,2.983,1.71,5.04,3.412,6.425a10.5,10.5,0,0,0,6.3,2.213c4.711.153,9.695-2.427,11.534-6.671a1.781,1.781,0,0,1,1.815-1.064,1.953,1.953,0,0,1,1.586,1.494,6.589,6.589,0,0,0,4.03,4.9,12.8,12.8,0,0,0,7.528.558,15.074,15.074,0,0,0,7.244-3.625,9.317,9.317,0,0,0,3.1-6.74C55.478,42.343,65.737,24.489,75.6,30.5l-.392,1.959c-7.646-5.258-17.153,11.025-2.757,15.16,6.373.964,10.442-1.085,13.111-4.6s3.84-8.7,3.508-13.876S86.9,18.866,84.017,15.607A10.671,10.671,0,0,0,72.236,12.2a1.945,1.945,0,0,1-2.278-1.632,10.825,10.825,0,0,0-4.458-7.7A15.8,15.8,0,0,0,56.8.014Z" transform="translate(2.858 1.89)" fill="#04192e"/></g><g transform="translate(1669.089 137.991) rotate(15.009)"><path d="M0,28.1c4.787,5.963,11.2,7.327,14.277,4.646s5.387-9.509,13.011-6.763C23.652,16.18,33.951,4.5,44.24,9.713,46.794-3.468,72.482-3.818,74.483,12.271c22.83-6.463,28.008,43.268.517,39.111-.232,13.026-22.662,17.594-25.458,5.187-4.4,10.165-22.568,11.3-24.654-2.547C12.75,59.457,1.718,43.8,0,28.1Z" fill="#fff"/><path d="M56.807.014a16.7,16.7,0,0,0-8.883,2.05,9.123,9.123,0,0,0-4.681,6.193C37.678,30.195,63.26,26.14,57.1,12.3l2.216-1.244C66.887,29.077,36.24,32.968,40.73,9.512,31.858,5.018,23.187,15.287,26.216,23.45a1.974,1.974,0,0,1-.359,1.974,1.754,1.754,0,0,1-1.865.456c-3.315-1.193-4.868-.418-6.481,1.009s-2.879,3.747-4.8,5.427c-2.1,1.834-5.119,2.142-8.119,1.273A15.492,15.492,0,0,1,0,31.3,36.073,36.073,0,0,0,7.1,45.851c4.156,4.812,8.945,6.934,14.28,4.545-1.809-11.467,14.87-16.731,16.529-2.828l-2.08.119c-1.613-10.732-14.637-6.749-11.923,4.2.739,2.983,1.71,5.04,3.412,6.425a10.5,10.5,0,0,0,6.3,2.213c4.711.153,9.695-2.427,11.534-6.671a1.781,1.781,0,0,1,1.815-1.064,1.953,1.953,0,0,1,1.586,1.494,6.589,6.589,0,0,0,4.03,4.9,12.8,12.8,0,0,0,7.528.558,15.074,15.074,0,0,0,7.244-3.625,9.317,9.317,0,0,0,3.1-6.74C55.478,42.343,65.737,24.489,75.6,30.5l-.392,1.959c-7.646-5.258-17.153,11.025-2.757,15.16,6.373.964,10.442-1.085,13.111-4.6s3.84-8.7,3.508-13.876S86.9,18.866,84.017,15.607A10.671,10.671,0,0,0,72.236,12.2a1.945,1.945,0,0,1-2.278-1.632,10.825,10.825,0,0,0-4.458-7.7A15.8,15.8,0,0,0,56.8.014Z" transform="translate(2.858 1.89)" fill="#04192e"/></g><g transform="translate(1032.872 137.991) rotate(15.009)"><path d="M0,28.1c4.787,5.963,11.2,7.327,14.277,4.646s5.387-9.509,13.011-6.763C23.652,16.18,33.951,4.5,44.24,9.713,46.794-3.468,72.482-3.818,74.483,12.271c22.83-6.463,28.008,43.268.517,39.111-.232,13.026-22.662,17.594-25.458,5.187-4.4,10.165-22.568,11.3-24.654-2.547C12.75,59.457,1.718,43.8,0,28.1Z" fill="#fff"/><path d="M56.807.014a16.7,16.7,0,0,0-8.883,2.05,9.123,9.123,0,0,0-4.681,6.193C37.678,30.195,63.26,26.14,57.1,12.3l2.216-1.244C66.887,29.077,36.24,32.968,40.73,9.512,31.858,5.018,23.187,15.287,26.216,23.45a1.974,1.974,0,0,1-.359,1.974,1.754,1.754,0,0,1-1.865.456c-3.315-1.193-4.868-.418-6.481,1.009s-2.879,3.747-4.8,5.427c-2.1,1.834-5.119,2.142-8.119,1.273A15.492,15.492,0,0,1,0,31.3,36.073,36.073,0,0,0,7.1,45.851c4.156,4.812,8.945,6.934,14.28,4.545-1.809-11.467,14.87-16.731,16.529-2.828l-2.08.119c-1.613-10.732-14.637-6.749-11.923,4.2.739,2.983,1.71,5.04,3.412,6.425a10.5,10.5,0,0,0,6.3,2.213c4.711.153,9.695-2.427,11.534-6.671a1.781,1.781,0,0,1,1.815-1.064,1.953,1.953,0,0,1,1.586,1.494,6.589,6.589,0,0,0,4.03,4.9,12.8,12.8,0,0,0,7.528.558,15.074,15.074,0,0,0,7.244-3.625,9.317,9.317,0,0,0,3.1-6.74C55.478,42.343,65.737,24.489,75.6,30.5l-.392,1.959c-7.646-5.258-17.153,11.025-2.757,15.16,6.373.964,10.442-1.085,13.111-4.6s3.84-8.7,3.508-13.876S86.9,18.866,84.017,15.607A10.671,10.671,0,0,0,72.236,12.2a1.945,1.945,0,0,1-2.278-1.632,10.825,10.825,0,0,0-4.458-7.7A15.8,15.8,0,0,0,56.8.014Z" transform="translate(2.858 1.89)" fill="#04192e"/></g><g transform="translate(397.007 413.972) rotate(15.009)"><path d="M0,28.1c4.787,5.963,11.2,7.327,14.277,4.646s5.387-9.509,13.011-6.763C23.652,16.18,33.951,4.5,44.24,9.713,46.794-3.468,72.482-3.818,74.483,12.271c22.83-6.463,28.008,43.268.517,39.111-.232,13.026-22.662,17.594-25.458,5.187-4.4,10.165-22.568,11.3-24.654-2.547C12.75,59.457,1.718,43.8,0,28.1Z" fill="#fff"/><path d="M56.807.014a16.7,16.7,0,0,0-8.883,2.05,9.123,9.123,0,0,0-4.681,6.193C37.678,30.195,63.26,26.14,57.1,12.3l2.216-1.244C66.887,29.077,36.24,32.968,40.73,9.512,31.858,5.018,23.187,15.287,26.216,23.45a1.974,1.974,0,0,1-.359,1.974,1.754,1.754,0,0,1-1.865.456c-3.315-1.193-4.868-.418-6.481,1.009s-2.879,3.747-4.8,5.427c-2.1,1.834-5.119,2.142-8.119,1.273A15.492,15.492,0,0,1,0,31.3,36.073,36.073,0,0,0,7.1,45.851c4.156,4.812,8.945,6.934,14.28,4.545-1.809-11.467,14.87-16.731,16.529-2.828l-2.08.119c-1.613-10.732-14.637-6.749-11.923,4.2.739,2.983,1.71,5.04,3.412,6.425a10.5,10.5,0,0,0,6.3,2.213c4.711.153,9.695-2.427,11.534-6.671a1.781,1.781,0,0,1,1.815-1.064,1.953,1.953,0,0,1,1.586,1.494,6.589,6.589,0,0,0,4.03,4.9,12.8,12.8,0,0,0,7.528.558,15.074,15.074,0,0,0,7.244-3.625,9.317,9.317,0,0,0,3.1-6.74C55.478,42.343,65.737,24.489,75.6,30.5l-.392,1.959c-7.646-5.258-17.153,11.025-2.757,15.16,6.373.964,10.442-1.085,13.111-4.6s3.84-8.7,3.508-13.876S86.9,18.866,84.017,15.607A10.671,10.671,0,0,0,72.236,12.2a1.945,1.945,0,0,1-2.278-1.632,10.825,10.825,0,0,0-4.458-7.7A15.8,15.8,0,0,0,56.8.014Z" transform="translate(2.858 1.89)" fill="#04192e"/></g><g transform="translate(714.94 413.972) rotate(15.009)"><path d="M0,28.1c4.787,5.963,11.2,7.327,14.277,4.646s5.387-9.509,13.011-6.763C23.652,16.18,33.951,4.5,44.24,9.713,46.794-3.468,72.482-3.818,74.483,12.271c22.83-6.463,28.008,43.268.517,39.111-.232,13.026-22.662,17.594-25.458,5.187-4.4,10.165-22.568,11.3-24.654-2.547C12.75,59.457,1.718,43.8,0,28.1Z" fill="#fff"/><path d="M56.807.014a16.7,16.7,0,0,0-8.883,2.05,9.123,9.123,0,0,0-4.681,6.193C37.678,30.195,63.26,26.14,57.1,12.3l2.216-1.244C66.887,29.077,36.24,32.968,40.73,9.512,31.858,5.018,23.187,15.287,26.216,23.45a1.974,1.974,0,0,1-.359,1.974,1.754,1.754,0,0,1-1.865.456c-3.315-1.193-4.868-.418-6.481,1.009s-2.879,3.747-4.8,5.427c-2.1,1.834-5.119,2.142-8.119,1.273A15.492,15.492,0,0,1,0,31.3,36.073,36.073,0,0,0,7.1,45.851c4.156,4.812,8.945,6.934,14.28,4.545-1.809-11.467,14.87-16.731,16.529-2.828l-2.08.119c-1.613-10.732-14.637-6.749-11.923,4.2.739,2.983,1.71,5.04,3.412,6.425a10.5,10.5,0,0,0,6.3,2.213c4.711.153,9.695-2.427,11.534-6.671a1.781,1.781,0,0,1,1.815-1.064,1.953,1.953,0,0,1,1.586,1.494,6.589,6.589,0,0,0,4.03,4.9,12.8,12.8,0,0,0,7.528.558,15.074,15.074,0,0,0,7.244-3.625,9.317,9.317,0,0,0,3.1-6.74C55.478,42.343,65.737,24.489,75.6,30.5l-.392,1.959c-7.646-5.258-17.153,11.025-2.757,15.16,6.373.964,10.442-1.085,13.111-4.6s3.84-8.7,3.508-13.876S86.9,18.866,84.017,15.607A10.671,10.671,0,0,0,72.236,12.2a1.945,1.945,0,0,1-2.278-1.632,10.825,10.825,0,0,0-4.458-7.7A15.8,15.8,0,0,0,56.8.014Z" transform="translate(2.858 1.89)" fill="#04192e"/></g><g transform="translate(1351.089 413.972) rotate(15.009)"><path d="M0,28.1c4.787,5.963,11.2,7.327,14.277,4.646s5.387-9.509,13.011-6.763C23.652,16.18,33.951,4.5,44.24,9.713,46.794-3.468,72.482-3.818,74.483,12.271c22.83-6.463,28.008,43.268.517,39.111-.232,13.026-22.662,17.594-25.458,5.187-4.4,10.165-22.568,11.3-24.654-2.547C12.75,59.457,1.718,43.8,0,28.1Z" fill="#fff"/><path d="M56.807.014a16.7,16.7,0,0,0-8.883,2.05,9.123,9.123,0,0,0-4.681,6.193C37.678,30.195,63.26,26.14,57.1,12.3l2.216-1.244C66.887,29.077,36.24,32.968,40.73,9.512,31.858,5.018,23.187,15.287,26.216,23.45a1.974,1.974,0,0,1-.359,1.974,1.754,1.754,0,0,1-1.865.456c-3.315-1.193-4.868-.418-6.481,1.009s-2.879,3.747-4.8,5.427c-2.1,1.834-5.119,2.142-8.119,1.273A15.492,15.492,0,0,1,0,31.3,36.073,36.073,0,0,0,7.1,45.851c4.156,4.812,8.945,6.934,14.28,4.545-1.809-11.467,14.87-16.731,16.529-2.828l-2.08.119c-1.613-10.732-14.637-6.749-11.923,4.2.739,2.983,1.71,5.04,3.412,6.425a10.5,10.5,0,0,0,6.3,2.213c4.711.153,9.695-2.427,11.534-6.671a1.781,1.781,0,0,1,1.815-1.064,1.953,1.953,0,0,1,1.586,1.494,6.589,6.589,0,0,0,4.03,4.9,12.8,12.8,0,0,0,7.528.558,15.074,15.074,0,0,0,7.244-3.625,9.317,9.317,0,0,0,3.1-6.74C55.478,42.343,65.737,24.489,75.6,30.5l-.392,1.959c-7.646-5.258-17.153,11.025-2.757,15.16,6.373.964,10.442-1.085,13.111-4.6s3.84-8.7,3.508-13.876S86.9,18.866,84.017,15.607A10.671,10.671,0,0,0,72.236,12.2a1.945,1.945,0,0,1-2.278-1.632,10.825,10.825,0,0,0-4.458-7.7A15.8,15.8,0,0,0,56.8.014Z" transform="translate(2.858 1.89)" fill="#04192e"/></g><g transform="translate(1669.089 413.972) rotate(15.009)"><path d="M0,28.1c4.787,5.963,11.2,7.327,14.277,4.646s5.387-9.509,13.011-6.763C23.652,16.18,33.951,4.5,44.24,9.713,46.794-3.468,72.482-3.818,74.483,12.271c22.83-6.463,28.008,43.268.517,39.111-.232,13.026-22.662,17.594-25.458,5.187-4.4,10.165-22.568,11.3-24.654-2.547C12.75,59.457,1.718,43.8,0,28.1Z" fill="#fff"/><path d="M56.807.014a16.7,16.7,0,0,0-8.883,2.05,9.123,9.123,0,0,0-4.681,6.193C37.678,30.195,63.26,26.14,57.1,12.3l2.216-1.244C66.887,29.077,36.24,32.968,40.73,9.512,31.858,5.018,23.187,15.287,26.216,23.45a1.974,1.974,0,0,1-.359,1.974,1.754,1.754,0,0,1-1.865.456c-3.315-1.193-4.868-.418-6.481,1.009s-2.879,3.747-4.8,5.427c-2.1,1.834-5.119,2.142-8.119,1.273A15.492,15.492,0,0,1,0,31.3,36.073,36.073,0,0,0,7.1,45.851c4.156,4.812,8.945,6.934,14.28,4.545-1.809-11.467,14.87-16.731,16.529-2.828l-2.08.119c-1.613-10.732-14.637-6.749-11.923,4.2.739,2.983,1.71,5.04,3.412,6.425a10.5,10.5,0,0,0,6.3,2.213c4.711.153,9.695-2.427,11.534-6.671a1.781,1.781,0,0,1,1.815-1.064,1.953,1.953,0,0,1,1.586,1.494,6.589,6.589,0,0,0,4.03,4.9,12.8,12.8,0,0,0,7.528.558,15.074,15.074,0,0,0,7.244-3.625,9.317,9.317,0,0,0,3.1-6.74C55.478,42.343,65.737,24.489,75.6,30.5l-.392,1.959c-7.646-5.258-17.153,11.025-2.757,15.16,6.373.964,10.442-1.085,13.111-4.6s3.84-8.7,3.508-13.876S86.9,18.866,84.017,15.607A10.671,10.671,0,0,0,72.236,12.2a1.945,1.945,0,0,1-2.278-1.632,10.825,10.825,0,0,0-4.458-7.7A15.8,15.8,0,0,0,56.8.014Z" transform="translate(2.858 1.89)" fill="#04192e"/></g><g transform="translate(1032.872 413.972) rotate(15.009)"><path d="M0,28.1c4.787,5.963,11.2,7.327,14.277,4.646s5.387-9.509,13.011-6.763C23.652,16.18,33.951,4.5,44.24,9.713,46.794-3.468,72.482-3.818,74.483,12.271c22.83-6.463,28.008,43.268.517,39.111-.232,13.026-22.662,17.594-25.458,5.187-4.4,10.165-22.568,11.3-24.654-2.547C12.75,59.457,1.718,43.8,0,28.1Z" fill="#fff"/><path d="M56.807.014a16.7,16.7,0,0,0-8.883,2.05,9.123,9.123,0,0,0-4.681,6.193C37.678,30.195,63.26,26.14,57.1,12.3l2.216-1.244C66.887,29.077,36.24,32.968,40.73,9.512,31.858,5.018,23.187,15.287,26.216,23.45a1.974,1.974,0,0,1-.359,1.974,1.754,1.754,0,0,1-1.865.456c-3.315-1.193-4.868-.418-6.481,1.009s-2.879,3.747-4.8,5.427c-2.1,1.834-5.119,2.142-8.119,1.273A15.492,15.492,0,0,1,0,31.3,36.073,36.073,0,0,0,7.1,45.851c4.156,4.812,8.945,6.934,14.28,4.545-1.809-11.467,14.87-16.731,16.529-2.828l-2.08.119c-1.613-10.732-14.637-6.749-11.923,4.2.739,2.983,1.71,5.04,3.412,6.425a10.5,10.5,0,0,0,6.3,2.213c4.711.153,9.695-2.427,11.534-6.671a1.781,1.781,0,0,1,1.815-1.064,1.953,1.953,0,0,1,1.586,1.494,6.589,6.589,0,0,0,4.03,4.9,12.8,12.8,0,0,0,7.528.558,15.074,15.074,0,0,0,7.244-3.625,9.317,9.317,0,0,0,3.1-6.74C55.478,42.343,65.737,24.489,75.6,30.5l-.392,1.959c-7.646-5.258-17.153,11.025-2.757,15.16,6.373.964,10.442-1.085,13.111-4.6s3.84-8.7,3.508-13.876S86.9,18.866,84.017,15.607A10.671,10.671,0,0,0,72.236,12.2a1.945,1.945,0,0,1-2.278-1.632,10.825,10.825,0,0,0-4.458-7.7A15.8,15.8,0,0,0,56.8.014Z" transform="translate(2.858 1.89)" fill="#04192e"/></g><g transform="translate(397.007 689.953) rotate(15.009)"><path d="M0,28.1c4.787,5.963,11.2,7.327,14.277,4.646s5.387-9.509,13.011-6.763C23.652,16.18,33.951,4.5,44.24,9.713,46.794-3.468,72.482-3.818,74.483,12.271c22.83-6.463,28.008,43.268.517,39.111-.232,13.026-22.662,17.594-25.458,5.187-4.4,10.165-22.568,11.3-24.654-2.547C12.75,59.457,1.718,43.8,0,28.1Z" fill="#fff"/><path d="M56.807.014a16.7,16.7,0,0,0-8.883,2.05,9.123,9.123,0,0,0-4.681,6.193C37.678,30.195,63.26,26.14,57.1,12.3l2.216-1.244C66.887,29.077,36.24,32.968,40.73,9.512,31.858,5.018,23.187,15.287,26.216,23.45a1.974,1.974,0,0,1-.359,1.974,1.754,1.754,0,0,1-1.865.456c-3.315-1.193-4.868-.418-6.481,1.009s-2.879,3.747-4.8,5.427c-2.1,1.834-5.119,2.142-8.119,1.273A15.492,15.492,0,0,1,0,31.3,36.073,36.073,0,0,0,7.1,45.851c4.156,4.812,8.945,6.934,14.28,4.545-1.809-11.467,14.87-16.731,16.529-2.828l-2.08.119c-1.613-10.732-14.637-6.749-11.923,4.2.739,2.983,1.71,5.04,3.412,6.425a10.5,10.5,0,0,0,6.3,2.213c4.711.153,9.695-2.427,11.534-6.671a1.781,1.781,0,0,1,1.815-1.064,1.953,1.953,0,0,1,1.586,1.494,6.589,6.589,0,0,0,4.03,4.9,12.8,12.8,0,0,0,7.528.558,15.074,15.074,0,0,0,7.244-3.625,9.317,9.317,0,0,0,3.1-6.74C55.478,42.343,65.737,24.489,75.6,30.5l-.392,1.959c-7.646-5.258-17.153,11.025-2.757,15.16,6.373.964,10.442-1.085,13.111-4.6s3.84-8.7,3.508-13.876S86.9,18.866,84.017,15.607A10.671,10.671,0,0,0,72.236,12.2a1.945,1.945,0,0,1-2.278-1.632,10.825,10.825,0,0,0-4.458-7.7A15.8,15.8,0,0,0,56.8.014Z" transform="translate(2.858 1.89)" fill="#04192e"/></g><g transform="translate(714.94 689.953) rotate(15.009)"><path d="M0,28.1c4.787,5.963,11.2,7.327,14.277,4.646s5.387-9.509,13.011-6.763C23.652,16.18,33.951,4.5,44.24,9.713,46.794-3.468,72.482-3.818,74.483,12.271c22.83-6.463,28.008,43.268.517,39.111-.232,13.026-22.662,17.594-25.458,5.187-4.4,10.165-22.568,11.3-24.654-2.547C12.75,59.457,1.718,43.8,0,28.1Z" fill="#fff"/><path d="M56.807.014a16.7,16.7,0,0,0-8.883,2.05,9.123,9.123,0,0,0-4.681,6.193C37.678,30.195,63.26,26.14,57.1,12.3l2.216-1.244C66.887,29.077,36.24,32.968,40.73,9.512,31.858,5.018,23.187,15.287,26.216,23.45a1.974,1.974,0,0,1-.359,1.974,1.754,1.754,0,0,1-1.865.456c-3.315-1.193-4.868-.418-6.481,1.009s-2.879,3.747-4.8,5.427c-2.1,1.834-5.119,2.142-8.119,1.273A15.492,15.492,0,0,1,0,31.3,36.073,36.073,0,0,0,7.1,45.851c4.156,4.812,8.945,6.934,14.28,4.545-1.809-11.467,14.87-16.731,16.529-2.828l-2.08.119c-1.613-10.732-14.637-6.749-11.923,4.2.739,2.983,1.71,5.04,3.412,6.425a10.5,10.5,0,0,0,6.3,2.213c4.711.153,9.695-2.427,11.534-6.671a1.781,1.781,0,0,1,1.815-1.064,1.953,1.953,0,0,1,1.586,1.494,6.589,6.589,0,0,0,4.03,4.9,12.8,12.8,0,0,0,7.528.558,15.074,15.074,0,0,0,7.244-3.625,9.317,9.317,0,0,0,3.1-6.74C55.478,42.343,65.737,24.489,75.6,30.5l-.392,1.959c-7.646-5.258-17.153,11.025-2.757,15.16,6.373.964,10.442-1.085,13.111-4.6s3.84-8.7,3.508-13.876S86.9,18.866,84.017,15.607A10.671,10.671,0,0,0,72.236,12.2a1.945,1.945,0,0,1-2.278-1.632,10.825,10.825,0,0,0-4.458-7.7A15.8,15.8,0,0,0,56.8.014Z" transform="translate(2.858 1.89)" fill="#04192e"/></g><g transform="translate(1351.089 689.953) rotate(15.009)"><path d="M0,28.1c4.787,5.963,11.2,7.327,14.277,4.646s5.387-9.509,13.011-6.763C23.652,16.18,33.951,4.5,44.24,9.713,46.794-3.468,72.482-3.818,74.483,12.271c22.83-6.463,28.008,43.268.517,39.111-.232,13.026-22.662,17.594-25.458,5.187-4.4,10.165-22.568,11.3-24.654-2.547C12.75,59.457,1.718,43.8,0,28.1Z" fill="#fff"/><path d="M56.807.014a16.7,16.7,0,0,0-8.883,2.05,9.123,9.123,0,0,0-4.681,6.193C37.678,30.195,63.26,26.14,57.1,12.3l2.216-1.244C66.887,29.077,36.24,32.968,40.73,9.512,31.858,5.018,23.187,15.287,26.216,23.45a1.974,1.974,0,0,1-.359,1.974,1.754,1.754,0,0,1-1.865.456c-3.315-1.193-4.868-.418-6.481,1.009s-2.879,3.747-4.8,5.427c-2.1,1.834-5.119,2.142-8.119,1.273A15.492,15.492,0,0,1,0,31.3,36.073,36.073,0,0,0,7.1,45.851c4.156,4.812,8.945,6.934,14.28,4.545-1.809-11.467,14.87-16.731,16.529-2.828l-2.08.119c-1.613-10.732-14.637-6.749-11.923,4.2.739,2.983,1.71,5.04,3.412,6.425a10.5,10.5,0,0,0,6.3,2.213c4.711.153,9.695-2.427,11.534-6.671a1.781,1.781,0,0,1,1.815-1.064,1.953,1.953,0,0,1,1.586,1.494,6.589,6.589,0,0,0,4.03,4.9,12.8,12.8,0,0,0,7.528.558,15.074,15.074,0,0,0,7.244-3.625,9.317,9.317,0,0,0,3.1-6.74C55.478,42.343,65.737,24.489,75.6,30.5l-.392,1.959c-7.646-5.258-17.153,11.025-2.757,15.16,6.373.964,10.442-1.085,13.111-4.6s3.84-8.7,3.508-13.876S86.9,18.866,84.017,15.607A10.671,10.671,0,0,0,72.236,12.2a1.945,1.945,0,0,1-2.278-1.632,10.825,10.825,0,0,0-4.458-7.7A15.8,15.8,0,0,0,56.8.014Z" transform="translate(2.858 1.89)" fill="#04192e"/></g><g transform="translate(1669.089 689.953) rotate(15.009)"><path d="M0,28.1c4.787,5.963,11.2,7.327,14.277,4.646s5.387-9.509,13.011-6.763C23.652,16.18,33.951,4.5,44.24,9.713,46.794-3.468,72.482-3.818,74.483,12.271c22.83-6.463,28.008,43.268.517,39.111-.232,13.026-22.662,17.594-25.458,5.187-4.4,10.165-22.568,11.3-24.654-2.547C12.75,59.457,1.718,43.8,0,28.1Z" fill="#fff"/><path d="M56.807.014a16.7,16.7,0,0,0-8.883,2.05,9.123,9.123,0,0,0-4.681,6.193C37.678,30.195,63.26,26.14,57.1,12.3l2.216-1.244C66.887,29.077,36.24,32.968,40.73,9.512,31.858,5.018,23.187,15.287,26.216,23.45a1.974,1.974,0,0,1-.359,1.974,1.754,1.754,0,0,1-1.865.456c-3.315-1.193-4.868-.418-6.481,1.009s-2.879,3.747-4.8,5.427c-2.1,1.834-5.119,2.142-8.119,1.273A15.492,15.492,0,0,1,0,31.3,36.073,36.073,0,0,0,7.1,45.851c4.156,4.812,8.945,6.934,14.28,4.545-1.809-11.467,14.87-16.731,16.529-2.828l-2.08.119c-1.613-10.732-14.637-6.749-11.923,4.2.739,2.983,1.71,5.04,3.412,6.425a10.5,10.5,0,0,0,6.3,2.213c4.711.153,9.695-2.427,11.534-6.671a1.781,1.781,0,0,1,1.815-1.064,1.953,1.953,0,0,1,1.586,1.494,6.589,6.589,0,0,0,4.03,4.9,12.8,12.8,0,0,0,7.528.558,15.074,15.074,0,0,0,7.244-3.625,9.317,9.317,0,0,0,3.1-6.74C55.478,42.343,65.737,24.489,75.6,30.5l-.392,1.959c-7.646-5.258-17.153,11.025-2.757,15.16,6.373.964,10.442-1.085,13.111-4.6s3.84-8.7,3.508-13.876S86.9,18.866,84.017,15.607A10.671,10.671,0,0,0,72.236,12.2a1.945,1.945,0,0,1-2.278-1.632,10.825,10.825,0,0,0-4.458-7.7A15.8,15.8,0,0,0,56.8.014Z" transform="translate(2.858 1.89)" fill="#04192e"/></g><g transform="translate(1032.872 689.953) rotate(15.009)"><path d="M0,28.1c4.787,5.963,11.2,7.327,14.277,4.646s5.387-9.509,13.011-6.763C23.652,16.18,33.951,4.5,44.24,9.713,46.794-3.468,72.482-3.818,74.483,12.271c22.83-6.463,28.008,43.268.517,39.111-.232,13.026-22.662,17.594-25.458,5.187-4.4,10.165-22.568,11.3-24.654-2.547C12.75,59.457,1.718,43.8,0,28.1Z" fill="#fff"/><path d="M56.807.014a16.7,16.7,0,0,0-8.883,2.05,9.123,9.123,0,0,0-4.681,6.193C37.678,30.195,63.26,26.14,57.1,12.3l2.216-1.244C66.887,29.077,36.24,32.968,40.73,9.512,31.858,5.018,23.187,15.287,26.216,23.45a1.974,1.974,0,0,1-.359,1.974,1.754,1.754,0,0,1-1.865.456c-3.315-1.193-4.868-.418-6.481,1.009s-2.879,3.747-4.8,5.427c-2.1,1.834-5.119,2.142-8.119,1.273A15.492,15.492,0,0,1,0,31.3,36.073,36.073,0,0,0,7.1,45.851c4.156,4.812,8.945,6.934,14.28,4.545-1.809-11.467,14.87-16.731,16.529-2.828l-2.08.119c-1.613-10.732-14.637-6.749-11.923,4.2.739,2.983,1.71,5.04,3.412,6.425a10.5,10.5,0,0,0,6.3,2.213c4.711.153,9.695-2.427,11.534-6.671a1.781,1.781,0,0,1,1.815-1.064,1.953,1.953,0,0,1,1.586,1.494,6.589,6.589,0,0,0,4.03,4.9,12.8,12.8,0,0,0,7.528.558,15.074,15.074,0,0,0,7.244-3.625,9.317,9.317,0,0,0,3.1-6.74C55.478,42.343,65.737,24.489,75.6,30.5l-.392,1.959c-7.646-5.258-17.153,11.025-2.757,15.16,6.373.964,10.442-1.085,13.111-4.6s3.84-8.7,3.508-13.876S86.9,18.866,84.017,15.607A10.671,10.671,0,0,0,72.236,12.2a1.945,1.945,0,0,1-2.278-1.632,10.825,10.825,0,0,0-4.458-7.7A15.8,15.8,0,0,0,56.8.014Z" transform="translate(2.858 1.89)" fill="#04192e"/></g><g transform="translate(397.007 965.935) rotate(15.009)"><path d="M0,28.1c4.787,5.963,11.2,7.327,14.277,4.646s5.387-9.509,13.011-6.763C23.652,16.18,33.951,4.5,44.24,9.713,46.794-3.468,72.482-3.818,74.483,12.271c22.83-6.463,28.008,43.268.517,39.111-.232,13.026-22.662,17.594-25.458,5.187-4.4,10.165-22.568,11.3-24.654-2.547C12.75,59.457,1.718,43.8,0,28.1Z" fill="#fff"/><path d="M56.807.014a16.7,16.7,0,0,0-8.883,2.05,9.123,9.123,0,0,0-4.681,6.193C37.678,30.195,63.26,26.14,57.1,12.3l2.216-1.244C66.887,29.077,36.24,32.968,40.73,9.512,31.858,5.018,23.187,15.287,26.216,23.45a1.974,1.974,0,0,1-.359,1.974,1.754,1.754,0,0,1-1.865.456c-3.315-1.193-4.868-.418-6.481,1.009s-2.879,3.747-4.8,5.427c-2.1,1.834-5.119,2.142-8.119,1.273A15.492,15.492,0,0,1,0,31.3,36.073,36.073,0,0,0,7.1,45.851c4.156,4.812,8.945,6.934,14.28,4.545-1.809-11.467,14.87-16.731,16.529-2.828l-2.08.119c-1.613-10.732-14.637-6.749-11.923,4.2.739,2.983,1.71,5.04,3.412,6.425a10.5,10.5,0,0,0,6.3,2.213c4.711.153,9.695-2.427,11.534-6.671a1.781,1.781,0,0,1,1.815-1.064,1.953,1.953,0,0,1,1.586,1.494,6.589,6.589,0,0,0,4.03,4.9,12.8,12.8,0,0,0,7.528.558,15.074,15.074,0,0,0,7.244-3.625,9.317,9.317,0,0,0,3.1-6.74C55.478,42.343,65.737,24.489,75.6,30.5l-.392,1.959c-7.646-5.258-17.153,11.025-2.757,15.16,6.373.964,10.442-1.085,13.111-4.6s3.84-8.7,3.508-13.876S86.9,18.866,84.017,15.607A10.671,10.671,0,0,0,72.236,12.2a1.945,1.945,0,0,1-2.278-1.632,10.825,10.825,0,0,0-4.458-7.7A15.8,15.8,0,0,0,56.8.014Z" transform="translate(2.858 1.89)" fill="#04192e"/></g><g transform="translate(714.94 965.935) rotate(15.009)"><path d="M0,28.1c4.787,5.963,11.2,7.327,14.277,4.646s5.387-9.509,13.011-6.763C23.652,16.18,33.951,4.5,44.24,9.713,46.794-3.468,72.482-3.818,74.483,12.271c22.83-6.463,28.008,43.268.517,39.111-.232,13.026-22.662,17.594-25.458,5.187-4.4,10.165-22.568,11.3-24.654-2.547C12.75,59.457,1.718,43.8,0,28.1Z" fill="#fff"/><path d="M56.807.014a16.7,16.7,0,0,0-8.883,2.05,9.123,9.123,0,0,0-4.681,6.193C37.678,30.195,63.26,26.14,57.1,12.3l2.216-1.244C66.887,29.077,36.24,32.968,40.73,9.512,31.858,5.018,23.187,15.287,26.216,23.45a1.974,1.974,0,0,1-.359,1.974,1.754,1.754,0,0,1-1.865.456c-3.315-1.193-4.868-.418-6.481,1.009s-2.879,3.747-4.8,5.427c-2.1,1.834-5.119,2.142-8.119,1.273A15.492,15.492,0,0,1,0,31.3,36.073,36.073,0,0,0,7.1,45.851c4.156,4.812,8.945,6.934,14.28,4.545-1.809-11.467,14.87-16.731,16.529-2.828l-2.08.119c-1.613-10.732-14.637-6.749-11.923,4.2.739,2.983,1.71,5.04,3.412,6.425a10.5,10.5,0,0,0,6.3,2.213c4.711.153,9.695-2.427,11.534-6.671a1.781,1.781,0,0,1,1.815-1.064,1.953,1.953,0,0,1,1.586,1.494,6.589,6.589,0,0,0,4.03,4.9,12.8,12.8,0,0,0,7.528.558,15.074,15.074,0,0,0,7.244-3.625,9.317,9.317,0,0,0,3.1-6.74C55.478,42.343,65.737,24.489,75.6,30.5l-.392,1.959c-7.646-5.258-17.153,11.025-2.757,15.16,6.373.964,10.442-1.085,13.111-4.6s3.84-8.7,3.508-13.876S86.9,18.866,84.017,15.607A10.671,10.671,0,0,0,72.236,12.2a1.945,1.945,0,0,1-2.278-1.632,10.825,10.825,0,0,0-4.458-7.7A15.8,15.8,0,0,0,56.8.014Z" transform="translate(2.858 1.89)" fill="#04192e"/></g><g transform="translate(1351.089 965.935) rotate(15.009)"><path d="M0,28.1c4.787,5.963,11.2,7.327,14.277,4.646s5.387-9.509,13.011-6.763C23.652,16.18,33.951,4.5,44.24,9.713,46.794-3.468,72.482-3.818,74.483,12.271c22.83-6.463,28.008,43.268.517,39.111-.232,13.026-22.662,17.594-25.458,5.187-4.4,10.165-22.568,11.3-24.654-2.547C12.75,59.457,1.718,43.8,0,28.1Z" fill="#fff"/><path d="M56.807.014a16.7,16.7,0,0,0-8.883,2.05,9.123,9.123,0,0,0-4.681,6.193C37.678,30.195,63.26,26.14,57.1,12.3l2.216-1.244C66.887,29.077,36.24,32.968,40.73,9.512,31.858,5.018,23.187,15.287,26.216,23.45a1.974,1.974,0,0,1-.359,1.974,1.754,1.754,0,0,1-1.865.456c-3.315-1.193-4.868-.418-6.481,1.009s-2.879,3.747-4.8,5.427c-2.1,1.834-5.119,2.142-8.119,1.273A15.492,15.492,0,0,1,0,31.3,36.073,36.073,0,0,0,7.1,45.851c4.156,4.812,8.945,6.934,14.28,4.545-1.809-11.467,14.87-16.731,16.529-2.828l-2.08.119c-1.613-10.732-14.637-6.749-11.923,4.2.739,2.983,1.71,5.04,3.412,6.425a10.5,10.5,0,0,0,6.3,2.213c4.711.153,9.695-2.427,11.534-6.671a1.781,1.781,0,0,1,1.815-1.064,1.953,1.953,0,0,1,1.586,1.494,6.589,6.589,0,0,0,4.03,4.9,12.8,12.8,0,0,0,7.528.558,15.074,15.074,0,0,0,7.244-3.625,9.317,9.317,0,0,0,3.1-6.74C55.478,42.343,65.737,24.489,75.6,30.5l-.392,1.959c-7.646-5.258-17.153,11.025-2.757,15.16,6.373.964,10.442-1.085,13.111-4.6s3.84-8.7,3.508-13.876S86.9,18.866,84.017,15.607A10.671,10.671,0,0,0,72.236,12.2a1.945,1.945,0,0,1-2.278-1.632,10.825,10.825,0,0,0-4.458-7.7A15.8,15.8,0,0,0,56.8.014Z" transform="translate(2.858 1.89)" fill="#04192e"/></g><g transform="translate(1669.089 965.935) rotate(15.009)"><path d="M0,28.1c4.787,5.963,11.2,7.327,14.277,4.646s5.387-9.509,13.011-6.763C23.652,16.18,33.951,4.5,44.24,9.713,46.794-3.468,72.482-3.818,74.483,12.271c22.83-6.463,28.008,43.268.517,39.111-.232,13.026-22.662,17.594-25.458,5.187-4.4,10.165-22.568,11.3-24.654-2.547C12.75,59.457,1.718,43.8,0,28.1Z" fill="#fff"/><path d="M56.807.014a16.7,16.7,0,0,0-8.883,2.05,9.123,9.123,0,0,0-4.681,6.193C37.678,30.195,63.26,26.14,57.1,12.3l2.216-1.244C66.887,29.077,36.24,32.968,40.73,9.512,31.858,5.018,23.187,15.287,26.216,23.45a1.974,1.974,0,0,1-.359,1.974,1.754,1.754,0,0,1-1.865.456c-3.315-1.193-4.868-.418-6.481,1.009s-2.879,3.747-4.8,5.427c-2.1,1.834-5.119,2.142-8.119,1.273A15.492,15.492,0,0,1,0,31.3,36.073,36.073,0,0,0,7.1,45.851c4.156,4.812,8.945,6.934,14.28,4.545-1.809-11.467,14.87-16.731,16.529-2.828l-2.08.119c-1.613-10.732-14.637-6.749-11.923,4.2.739,2.983,1.71,5.04,3.412,6.425a10.5,10.5,0,0,0,6.3,2.213c4.711.153,9.695-2.427,11.534-6.671a1.781,1.781,0,0,1,1.815-1.064,1.953,1.953,0,0,1,1.586,1.494,6.589,6.589,0,0,0,4.03,4.9,12.8,12.8,0,0,0,7.528.558,15.074,15.074,0,0,0,7.244-3.625,9.317,9.317,0,0,0,3.1-6.74C55.478,42.343,65.737,24.489,75.6,30.5l-.392,1.959c-7.646-5.258-17.153,11.025-2.757,15.16,6.373.964,10.442-1.085,13.111-4.6s3.84-8.7,3.508-13.876S86.9,18.866,84.017,15.607A10.671,10.671,0,0,0,72.236,12.2a1.945,1.945,0,0,1-2.278-1.632,10.825,10.825,0,0,0-4.458-7.7A15.8,15.8,0,0,0,56.8.014Z" transform="translate(2.858 1.89)" fill="#04192e"/></g><g transform="translate(1032.872 965.935) rotate(15.009)"><path d="M0,28.1c4.787,5.963,11.2,7.327,14.277,4.646s5.387-9.509,13.011-6.763C23.652,16.18,33.951,4.5,44.24,9.713,46.794-3.468,72.482-3.818,74.483,12.271c22.83-6.463,28.008,43.268.517,39.111-.232,13.026-22.662,17.594-25.458,5.187-4.4,10.165-22.568,11.3-24.654-2.547C12.75,59.457,1.718,43.8,0,28.1Z" fill="#fff"/><path d="M56.807.014a16.7,16.7,0,0,0-8.883,2.05,9.123,9.123,0,0,0-4.681,6.193C37.678,30.195,63.26,26.14,57.1,12.3l2.216-1.244C66.887,29.077,36.24,32.968,40.73,9.512,31.858,5.018,23.187,15.287,26.216,23.45a1.974,1.974,0,0,1-.359,1.974,1.754,1.754,0,0,1-1.865.456c-3.315-1.193-4.868-.418-6.481,1.009s-2.879,3.747-4.8,5.427c-2.1,1.834-5.119,2.142-8.119,1.273A15.492,15.492,0,0,1,0,31.3,36.073,36.073,0,0,0,7.1,45.851c4.156,4.812,8.945,6.934,14.28,4.545-1.809-11.467,14.87-16.731,16.529-2.828l-2.08.119c-1.613-10.732-14.637-6.749-11.923,4.2.739,2.983,1.71,5.04,3.412,6.425a10.5,10.5,0,0,0,6.3,2.213c4.711.153,9.695-2.427,11.534-6.671a1.781,1.781,0,0,1,1.815-1.064,1.953,1.953,0,0,1,1.586,1.494,6.589,6.589,0,0,0,4.03,4.9,12.8,12.8,0,0,0,7.528.558,15.074,15.074,0,0,0,7.244-3.625,9.317,9.317,0,0,0,3.1-6.74C55.478,42.343,65.737,24.489,75.6,30.5l-.392,1.959c-7.646-5.258-17.153,11.025-2.757,15.16,6.373.964,10.442-1.085,13.111-4.6s3.84-8.7,3.508-13.876S86.9,18.866,84.017,15.607A10.671,10.671,0,0,0,72.236,12.2a1.945,1.945,0,0,1-2.278-1.632,10.825,10.825,0,0,0-4.458-7.7A15.8,15.8,0,0,0,56.8.014Z" transform="translate(2.858 1.89)" fill="#04192e"/></g><g transform="translate(78.862 137.991) rotate(15.009)"><path d="M0,28.1c4.787,5.963,11.2,7.327,14.277,4.646s5.387-9.509,13.011-6.763C23.652,16.18,33.951,4.5,44.24,9.713,46.794-3.468,72.482-3.818,74.483,12.271c22.83-6.463,28.008,43.268.517,39.111-.232,13.026-22.662,17.594-25.458,5.187-4.4,10.165-22.568,11.3-24.654-2.547C12.75,59.457,1.718,43.8,0,28.1Z" fill="#fff"/><path d="M56.807.014a16.7,16.7,0,0,0-8.883,2.05,9.123,9.123,0,0,0-4.681,6.193C37.678,30.195,63.26,26.14,57.1,12.3l2.216-1.244C66.887,29.077,36.24,32.968,40.73,9.512,31.858,5.018,23.187,15.287,26.216,23.45a1.974,1.974,0,0,1-.359,1.974,1.754,1.754,0,0,1-1.865.456c-3.315-1.193-4.868-.418-6.481,1.009s-2.879,3.747-4.8,5.427c-2.1,1.834-5.119,2.142-8.119,1.273A15.492,15.492,0,0,1,0,31.3,36.073,36.073,0,0,0,7.1,45.851c4.156,4.812,8.945,6.934,14.28,4.545-1.809-11.467,14.87-16.731,16.529-2.828l-2.08.119c-1.613-10.732-14.637-6.749-11.923,4.2.739,2.983,1.71,5.04,3.412,6.425a10.5,10.5,0,0,0,6.3,2.213c4.711.153,9.695-2.427,11.534-6.671a1.781,1.781,0,0,1,1.815-1.064,1.953,1.953,0,0,1,1.586,1.494,6.589,6.589,0,0,0,4.03,4.9,12.8,12.8,0,0,0,7.528.558,15.074,15.074,0,0,0,7.244-3.625,9.317,9.317,0,0,0,3.1-6.74C55.478,42.343,65.737,24.489,75.6,30.5l-.392,1.959c-7.646-5.258-17.153,11.025-2.757,15.16,6.373.964,10.442-1.085,13.111-4.6s3.84-8.7,3.508-13.876S86.9,18.866,84.017,15.607A10.671,10.671,0,0,0,72.236,12.2a1.945,1.945,0,0,1-2.278-1.632,10.825,10.825,0,0,0-4.458-7.7A15.8,15.8,0,0,0,56.8.014Z" transform="translate(2.858 1.89)" fill="#04192e"/></g><g transform="translate(78.862 413.972) rotate(15.009)"><path d="M0,28.1c4.787,5.963,11.2,7.327,14.277,4.646s5.387-9.509,13.011-6.763C23.652,16.18,33.951,4.5,44.24,9.713,46.794-3.468,72.482-3.818,74.483,12.271c22.83-6.463,28.008,43.268.517,39.111-.232,13.026-22.662,17.594-25.458,5.187-4.4,10.165-22.568,11.3-24.654-2.547C12.75,59.457,1.718,43.8,0,28.1Z" fill="#fff"/><path d="M56.807.014a16.7,16.7,0,0,0-8.883,2.05,9.123,9.123,0,0,0-4.681,6.193C37.678,30.195,63.26,26.14,57.1,12.3l2.216-1.244C66.887,29.077,36.24,32.968,40.73,9.512,31.858,5.018,23.187,15.287,26.216,23.45a1.974,1.974,0,0,1-.359,1.974,1.754,1.754,0,0,1-1.865.456c-3.315-1.193-4.868-.418-6.481,1.009s-2.879,3.747-4.8,5.427c-2.1,1.834-5.119,2.142-8.119,1.273A15.492,15.492,0,0,1,0,31.3,36.073,36.073,0,0,0,7.1,45.851c4.156,4.812,8.945,6.934,14.28,4.545-1.809-11.467,14.87-16.731,16.529-2.828l-2.08.119c-1.613-10.732-14.637-6.749-11.923,4.2.739,2.983,1.71,5.04,3.412,6.425a10.5,10.5,0,0,0,6.3,2.213c4.711.153,9.695-2.427,11.534-6.671a1.781,1.781,0,0,1,1.815-1.064,1.953,1.953,0,0,1,1.586,1.494,6.589,6.589,0,0,0,4.03,4.9,12.8,12.8,0,0,0,7.528.558,15.074,15.074,0,0,0,7.244-3.625,9.317,9.317,0,0,0,3.1-6.74C55.478,42.343,65.737,24.489,75.6,30.5l-.392,1.959c-7.646-5.258-17.153,11.025-2.757,15.16,6.373.964,10.442-1.085,13.111-4.6s3.84-8.7,3.508-13.876S86.9,18.866,84.017,15.607A10.671,10.671,0,0,0,72.236,12.2a1.945,1.945,0,0,1-2.278-1.632,10.825,10.825,0,0,0-4.458-7.7A15.8,15.8,0,0,0,56.8.014Z" transform="translate(2.858 1.89)" fill="#04192e"/></g><g transform="translate(78.862 689.953) rotate(15.009)"><path d="M0,28.1c4.787,5.963,11.2,7.327,14.277,4.646s5.387-9.509,13.011-6.763C23.652,16.18,33.951,4.5,44.24,9.713,46.794-3.468,72.482-3.818,74.483,12.271c22.83-6.463,28.008,43.268.517,39.111-.232,13.026-22.662,17.594-25.458,5.187-4.4,10.165-22.568,11.3-24.654-2.547C12.75,59.457,1.718,43.8,0,28.1Z" fill="#fff"/><path d="M56.807.014a16.7,16.7,0,0,0-8.883,2.05,9.123,9.123,0,0,0-4.681,6.193C37.678,30.195,63.26,26.14,57.1,12.3l2.216-1.244C66.887,29.077,36.24,32.968,40.73,9.512,31.858,5.018,23.187,15.287,26.216,23.45a1.974,1.974,0,0,1-.359,1.974,1.754,1.754,0,0,1-1.865.456c-3.315-1.193-4.868-.418-6.481,1.009s-2.879,3.747-4.8,5.427c-2.1,1.834-5.119,2.142-8.119,1.273A15.492,15.492,0,0,1,0,31.3,36.073,36.073,0,0,0,7.1,45.851c4.156,4.812,8.945,6.934,14.28,4.545-1.809-11.467,14.87-16.731,16.529-2.828l-2.08.119c-1.613-10.732-14.637-6.749-11.923,4.2.739,2.983,1.71,5.04,3.412,6.425a10.5,10.5,0,0,0,6.3,2.213c4.711.153,9.695-2.427,11.534-6.671a1.781,1.781,0,0,1,1.815-1.064,1.953,1.953,0,0,1,1.586,1.494,6.589,6.589,0,0,0,4.03,4.9,12.8,12.8,0,0,0,7.528.558,15.074,15.074,0,0,0,7.244-3.625,9.317,9.317,0,0,0,3.1-6.74C55.478,42.343,65.737,24.489,75.6,30.5l-.392,1.959c-7.646-5.258-17.153,11.025-2.757,15.16,6.373.964,10.442-1.085,13.111-4.6s3.84-8.7,3.508-13.876S86.9,18.866,84.017,15.607A10.671,10.671,0,0,0,72.236,12.2a1.945,1.945,0,0,1-2.278-1.632,10.825,10.825,0,0,0-4.458-7.7A15.8,15.8,0,0,0,56.8.014Z" transform="translate(2.858 1.89)" fill="#04192e"/></g><g transform="translate(78.862 965.935) rotate(15.009)"><path d="M0,28.1c4.787,5.963,11.2,7.327,14.277,4.646s5.387-9.509,13.011-6.763C23.652,16.18,33.951,4.5,44.24,9.713,46.794-3.468,72.482-3.818,74.483,12.271c22.83-6.463,28.008,43.268.517,39.111-.232,13.026-22.662,17.594-25.458,5.187-4.4,10.165-22.568,11.3-24.654-2.547C12.75,59.457,1.718,43.8,0,28.1Z" fill="#fff"/><path d="M56.807.014a16.7,16.7,0,0,0-8.883,2.05,9.123,9.123,0,0,0-4.681,6.193C37.678,30.195,63.26,26.14,57.1,12.3l2.216-1.244C66.887,29.077,36.24,32.968,40.73,9.512,31.858,5.018,23.187,15.287,26.216,23.45a1.974,1.974,0,0,1-.359,1.974,1.754,1.754,0,0,1-1.865.456c-3.315-1.193-4.868-.418-6.481,1.009s-2.879,3.747-4.8,5.427c-2.1,1.834-5.119,2.142-8.119,1.273A15.492,15.492,0,0,1,0,31.3,36.073,36.073,0,0,0,7.1,45.851c4.156,4.812,8.945,6.934,14.28,4.545-1.809-11.467,14.87-16.731,16.529-2.828l-2.08.119c-1.613-10.732-14.637-6.749-11.923,4.2.739,2.983,1.71,5.04,3.412,6.425a10.5,10.5,0,0,0,6.3,2.213c4.711.153,9.695-2.427,11.534-6.671a1.781,1.781,0,0,1,1.815-1.064,1.953,1.953,0,0,1,1.586,1.494,6.589,6.589,0,0,0,4.03,4.9,12.8,12.8,0,0,0,7.528.558,15.074,15.074,0,0,0,7.244-3.625,9.317,9.317,0,0,0,3.1-6.74C55.478,42.343,65.737,24.489,75.6,30.5l-.392,1.959c-7.646-5.258-17.153,11.025-2.757,15.16,6.373.964,10.442-1.085,13.111-4.6s3.84-8.7,3.508-13.876S86.9,18.866,84.017,15.607A10.671,10.671,0,0,0,72.236,12.2a1.945,1.945,0,0,1-2.278-1.632,10.825,10.825,0,0,0-4.458-7.7A15.8,15.8,0,0,0,56.8.014Z" transform="translate(2.858 1.89)" fill="#04192e"/></g><g transform="translate(-239.285 137.991) rotate(15.009)"><path d="M0,28.1c4.787,5.963,11.2,7.327,14.277,4.646s5.387-9.509,13.011-6.763C23.652,16.18,33.951,4.5,44.24,9.713,46.794-3.468,72.482-3.818,74.483,12.271c22.83-6.463,28.008,43.268.517,39.111-.232,13.026-22.662,17.594-25.458,5.187-4.4,10.165-22.568,11.3-24.654-2.547C12.75,59.457,1.718,43.8,0,28.1Z" fill="#fff"/><path d="M56.807.014a16.7,16.7,0,0,0-8.883,2.05,9.123,9.123,0,0,0-4.681,6.193C37.678,30.195,63.26,26.14,57.1,12.3l2.216-1.244C66.887,29.077,36.24,32.968,40.73,9.512,31.858,5.018,23.187,15.287,26.216,23.45a1.974,1.974,0,0,1-.359,1.974,1.754,1.754,0,0,1-1.865.456c-3.315-1.193-4.868-.418-6.481,1.009s-2.879,3.747-4.8,5.427c-2.1,1.834-5.119,2.142-8.119,1.273A15.492,15.492,0,0,1,0,31.3,36.073,36.073,0,0,0,7.1,45.851c4.156,4.812,8.945,6.934,14.28,4.545-1.809-11.467,14.87-16.731,16.529-2.828l-2.08.119c-1.613-10.732-14.637-6.749-11.923,4.2.739,2.983,1.71,5.04,3.412,6.425a10.5,10.5,0,0,0,6.3,2.213c4.711.153,9.695-2.427,11.534-6.671a1.781,1.781,0,0,1,1.815-1.064,1.953,1.953,0,0,1,1.586,1.494,6.589,6.589,0,0,0,4.03,4.9,12.8,12.8,0,0,0,7.528.558,15.074,15.074,0,0,0,7.244-3.625,9.317,9.317,0,0,0,3.1-6.74C55.478,42.343,65.737,24.489,75.6,30.5l-.392,1.959c-7.646-5.258-17.153,11.025-2.757,15.16,6.373.964,10.442-1.085,13.111-4.6s3.84-8.7,3.508-13.876S86.9,18.866,84.017,15.607A10.671,10.671,0,0,0,72.236,12.2a1.945,1.945,0,0,1-2.278-1.632,10.825,10.825,0,0,0-4.458-7.7A15.8,15.8,0,0,0,56.8.014Z" transform="translate(2.858 1.89)" fill="#04192e"/></g><g transform="translate(-239.285 413.972) rotate(15.009)"><path d="M0,28.1c4.787,5.963,11.2,7.327,14.277,4.646s5.387-9.509,13.011-6.763C23.652,16.18,33.951,4.5,44.24,9.713,46.794-3.468,72.482-3.818,74.483,12.271c22.83-6.463,28.008,43.268.517,39.111-.232,13.026-22.662,17.594-25.458,5.187-4.4,10.165-22.568,11.3-24.654-2.547C12.75,59.457,1.718,43.8,0,28.1Z" fill="#fff"/><path d="M56.807.014a16.7,16.7,0,0,0-8.883,2.05,9.123,9.123,0,0,0-4.681,6.193C37.678,30.195,63.26,26.14,57.1,12.3l2.216-1.244C66.887,29.077,36.24,32.968,40.73,9.512,31.858,5.018,23.187,15.287,26.216,23.45a1.974,1.974,0,0,1-.359,1.974,1.754,1.754,0,0,1-1.865.456c-3.315-1.193-4.868-.418-6.481,1.009s-2.879,3.747-4.8,5.427c-2.1,1.834-5.119,2.142-8.119,1.273A15.492,15.492,0,0,1,0,31.3,36.073,36.073,0,0,0,7.1,45.851c4.156,4.812,8.945,6.934,14.28,4.545-1.809-11.467,14.87-16.731,16.529-2.828l-2.08.119c-1.613-10.732-14.637-6.749-11.923,4.2.739,2.983,1.71,5.04,3.412,6.425a10.5,10.5,0,0,0,6.3,2.213c4.711.153,9.695-2.427,11.534-6.671a1.781,1.781,0,0,1,1.815-1.064,1.953,1.953,0,0,1,1.586,1.494,6.589,6.589,0,0,0,4.03,4.9,12.8,12.8,0,0,0,7.528.558,15.074,15.074,0,0,0,7.244-3.625,9.317,9.317,0,0,0,3.1-6.74C55.478,42.343,65.737,24.489,75.6,30.5l-.392,1.959c-7.646-5.258-17.153,11.025-2.757,15.16,6.373.964,10.442-1.085,13.111-4.6s3.84-8.7,3.508-13.876S86.9,18.866,84.017,15.607A10.671,10.671,0,0,0,72.236,12.2a1.945,1.945,0,0,1-2.278-1.632,10.825,10.825,0,0,0-4.458-7.7A15.8,15.8,0,0,0,56.8.014Z" transform="translate(2.858 1.89)" fill="#04192e"/></g><g transform="translate(-239.285 689.953) rotate(15.009)"><path d="M0,28.1c4.787,5.963,11.2,7.327,14.277,4.646s5.387-9.509,13.011-6.763C23.652,16.18,33.951,4.5,44.24,9.713,46.794-3.468,72.482-3.818,74.483,12.271c22.83-6.463,28.008,43.268.517,39.111-.232,13.026-22.662,17.594-25.458,5.187-4.4,10.165-22.568,11.3-24.654-2.547C12.75,59.457,1.718,43.8,0,28.1Z" fill="#fff"/><path d="M56.807.014a16.7,16.7,0,0,0-8.883,2.05,9.123,9.123,0,0,0-4.681,6.193C37.678,30.195,63.26,26.14,57.1,12.3l2.216-1.244C66.887,29.077,36.24,32.968,40.73,9.512,31.858,5.018,23.187,15.287,26.216,23.45a1.974,1.974,0,0,1-.359,1.974,1.754,1.754,0,0,1-1.865.456c-3.315-1.193-4.868-.418-6.481,1.009s-2.879,3.747-4.8,5.427c-2.1,1.834-5.119,2.142-8.119,1.273A15.492,15.492,0,0,1,0,31.3,36.073,36.073,0,0,0,7.1,45.851c4.156,4.812,8.945,6.934,14.28,4.545-1.809-11.467,14.87-16.731,16.529-2.828l-2.08.119c-1.613-10.732-14.637-6.749-11.923,4.2.739,2.983,1.71,5.04,3.412,6.425a10.5,10.5,0,0,0,6.3,2.213c4.711.153,9.695-2.427,11.534-6.671a1.781,1.781,0,0,1,1.815-1.064,1.953,1.953,0,0,1,1.586,1.494,6.589,6.589,0,0,0,4.03,4.9,12.8,12.8,0,0,0,7.528.558,15.074,15.074,0,0,0,7.244-3.625,9.317,9.317,0,0,0,3.1-6.74C55.478,42.343,65.737,24.489,75.6,30.5l-.392,1.959c-7.646-5.258-17.153,11.025-2.757,15.16,6.373.964,10.442-1.085,13.111-4.6s3.84-8.7,3.508-13.876S86.9,18.866,84.017,15.607A10.671,10.671,0,0,0,72.236,12.2a1.945,1.945,0,0,1-2.278-1.632,10.825,10.825,0,0,0-4.458-7.7A15.8,15.8,0,0,0,56.8.014Z" transform="translate(2.858 1.89)" fill="#04192e"/></g><g transform="translate(-239.285 965.935) rotate(15.009)"><path d="M0,28.1c4.787,5.963,11.2,7.327,14.277,4.646s5.387-9.509,13.011-6.763C23.652,16.18,33.951,4.5,44.24,9.713,46.794-3.468,72.482-3.818,74.483,12.271c22.83-6.463,28.008,43.268.517,39.111-.232,13.026-22.662,17.594-25.458,5.187-4.4,10.165-22.568,11.3-24.654-2.547C12.75,59.457,1.718,43.8,0,28.1Z" fill="#fff"/><path d="M56.807.014a16.7,16.7,0,0,0-8.883,2.05,9.123,9.123,0,0,0-4.681,6.193C37.678,30.195,63.26,26.14,57.1,12.3l2.216-1.244C66.887,29.077,36.24,32.968,40.73,9.512,31.858,5.018,23.187,15.287,26.216,23.45a1.974,1.974,0,0,1-.359,1.974,1.754,1.754,0,0,1-1.865.456c-3.315-1.193-4.868-.418-6.481,1.009s-2.879,3.747-4.8,5.427c-2.1,1.834-5.119,2.142-8.119,1.273A15.492,15.492,0,0,1,0,31.3,36.073,36.073,0,0,0,7.1,45.851c4.156,4.812,8.945,6.934,14.28,4.545-1.809-11.467,14.87-16.731,16.529-2.828l-2.08.119c-1.613-10.732-14.637-6.749-11.923,4.2.739,2.983,1.71,5.04,3.412,6.425a10.5,10.5,0,0,0,6.3,2.213c4.711.153,9.695-2.427,11.534-6.671a1.781,1.781,0,0,1,1.815-1.064,1.953,1.953,0,0,1,1.586,1.494,6.589,6.589,0,0,0,4.03,4.9,12.8,12.8,0,0,0,7.528.558,15.074,15.074,0,0,0,7.244-3.625,9.317,9.317,0,0,0,3.1-6.74C55.478,42.343,65.737,24.489,75.6,30.5l-.392,1.959c-7.646-5.258-17.153,11.025-2.757,15.16,6.373.964,10.442-1.085,13.111-4.6s3.84-8.7,3.508-13.876S86.9,18.866,84.017,15.607A10.671,10.671,0,0,0,72.236,12.2a1.945,1.945,0,0,1-2.278-1.632,10.825,10.825,0,0,0-4.458-7.7A15.8,15.8,0,0,0,56.8.014Z" transform="translate(2.858 1.89)" fill="#04192e"/></g><rect width="2175" height="52" transform="translate(-415.011 1052)" fill="none"/></g></svg>