<svg xmlns="http://www.w3.org/2000/svg" width="473" height="720" viewBox="0 0 473 720"><g transform="translate(417.005 0.001)" opacity="0.5"><g transform="translate(-240.315) rotate(15.009)"><path d="M0,14.66c2.5,3.111,5.847,3.823,7.45,2.424s2.811-4.961,6.789-3.529c-1.9-5.113,3.476-11.207,8.845-8.488C24.416-1.81,37.819-1.992,38.863,6.4c11.912-3.372,14.614,22.576.271,20.407-.121,6.8-11.824,9.18-13.283,2.707-2.3,5.3-11.775,5.9-12.864-1.329C6.653,31.023.9,22.853,0,14.66Z" fill="#fff"/><path d="M29.64.007A8.715,8.715,0,0,0,25,1.077a4.76,4.76,0,0,0-2.442,3.231c-2.9,11.447,10.445,9.331,7.233,2.107l1.156-.649c3.948,9.4-12.043,11.435-9.7-.8C16.623,2.621,12.1,7.98,13.679,12.239a1.03,1.03,0,0,1-.187,1.03.915.915,0,0,1-.973.238,2.859,2.859,0,0,0-3.382.526c-.842.744-1.5,1.955-2.507,2.832a4.448,4.448,0,0,1-4.236.664A8.083,8.083,0,0,1,0,16.333a18.822,18.822,0,0,0,3.7,7.591c2.169,2.511,4.667,3.618,7.451,2.372-.944-5.983,7.759-8.73,8.624-1.476l-1.085.062c-.842-5.6-7.637-3.522-6.221,2.192a5.858,5.858,0,0,0,1.78,3.352,5.479,5.479,0,0,0,3.285,1.155A6.4,6.4,0,0,0,23.556,28.1a.929.929,0,0,1,.947-.555,1.019,1.019,0,0,1,.828.779,3.438,3.438,0,0,0,2.1,2.559,6.679,6.679,0,0,0,3.928.291,7.865,7.865,0,0,0,3.78-1.892,4.861,4.861,0,0,0,1.618-3.517c-7.812-3.673-2.459-12.989,2.689-9.852l-.2,1.022c-3.989-2.743-8.95,5.752-1.439,7.91,3.325.5,5.448-.566,6.841-2.4a11.04,11.04,0,0,0,1.83-7.24A12.134,12.134,0,0,0,43.84,8.139a5.568,5.568,0,0,0-6.147-1.78A1.015,1.015,0,0,1,36.5,5.511a5.648,5.648,0,0,0-2.324-4.02A8.243,8.243,0,0,0,29.64.007Z" transform="translate(1.491 0.986)" fill="#04192e"/></g><g transform="translate(-74.315) rotate(15.009)"><path d="M0,14.66c2.5,3.111,5.847,3.823,7.45,2.424s2.811-4.961,6.789-3.529c-1.9-5.113,3.476-11.207,8.845-8.488C24.416-1.81,37.819-1.992,38.863,6.4c11.912-3.372,14.614,22.576.271,20.407-.121,6.8-11.824,9.18-13.283,2.707-2.3,5.3-11.775,5.9-12.864-1.329C6.653,31.023.9,22.853,0,14.66Z" fill="#fff"/><path d="M29.64.007A8.715,8.715,0,0,0,25,1.077a4.76,4.76,0,0,0-2.442,3.231c-2.9,11.447,10.445,9.331,7.233,2.107l1.156-.649c3.948,9.4-12.043,11.435-9.7-.8C16.623,2.621,12.1,7.98,13.679,12.239a1.03,1.03,0,0,1-.187,1.03.915.915,0,0,1-.973.238,2.859,2.859,0,0,0-3.382.526c-.842.744-1.5,1.955-2.507,2.832a4.448,4.448,0,0,1-4.236.664A8.083,8.083,0,0,1,0,16.333a18.822,18.822,0,0,0,3.7,7.591c2.169,2.511,4.667,3.618,7.451,2.372-.944-5.983,7.759-8.73,8.624-1.476l-1.085.062c-.842-5.6-7.637-3.522-6.221,2.192a5.858,5.858,0,0,0,1.78,3.352,5.479,5.479,0,0,0,3.285,1.155A6.4,6.4,0,0,0,23.556,28.1a.929.929,0,0,1,.947-.555,1.019,1.019,0,0,1,.828.779,3.438,3.438,0,0,0,2.1,2.559,6.679,6.679,0,0,0,3.928.291,7.865,7.865,0,0,0,3.78-1.892,4.861,4.861,0,0,0,1.618-3.517c-7.812-3.673-2.459-12.989,2.689-9.852l-.2,1.022c-3.989-2.743-8.95,5.752-1.439,7.91,3.325.5,5.448-.566,6.841-2.4a11.04,11.04,0,0,0,1.83-7.24A12.134,12.134,0,0,0,43.84,8.139a5.568,5.568,0,0,0-6.147-1.78A1.015,1.015,0,0,1,36.5,5.511a5.648,5.648,0,0,0-2.324-4.02A8.243,8.243,0,0,0,29.64.007Z" transform="translate(1.491 0.986)" fill="#04192e"/></g><g transform="translate(-406.315) rotate(15.009)"><path d="M0,14.66c2.5,3.111,5.847,3.823,7.45,2.424s2.811-4.961,6.789-3.529c-1.9-5.113,3.476-11.207,8.845-8.488C24.416-1.81,37.819-1.992,38.863,6.4c11.912-3.372,14.614,22.576.271,20.407-.121,6.8-11.824,9.18-13.283,2.707-2.3,5.3-11.775,5.9-12.864-1.329C6.653,31.023.9,22.853,0,14.66Z" fill="#fff"/><path d="M29.64.007A8.715,8.715,0,0,0,25,1.077a4.76,4.76,0,0,0-2.442,3.231c-2.9,11.447,10.445,9.331,7.233,2.107l1.156-.649c3.948,9.4-12.043,11.435-9.7-.8C16.623,2.621,12.1,7.98,13.679,12.239a1.03,1.03,0,0,1-.187,1.03.915.915,0,0,1-.973.238,2.859,2.859,0,0,0-3.382.526c-.842.744-1.5,1.955-2.507,2.832a4.448,4.448,0,0,1-4.236.664A8.083,8.083,0,0,1,0,16.333a18.822,18.822,0,0,0,3.7,7.591c2.169,2.511,4.667,3.618,7.451,2.372-.944-5.983,7.759-8.73,8.624-1.476l-1.085.062c-.842-5.6-7.637-3.522-6.221,2.192a5.858,5.858,0,0,0,1.78,3.352,5.479,5.479,0,0,0,3.285,1.155A6.4,6.4,0,0,0,23.556,28.1a.929.929,0,0,1,.947-.555,1.019,1.019,0,0,1,.828.779,3.438,3.438,0,0,0,2.1,2.559,6.679,6.679,0,0,0,3.928.291,7.865,7.865,0,0,0,3.78-1.892,4.861,4.861,0,0,0,1.618-3.517c-7.812-3.673-2.459-12.989,2.689-9.852l-.2,1.022c-3.989-2.743-8.95,5.752-1.439,7.91,3.325.5,5.448-.566,6.841-2.4a11.04,11.04,0,0,0,1.83-7.24A12.134,12.134,0,0,0,43.84,8.139a5.568,5.568,0,0,0-6.147-1.78A1.015,1.015,0,0,1,36.5,5.511a5.648,5.648,0,0,0-2.324-4.02A8.243,8.243,0,0,0,29.64.007Z" transform="translate(1.491 0.986)" fill="#04192e"/></g><g transform="translate(-74.315 144) rotate(15.009)"><path d="M0,14.66c2.5,3.111,5.847,3.823,7.45,2.424s2.811-4.961,6.789-3.529c-1.9-5.113,3.476-11.207,8.845-8.488C24.416-1.81,37.819-1.992,38.863,6.4c11.912-3.372,14.614,22.576.271,20.407-.121,6.8-11.824,9.18-13.283,2.707-2.3,5.3-11.775,5.9-12.864-1.329C6.653,31.023.9,22.853,0,14.66Z" fill="#fff"/><path d="M29.64.007A8.715,8.715,0,0,0,25,1.077a4.76,4.76,0,0,0-2.442,3.231c-2.9,11.447,10.445,9.331,7.233,2.107l1.156-.649c3.948,9.4-12.043,11.435-9.7-.8C16.623,2.621,12.1,7.98,13.679,12.239a1.03,1.03,0,0,1-.187,1.03.915.915,0,0,1-.973.238,2.859,2.859,0,0,0-3.382.526c-.842.744-1.5,1.955-2.507,2.832a4.448,4.448,0,0,1-4.236.664A8.083,8.083,0,0,1,0,16.333a18.822,18.822,0,0,0,3.7,7.591c2.169,2.511,4.667,3.618,7.451,2.372-.944-5.983,7.759-8.73,8.624-1.476l-1.085.062c-.842-5.6-7.637-3.522-6.221,2.192a5.858,5.858,0,0,0,1.78,3.352,5.479,5.479,0,0,0,3.285,1.155A6.4,6.4,0,0,0,23.556,28.1a.929.929,0,0,1,.947-.555,1.019,1.019,0,0,1,.828.779,3.438,3.438,0,0,0,2.1,2.559,6.679,6.679,0,0,0,3.928.291,7.865,7.865,0,0,0,3.78-1.892,4.861,4.861,0,0,0,1.618-3.517c-7.812-3.673-2.459-12.989,2.689-9.852l-.2,1.022c-3.989-2.743-8.95,5.752-1.439,7.91,3.325.5,5.448-.566,6.841-2.4a11.04,11.04,0,0,0,1.83-7.24A12.134,12.134,0,0,0,43.84,8.139a5.568,5.568,0,0,0-6.147-1.78A1.015,1.015,0,0,1,36.5,5.511a5.648,5.648,0,0,0-2.324-4.02A8.243,8.243,0,0,0,29.64.007Z" transform="translate(1.491 0.986)" fill="#04192e"/></g><g transform="translate(-74.315 288) rotate(15.009)"><path d="M0,14.66c2.5,3.111,5.847,3.823,7.45,2.424s2.811-4.961,6.789-3.529c-1.9-5.113,3.476-11.207,8.845-8.488C24.416-1.81,37.819-1.992,38.863,6.4c11.912-3.372,14.614,22.576.271,20.407-.121,6.8-11.824,9.18-13.283,2.707-2.3,5.3-11.775,5.9-12.864-1.329C6.653,31.023.9,22.853,0,14.66Z" fill="#fff"/><path d="M29.64.007A8.715,8.715,0,0,0,25,1.077a4.76,4.76,0,0,0-2.442,3.231c-2.9,11.447,10.445,9.331,7.233,2.107l1.156-.649c3.948,9.4-12.043,11.435-9.7-.8C16.623,2.621,12.1,7.98,13.679,12.239a1.03,1.03,0,0,1-.187,1.03.915.915,0,0,1-.973.238,2.859,2.859,0,0,0-3.382.526c-.842.744-1.5,1.955-2.507,2.832a4.448,4.448,0,0,1-4.236.664A8.083,8.083,0,0,1,0,16.333a18.822,18.822,0,0,0,3.7,7.591c2.169,2.511,4.667,3.618,7.451,2.372-.944-5.983,7.759-8.73,8.624-1.476l-1.085.062c-.842-5.6-7.637-3.522-6.221,2.192a5.858,5.858,0,0,0,1.78,3.352,5.479,5.479,0,0,0,3.285,1.155A6.4,6.4,0,0,0,23.556,28.1a.929.929,0,0,1,.947-.555,1.019,1.019,0,0,1,.828.779,3.438,3.438,0,0,0,2.1,2.559,6.679,6.679,0,0,0,3.928.291,7.865,7.865,0,0,0,3.78-1.892,4.861,4.861,0,0,0,1.618-3.517c-7.812-3.673-2.459-12.989,2.689-9.852l-.2,1.022c-3.989-2.743-8.95,5.752-1.439,7.91,3.325.5,5.448-.566,6.841-2.4a11.04,11.04,0,0,0,1.83-7.24A12.134,12.134,0,0,0,43.84,8.139a5.568,5.568,0,0,0-6.147-1.78A1.015,1.015,0,0,1,36.5,5.511a5.648,5.648,0,0,0-2.324-4.02A8.243,8.243,0,0,0,29.64.007Z" transform="translate(1.491 0.986)" fill="#04192e"/></g><g transform="translate(-74.315 432) rotate(15.009)"><path d="M0,14.66c2.5,3.111,5.847,3.823,7.45,2.424s2.811-4.961,6.789-3.529c-1.9-5.113,3.476-11.207,8.845-8.488C24.416-1.81,37.819-1.992,38.863,6.4c11.912-3.372,14.614,22.576.271,20.407-.121,6.8-11.824,9.18-13.283,2.707-2.3,5.3-11.775,5.9-12.864-1.329C6.653,31.023.9,22.853,0,14.66Z" fill="#fff"/><path d="M29.64.007A8.715,8.715,0,0,0,25,1.077a4.76,4.76,0,0,0-2.442,3.231c-2.9,11.447,10.445,9.331,7.233,2.107l1.156-.649c3.948,9.4-12.043,11.435-9.7-.8C16.623,2.621,12.1,7.98,13.679,12.239a1.03,1.03,0,0,1-.187,1.03.915.915,0,0,1-.973.238,2.859,2.859,0,0,0-3.382.526c-.842.744-1.5,1.955-2.507,2.832a4.448,4.448,0,0,1-4.236.664A8.083,8.083,0,0,1,0,16.333a18.822,18.822,0,0,0,3.7,7.591c2.169,2.511,4.667,3.618,7.451,2.372-.944-5.983,7.759-8.73,8.624-1.476l-1.085.062c-.842-5.6-7.637-3.522-6.221,2.192a5.858,5.858,0,0,0,1.78,3.352,5.479,5.479,0,0,0,3.285,1.155A6.4,6.4,0,0,0,23.556,28.1a.929.929,0,0,1,.947-.555,1.019,1.019,0,0,1,.828.779,3.438,3.438,0,0,0,2.1,2.559,6.679,6.679,0,0,0,3.928.291,7.865,7.865,0,0,0,3.78-1.892,4.861,4.861,0,0,0,1.618-3.517c-7.812-3.673-2.459-12.989,2.689-9.852l-.2,1.022c-3.989-2.743-8.95,5.752-1.439,7.91,3.325.5,5.448-.566,6.841-2.4a11.04,11.04,0,0,0,1.83-7.24A12.134,12.134,0,0,0,43.84,8.139a5.568,5.568,0,0,0-6.147-1.78A1.015,1.015,0,0,1,36.5,5.511a5.648,5.648,0,0,0-2.324-4.02A8.243,8.243,0,0,0,29.64.007Z" transform="translate(1.491 0.986)" fill="#04192e"/></g><g transform="translate(-74.315 576) rotate(15.009)"><path d="M0,14.66c2.5,3.111,5.847,3.823,7.45,2.424s2.811-4.961,6.789-3.529c-1.9-5.113,3.476-11.207,8.845-8.488C24.416-1.81,37.819-1.992,38.863,6.4c11.912-3.372,14.614,22.576.271,20.407-.121,6.8-11.824,9.18-13.283,2.707-2.3,5.3-11.775,5.9-12.864-1.329C6.653,31.023.9,22.853,0,14.66Z" fill="#fff"/><path d="M29.64.007A8.715,8.715,0,0,0,25,1.077a4.76,4.76,0,0,0-2.442,3.231c-2.9,11.447,10.445,9.331,7.233,2.107l1.156-.649c3.948,9.4-12.043,11.435-9.7-.8C16.623,2.621,12.1,7.98,13.679,12.239a1.03,1.03,0,0,1-.187,1.03.915.915,0,0,1-.973.238,2.859,2.859,0,0,0-3.382.526c-.842.744-1.5,1.955-2.507,2.832a4.448,4.448,0,0,1-4.236.664A8.083,8.083,0,0,1,0,16.333a18.822,18.822,0,0,0,3.7,7.591c2.169,2.511,4.667,3.618,7.451,2.372-.944-5.983,7.759-8.73,8.624-1.476l-1.085.062c-.842-5.6-7.637-3.522-6.221,2.192a5.858,5.858,0,0,0,1.78,3.352,5.479,5.479,0,0,0,3.285,1.155A6.4,6.4,0,0,0,23.556,28.1a.929.929,0,0,1,.947-.555,1.019,1.019,0,0,1,.828.779,3.438,3.438,0,0,0,2.1,2.559,6.679,6.679,0,0,0,3.928.291,7.865,7.865,0,0,0,3.78-1.892,4.861,4.861,0,0,0,1.618-3.517c-7.812-3.673-2.459-12.989,2.689-9.852l-.2,1.022c-3.989-2.743-8.95,5.752-1.439,7.91,3.325.5,5.448-.566,6.841-2.4a11.04,11.04,0,0,0,1.83-7.24A12.134,12.134,0,0,0,43.84,8.139a5.568,5.568,0,0,0-6.147-1.78A1.015,1.015,0,0,1,36.5,5.511a5.648,5.648,0,0,0-2.324-4.02A8.243,8.243,0,0,0,29.64.007Z" transform="translate(1.491 0.986)" fill="#04192e"/></g><g transform="translate(-240.315 144) rotate(15.009)"><path d="M0,14.66c2.5,3.111,5.847,3.823,7.45,2.424s2.811-4.961,6.789-3.529c-1.9-5.113,3.476-11.207,8.845-8.488C24.416-1.81,37.819-1.992,38.863,6.4c11.912-3.372,14.614,22.576.271,20.407-.121,6.8-11.824,9.18-13.283,2.707-2.3,5.3-11.775,5.9-12.864-1.329C6.653,31.023.9,22.853,0,14.66Z" fill="#fff"/><path d="M29.64.007A8.715,8.715,0,0,0,25,1.077a4.76,4.76,0,0,0-2.442,3.231c-2.9,11.447,10.445,9.331,7.233,2.107l1.156-.649c3.948,9.4-12.043,11.435-9.7-.8C16.623,2.621,12.1,7.98,13.679,12.239a1.03,1.03,0,0,1-.187,1.03.915.915,0,0,1-.973.238,2.859,2.859,0,0,0-3.382.526c-.842.744-1.5,1.955-2.507,2.832a4.448,4.448,0,0,1-4.236.664A8.083,8.083,0,0,1,0,16.333a18.822,18.822,0,0,0,3.7,7.591c2.169,2.511,4.667,3.618,7.451,2.372-.944-5.983,7.759-8.73,8.624-1.476l-1.085.062c-.842-5.6-7.637-3.522-6.221,2.192a5.858,5.858,0,0,0,1.78,3.352,5.479,5.479,0,0,0,3.285,1.155A6.4,6.4,0,0,0,23.556,28.1a.929.929,0,0,1,.947-.555,1.019,1.019,0,0,1,.828.779,3.438,3.438,0,0,0,2.1,2.559,6.679,6.679,0,0,0,3.928.291,7.865,7.865,0,0,0,3.78-1.892,4.861,4.861,0,0,0,1.618-3.517c-7.812-3.673-2.459-12.989,2.689-9.852l-.2,1.022c-3.989-2.743-8.95,5.752-1.439,7.91,3.325.5,5.448-.566,6.841-2.4a11.04,11.04,0,0,0,1.83-7.24A12.134,12.134,0,0,0,43.84,8.139a5.568,5.568,0,0,0-6.147-1.78A1.015,1.015,0,0,1,36.5,5.511a5.648,5.648,0,0,0-2.324-4.02A8.243,8.243,0,0,0,29.64.007Z" transform="translate(1.491 0.986)" fill="#04192e"/></g><g transform="translate(-240.315 288) rotate(15.009)"><path d="M0,14.66c2.5,3.111,5.847,3.823,7.45,2.424s2.811-4.961,6.789-3.529c-1.9-5.113,3.476-11.207,8.845-8.488C24.416-1.81,37.819-1.992,38.863,6.4c11.912-3.372,14.614,22.576.271,20.407-.121,6.8-11.824,9.18-13.283,2.707-2.3,5.3-11.775,5.9-12.864-1.329C6.653,31.023.9,22.853,0,14.66Z" fill="#fff"/><path d="M29.64.007A8.715,8.715,0,0,0,25,1.077a4.76,4.76,0,0,0-2.442,3.231c-2.9,11.447,10.445,9.331,7.233,2.107l1.156-.649c3.948,9.4-12.043,11.435-9.7-.8C16.623,2.621,12.1,7.98,13.679,12.239a1.03,1.03,0,0,1-.187,1.03.915.915,0,0,1-.973.238,2.859,2.859,0,0,0-3.382.526c-.842.744-1.5,1.955-2.507,2.832a4.448,4.448,0,0,1-4.236.664A8.083,8.083,0,0,1,0,16.333a18.822,18.822,0,0,0,3.7,7.591c2.169,2.511,4.667,3.618,7.451,2.372-.944-5.983,7.759-8.73,8.624-1.476l-1.085.062c-.842-5.6-7.637-3.522-6.221,2.192a5.858,5.858,0,0,0,1.78,3.352,5.479,5.479,0,0,0,3.285,1.155A6.4,6.4,0,0,0,23.556,28.1a.929.929,0,0,1,.947-.555,1.019,1.019,0,0,1,.828.779,3.438,3.438,0,0,0,2.1,2.559,6.679,6.679,0,0,0,3.928.291,7.865,7.865,0,0,0,3.78-1.892,4.861,4.861,0,0,0,1.618-3.517c-7.812-3.673-2.459-12.989,2.689-9.852l-.2,1.022c-3.989-2.743-8.95,5.752-1.439,7.91,3.325.5,5.448-.566,6.841-2.4a11.04,11.04,0,0,0,1.83-7.24A12.134,12.134,0,0,0,43.84,8.139a5.568,5.568,0,0,0-6.147-1.78A1.015,1.015,0,0,1,36.5,5.511a5.648,5.648,0,0,0-2.324-4.02A8.243,8.243,0,0,0,29.64.007Z" transform="translate(1.491 0.986)" fill="#04192e"/></g><g transform="translate(-240.315 432) rotate(15.009)"><path d="M0,14.66c2.5,3.111,5.847,3.823,7.45,2.424s2.811-4.961,6.789-3.529c-1.9-5.113,3.476-11.207,8.845-8.488C24.416-1.81,37.819-1.992,38.863,6.4c11.912-3.372,14.614,22.576.271,20.407-.121,6.8-11.824,9.18-13.283,2.707-2.3,5.3-11.775,5.9-12.864-1.329C6.653,31.023.9,22.853,0,14.66Z" fill="#fff"/><path d="M29.64.007A8.715,8.715,0,0,0,25,1.077a4.76,4.76,0,0,0-2.442,3.231c-2.9,11.447,10.445,9.331,7.233,2.107l1.156-.649c3.948,9.4-12.043,11.435-9.7-.8C16.623,2.621,12.1,7.98,13.679,12.239a1.03,1.03,0,0,1-.187,1.03.915.915,0,0,1-.973.238,2.859,2.859,0,0,0-3.382.526c-.842.744-1.5,1.955-2.507,2.832a4.448,4.448,0,0,1-4.236.664A8.083,8.083,0,0,1,0,16.333a18.822,18.822,0,0,0,3.7,7.591c2.169,2.511,4.667,3.618,7.451,2.372-.944-5.983,7.759-8.73,8.624-1.476l-1.085.062c-.842-5.6-7.637-3.522-6.221,2.192a5.858,5.858,0,0,0,1.78,3.352,5.479,5.479,0,0,0,3.285,1.155A6.4,6.4,0,0,0,23.556,28.1a.929.929,0,0,1,.947-.555,1.019,1.019,0,0,1,.828.779,3.438,3.438,0,0,0,2.1,2.559,6.679,6.679,0,0,0,3.928.291,7.865,7.865,0,0,0,3.78-1.892,4.861,4.861,0,0,0,1.618-3.517c-7.812-3.673-2.459-12.989,2.689-9.852l-.2,1.022c-3.989-2.743-8.95,5.752-1.439,7.91,3.325.5,5.448-.566,6.841-2.4a11.04,11.04,0,0,0,1.83-7.24A12.134,12.134,0,0,0,43.84,8.139a5.568,5.568,0,0,0-6.147-1.78A1.015,1.015,0,0,1,36.5,5.511a5.648,5.648,0,0,0-2.324-4.02A8.243,8.243,0,0,0,29.64.007Z" transform="translate(1.491 0.986)" fill="#04192e"/></g><g transform="translate(-240.315 576) rotate(15.009)"><path d="M0,14.66c2.5,3.111,5.847,3.823,7.45,2.424s2.811-4.961,6.789-3.529c-1.9-5.113,3.476-11.207,8.845-8.488C24.416-1.81,37.819-1.992,38.863,6.4c11.912-3.372,14.614,22.576.271,20.407-.121,6.8-11.824,9.18-13.283,2.707-2.3,5.3-11.775,5.9-12.864-1.329C6.653,31.023.9,22.853,0,14.66Z" fill="#fff"/><path d="M29.64.007A8.715,8.715,0,0,0,25,1.077a4.76,4.76,0,0,0-2.442,3.231c-2.9,11.447,10.445,9.331,7.233,2.107l1.156-.649c3.948,9.4-12.043,11.435-9.7-.8C16.623,2.621,12.1,7.98,13.679,12.239a1.03,1.03,0,0,1-.187,1.03.915.915,0,0,1-.973.238,2.859,2.859,0,0,0-3.382.526c-.842.744-1.5,1.955-2.507,2.832a4.448,4.448,0,0,1-4.236.664A8.083,8.083,0,0,1,0,16.333a18.822,18.822,0,0,0,3.7,7.591c2.169,2.511,4.667,3.618,7.451,2.372-.944-5.983,7.759-8.73,8.624-1.476l-1.085.062c-.842-5.6-7.637-3.522-6.221,2.192a5.858,5.858,0,0,0,1.78,3.352,5.479,5.479,0,0,0,3.285,1.155A6.4,6.4,0,0,0,23.556,28.1a.929.929,0,0,1,.947-.555,1.019,1.019,0,0,1,.828.779,3.438,3.438,0,0,0,2.1,2.559,6.679,6.679,0,0,0,3.928.291,7.865,7.865,0,0,0,3.78-1.892,4.861,4.861,0,0,0,1.618-3.517c-7.812-3.673-2.459-12.989,2.689-9.852l-.2,1.022c-3.989-2.743-8.95,5.752-1.439,7.91,3.325.5,5.448-.566,6.841-2.4a11.04,11.04,0,0,0,1.83-7.24A12.134,12.134,0,0,0,43.84,8.139a5.568,5.568,0,0,0-6.147-1.78A1.015,1.015,0,0,1,36.5,5.511a5.648,5.648,0,0,0-2.324-4.02A8.243,8.243,0,0,0,29.64.007Z" transform="translate(1.491 0.986)" fill="#04192e"/></g><g transform="translate(-406.315 144) rotate(15.009)"><path d="M0,14.66c2.5,3.111,5.847,3.823,7.45,2.424s2.811-4.961,6.789-3.529c-1.9-5.113,3.476-11.207,8.845-8.488C24.416-1.81,37.819-1.992,38.863,6.4c11.912-3.372,14.614,22.576.271,20.407-.121,6.8-11.824,9.18-13.283,2.707-2.3,5.3-11.775,5.9-12.864-1.329C6.653,31.023.9,22.853,0,14.66Z" fill="#fff"/><path d="M29.64.007A8.715,8.715,0,0,0,25,1.077a4.76,4.76,0,0,0-2.442,3.231c-2.9,11.447,10.445,9.331,7.233,2.107l1.156-.649c3.948,9.4-12.043,11.435-9.7-.8C16.623,2.621,12.1,7.98,13.679,12.239a1.03,1.03,0,0,1-.187,1.03.915.915,0,0,1-.973.238,2.859,2.859,0,0,0-3.382.526c-.842.744-1.5,1.955-2.507,2.832a4.448,4.448,0,0,1-4.236.664A8.083,8.083,0,0,1,0,16.333a18.822,18.822,0,0,0,3.7,7.591c2.169,2.511,4.667,3.618,7.451,2.372-.944-5.983,7.759-8.73,8.624-1.476l-1.085.062c-.842-5.6-7.637-3.522-6.221,2.192a5.858,5.858,0,0,0,1.78,3.352,5.479,5.479,0,0,0,3.285,1.155A6.4,6.4,0,0,0,23.556,28.1a.929.929,0,0,1,.947-.555,1.019,1.019,0,0,1,.828.779,3.438,3.438,0,0,0,2.1,2.559,6.679,6.679,0,0,0,3.928.291,7.865,7.865,0,0,0,3.78-1.892,4.861,4.861,0,0,0,1.618-3.517c-7.812-3.673-2.459-12.989,2.689-9.852l-.2,1.022c-3.989-2.743-8.95,5.752-1.439,7.91,3.325.5,5.448-.566,6.841-2.4a11.04,11.04,0,0,0,1.83-7.24A12.134,12.134,0,0,0,43.84,8.139a5.568,5.568,0,0,0-6.147-1.78A1.015,1.015,0,0,1,36.5,5.511a5.648,5.648,0,0,0-2.324-4.02A8.243,8.243,0,0,0,29.64.007Z" transform="translate(1.491 0.986)" fill="#04192e"/></g><g transform="translate(-406.315 288) rotate(15.009)"><path d="M0,14.66c2.5,3.111,5.847,3.823,7.45,2.424s2.811-4.961,6.789-3.529c-1.9-5.113,3.476-11.207,8.845-8.488C24.416-1.81,37.819-1.992,38.863,6.4c11.912-3.372,14.614,22.576.271,20.407-.121,6.8-11.824,9.18-13.283,2.707-2.3,5.3-11.775,5.9-12.864-1.329C6.653,31.023.9,22.853,0,14.66Z" fill="#fff"/><path d="M29.64.007A8.715,8.715,0,0,0,25,1.077a4.76,4.76,0,0,0-2.442,3.231c-2.9,11.447,10.445,9.331,7.233,2.107l1.156-.649c3.948,9.4-12.043,11.435-9.7-.8C16.623,2.621,12.1,7.98,13.679,12.239a1.03,1.03,0,0,1-.187,1.03.915.915,0,0,1-.973.238,2.859,2.859,0,0,0-3.382.526c-.842.744-1.5,1.955-2.507,2.832a4.448,4.448,0,0,1-4.236.664A8.083,8.083,0,0,1,0,16.333a18.822,18.822,0,0,0,3.7,7.591c2.169,2.511,4.667,3.618,7.451,2.372-.944-5.983,7.759-8.73,8.624-1.476l-1.085.062c-.842-5.6-7.637-3.522-6.221,2.192a5.858,5.858,0,0,0,1.78,3.352,5.479,5.479,0,0,0,3.285,1.155A6.4,6.4,0,0,0,23.556,28.1a.929.929,0,0,1,.947-.555,1.019,1.019,0,0,1,.828.779,3.438,3.438,0,0,0,2.1,2.559,6.679,6.679,0,0,0,3.928.291,7.865,7.865,0,0,0,3.78-1.892,4.861,4.861,0,0,0,1.618-3.517c-7.812-3.673-2.459-12.989,2.689-9.852l-.2,1.022c-3.989-2.743-8.95,5.752-1.439,7.91,3.325.5,5.448-.566,6.841-2.4a11.04,11.04,0,0,0,1.83-7.24A12.134,12.134,0,0,0,43.84,8.139a5.568,5.568,0,0,0-6.147-1.78A1.015,1.015,0,0,1,36.5,5.511a5.648,5.648,0,0,0-2.324-4.02A8.243,8.243,0,0,0,29.64.007Z" transform="translate(1.491 0.986)" fill="#04192e"/></g><g transform="translate(-406.315 432) rotate(15.009)"><path d="M0,14.66c2.5,3.111,5.847,3.823,7.45,2.424s2.811-4.961,6.789-3.529c-1.9-5.113,3.476-11.207,8.845-8.488C24.416-1.81,37.819-1.992,38.863,6.4c11.912-3.372,14.614,22.576.271,20.407-.121,6.8-11.824,9.18-13.283,2.707-2.3,5.3-11.775,5.9-12.864-1.329C6.653,31.023.9,22.853,0,14.66Z" fill="#fff"/><path d="M29.64.007A8.715,8.715,0,0,0,25,1.077a4.76,4.76,0,0,0-2.442,3.231c-2.9,11.447,10.445,9.331,7.233,2.107l1.156-.649c3.948,9.4-12.043,11.435-9.7-.8C16.623,2.621,12.1,7.98,13.679,12.239a1.03,1.03,0,0,1-.187,1.03.915.915,0,0,1-.973.238,2.859,2.859,0,0,0-3.382.526c-.842.744-1.5,1.955-2.507,2.832a4.448,4.448,0,0,1-4.236.664A8.083,8.083,0,0,1,0,16.333a18.822,18.822,0,0,0,3.7,7.591c2.169,2.511,4.667,3.618,7.451,2.372-.944-5.983,7.759-8.73,8.624-1.476l-1.085.062c-.842-5.6-7.637-3.522-6.221,2.192a5.858,5.858,0,0,0,1.78,3.352,5.479,5.479,0,0,0,3.285,1.155A6.4,6.4,0,0,0,23.556,28.1a.929.929,0,0,1,.947-.555,1.019,1.019,0,0,1,.828.779,3.438,3.438,0,0,0,2.1,2.559,6.679,6.679,0,0,0,3.928.291,7.865,7.865,0,0,0,3.78-1.892,4.861,4.861,0,0,0,1.618-3.517c-7.812-3.673-2.459-12.989,2.689-9.852l-.2,1.022c-3.989-2.743-8.95,5.752-1.439,7.91,3.325.5,5.448-.566,6.841-2.4a11.04,11.04,0,0,0,1.83-7.24A12.134,12.134,0,0,0,43.84,8.139a5.568,5.568,0,0,0-6.147-1.78A1.015,1.015,0,0,1,36.5,5.511a5.648,5.648,0,0,0-2.324-4.02A8.243,8.243,0,0,0,29.64.007Z" transform="translate(1.491 0.986)" fill="#04192e"/></g><g transform="translate(-406.315 576) rotate(15.009)"><path d="M0,14.66c2.5,3.111,5.847,3.823,7.45,2.424s2.811-4.961,6.789-3.529c-1.9-5.113,3.476-11.207,8.845-8.488C24.416-1.81,37.819-1.992,38.863,6.4c11.912-3.372,14.614,22.576.271,20.407-.121,6.8-11.824,9.18-13.283,2.707-2.3,5.3-11.775,5.9-12.864-1.329C6.653,31.023.9,22.853,0,14.66Z" fill="#fff"/><path d="M29.64.007A8.715,8.715,0,0,0,25,1.077a4.76,4.76,0,0,0-2.442,3.231c-2.9,11.447,10.445,9.331,7.233,2.107l1.156-.649c3.948,9.4-12.043,11.435-9.7-.8C16.623,2.621,12.1,7.98,13.679,12.239a1.03,1.03,0,0,1-.187,1.03.915.915,0,0,1-.973.238,2.859,2.859,0,0,0-3.382.526c-.842.744-1.5,1.955-2.507,2.832a4.448,4.448,0,0,1-4.236.664A8.083,8.083,0,0,1,0,16.333a18.822,18.822,0,0,0,3.7,7.591c2.169,2.511,4.667,3.618,7.451,2.372-.944-5.983,7.759-8.73,8.624-1.476l-1.085.062c-.842-5.6-7.637-3.522-6.221,2.192a5.858,5.858,0,0,0,1.78,3.352,5.479,5.479,0,0,0,3.285,1.155A6.4,6.4,0,0,0,23.556,28.1a.929.929,0,0,1,.947-.555,1.019,1.019,0,0,1,.828.779,3.438,3.438,0,0,0,2.1,2.559,6.679,6.679,0,0,0,3.928.291,7.865,7.865,0,0,0,3.78-1.892,4.861,4.861,0,0,0,1.618-3.517c-7.812-3.673-2.459-12.989,2.689-9.852l-.2,1.022c-3.989-2.743-8.95,5.752-1.439,7.91,3.325.5,5.448-.566,6.841-2.4a11.04,11.04,0,0,0,1.83-7.24A12.134,12.134,0,0,0,43.84,8.139a5.568,5.568,0,0,0-6.147-1.78A1.015,1.015,0,0,1,36.5,5.511a5.648,5.648,0,0,0-2.324-4.02A8.243,8.243,0,0,0,29.64.007Z" transform="translate(1.491 0.986)" fill="#04192e"/></g><g transform="translate(8.685 72) rotate(15.009)"><path d="M0,14.66c2.5,3.111,5.847,3.823,7.45,2.424s2.811-4.961,6.789-3.529c-1.9-5.113,3.476-11.207,8.845-8.488C24.416-1.81,37.819-1.992,38.863,6.4c11.912-3.372,14.614,22.576.271,20.407-.121,6.8-11.824,9.18-13.283,2.707-2.3,5.3-11.775,5.9-12.864-1.329C6.653,31.023.9,22.853,0,14.66Z" fill="#fff"/><path d="M29.64.007A8.715,8.715,0,0,0,25,1.077a4.76,4.76,0,0,0-2.442,3.231c-2.9,11.447,10.445,9.331,7.233,2.107l1.156-.649c3.948,9.4-12.043,11.435-9.7-.8C16.623,2.621,12.1,7.98,13.679,12.239a1.03,1.03,0,0,1-.187,1.03.915.915,0,0,1-.973.238,2.859,2.859,0,0,0-3.382.526c-.842.744-1.5,1.955-2.507,2.832a4.448,4.448,0,0,1-4.236.664A8.083,8.083,0,0,1,0,16.333a18.822,18.822,0,0,0,3.7,7.591c2.169,2.511,4.667,3.618,7.451,2.372-.944-5.983,7.759-8.73,8.624-1.476l-1.085.062c-.842-5.6-7.637-3.522-6.221,2.192a5.858,5.858,0,0,0,1.78,3.352,5.479,5.479,0,0,0,3.285,1.155A6.4,6.4,0,0,0,23.556,28.1a.929.929,0,0,1,.947-.555,1.019,1.019,0,0,1,.828.779,3.438,3.438,0,0,0,2.1,2.559,6.679,6.679,0,0,0,3.928.291,7.865,7.865,0,0,0,3.78-1.892,4.861,4.861,0,0,0,1.618-3.517c-7.812-3.673-2.459-12.989,2.689-9.852l-.2,1.022c-3.989-2.743-8.95,5.752-1.439,7.91,3.325.5,5.448-.566,6.841-2.4a11.04,11.04,0,0,0,1.83-7.24A12.134,12.134,0,0,0,43.84,8.139a5.568,5.568,0,0,0-6.147-1.78A1.015,1.015,0,0,1,36.5,5.511a5.648,5.648,0,0,0-2.324-4.02A8.243,8.243,0,0,0,29.64.007Z" transform="translate(1.491 0.986)" fill="#04192e"/></g><g transform="translate(8.685 216) rotate(15.009)"><path d="M0,14.66c2.5,3.111,5.847,3.823,7.45,2.424s2.811-4.961,6.789-3.529c-1.9-5.113,3.476-11.207,8.845-8.488C24.416-1.81,37.819-1.992,38.863,6.4c11.912-3.372,14.614,22.576.271,20.407-.121,6.8-11.824,9.18-13.283,2.707-2.3,5.3-11.775,5.9-12.864-1.329C6.653,31.023.9,22.853,0,14.66Z" fill="#fff"/><path d="M29.64.007A8.715,8.715,0,0,0,25,1.077a4.76,4.76,0,0,0-2.442,3.231c-2.9,11.447,10.445,9.331,7.233,2.107l1.156-.649c3.948,9.4-12.043,11.435-9.7-.8C16.623,2.621,12.1,7.98,13.679,12.239a1.03,1.03,0,0,1-.187,1.03.915.915,0,0,1-.973.238,2.859,2.859,0,0,0-3.382.526c-.842.744-1.5,1.955-2.507,2.832a4.448,4.448,0,0,1-4.236.664A8.083,8.083,0,0,1,0,16.333a18.822,18.822,0,0,0,3.7,7.591c2.169,2.511,4.667,3.618,7.451,2.372-.944-5.983,7.759-8.73,8.624-1.476l-1.085.062c-.842-5.6-7.637-3.522-6.221,2.192a5.858,5.858,0,0,0,1.78,3.352,5.479,5.479,0,0,0,3.285,1.155A6.4,6.4,0,0,0,23.556,28.1a.929.929,0,0,1,.947-.555,1.019,1.019,0,0,1,.828.779,3.438,3.438,0,0,0,2.1,2.559,6.679,6.679,0,0,0,3.928.291,7.865,7.865,0,0,0,3.78-1.892,4.861,4.861,0,0,0,1.618-3.517c-7.812-3.673-2.459-12.989,2.689-9.852l-.2,1.022c-3.989-2.743-8.95,5.752-1.439,7.91,3.325.5,5.448-.566,6.841-2.4a11.04,11.04,0,0,0,1.83-7.24A12.134,12.134,0,0,0,43.84,8.139a5.568,5.568,0,0,0-6.147-1.78A1.015,1.015,0,0,1,36.5,5.511a5.648,5.648,0,0,0-2.324-4.02A8.243,8.243,0,0,0,29.64.007Z" transform="translate(1.491 0.986)" fill="#04192e"/></g><g transform="translate(8.685 360) rotate(15.009)"><path d="M0,14.66c2.5,3.111,5.847,3.823,7.45,2.424s2.811-4.961,6.789-3.529c-1.9-5.113,3.476-11.207,8.845-8.488C24.416-1.81,37.819-1.992,38.863,6.4c11.912-3.372,14.614,22.576.271,20.407-.121,6.8-11.824,9.18-13.283,2.707-2.3,5.3-11.775,5.9-12.864-1.329C6.653,31.023.9,22.853,0,14.66Z" fill="#fff"/><path d="M29.64.007A8.715,8.715,0,0,0,25,1.077a4.76,4.76,0,0,0-2.442,3.231c-2.9,11.447,10.445,9.331,7.233,2.107l1.156-.649c3.948,9.4-12.043,11.435-9.7-.8C16.623,2.621,12.1,7.98,13.679,12.239a1.03,1.03,0,0,1-.187,1.03.915.915,0,0,1-.973.238,2.859,2.859,0,0,0-3.382.526c-.842.744-1.5,1.955-2.507,2.832a4.448,4.448,0,0,1-4.236.664A8.083,8.083,0,0,1,0,16.333a18.822,18.822,0,0,0,3.7,7.591c2.169,2.511,4.667,3.618,7.451,2.372-.944-5.983,7.759-8.73,8.624-1.476l-1.085.062c-.842-5.6-7.637-3.522-6.221,2.192a5.858,5.858,0,0,0,1.78,3.352,5.479,5.479,0,0,0,3.285,1.155A6.4,6.4,0,0,0,23.556,28.1a.929.929,0,0,1,.947-.555,1.019,1.019,0,0,1,.828.779,3.438,3.438,0,0,0,2.1,2.559,6.679,6.679,0,0,0,3.928.291,7.865,7.865,0,0,0,3.78-1.892,4.861,4.861,0,0,0,1.618-3.517c-7.812-3.673-2.459-12.989,2.689-9.852l-.2,1.022c-3.989-2.743-8.95,5.752-1.439,7.91,3.325.5,5.448-.566,6.841-2.4a11.04,11.04,0,0,0,1.83-7.24A12.134,12.134,0,0,0,43.84,8.139a5.568,5.568,0,0,0-6.147-1.78A1.015,1.015,0,0,1,36.5,5.511a5.648,5.648,0,0,0-2.324-4.02A8.243,8.243,0,0,0,29.64.007Z" transform="translate(1.491 0.986)" fill="#04192e"/></g><g transform="translate(8.685 504) rotate(15.009)"><path d="M0,14.66c2.5,3.111,5.847,3.823,7.45,2.424s2.811-4.961,6.789-3.529c-1.9-5.113,3.476-11.207,8.845-8.488C24.416-1.81,37.819-1.992,38.863,6.4c11.912-3.372,14.614,22.576.271,20.407-.121,6.8-11.824,9.18-13.283,2.707-2.3,5.3-11.775,5.9-12.864-1.329C6.653,31.023.9,22.853,0,14.66Z" fill="#fff"/><path d="M29.64.007A8.715,8.715,0,0,0,25,1.077a4.76,4.76,0,0,0-2.442,3.231c-2.9,11.447,10.445,9.331,7.233,2.107l1.156-.649c3.948,9.4-12.043,11.435-9.7-.8C16.623,2.621,12.1,7.98,13.679,12.239a1.03,1.03,0,0,1-.187,1.03.915.915,0,0,1-.973.238,2.859,2.859,0,0,0-3.382.526c-.842.744-1.5,1.955-2.507,2.832a4.448,4.448,0,0,1-4.236.664A8.083,8.083,0,0,1,0,16.333a18.822,18.822,0,0,0,3.7,7.591c2.169,2.511,4.667,3.618,7.451,2.372-.944-5.983,7.759-8.73,8.624-1.476l-1.085.062c-.842-5.6-7.637-3.522-6.221,2.192a5.858,5.858,0,0,0,1.78,3.352,5.479,5.479,0,0,0,3.285,1.155A6.4,6.4,0,0,0,23.556,28.1a.929.929,0,0,1,.947-.555,1.019,1.019,0,0,1,.828.779,3.438,3.438,0,0,0,2.1,2.559,6.679,6.679,0,0,0,3.928.291,7.865,7.865,0,0,0,3.78-1.892,4.861,4.861,0,0,0,1.618-3.517c-7.812-3.673-2.459-12.989,2.689-9.852l-.2,1.022c-3.989-2.743-8.95,5.752-1.439,7.91,3.325.5,5.448-.566,6.841-2.4a11.04,11.04,0,0,0,1.83-7.24A12.134,12.134,0,0,0,43.84,8.139a5.568,5.568,0,0,0-6.147-1.78A1.015,1.015,0,0,1,36.5,5.511a5.648,5.648,0,0,0-2.324-4.02A8.243,8.243,0,0,0,29.64.007Z" transform="translate(1.491 0.986)" fill="#04192e"/></g><g transform="translate(8.685 648) rotate(15.009)"><path d="M0,14.66c2.5,3.111,5.847,3.823,7.45,2.424s2.811-4.961,6.789-3.529c-1.9-5.113,3.476-11.207,8.845-8.488C24.416-1.81,37.819-1.992,38.863,6.4c11.912-3.372,14.614,22.576.271,20.407-.121,6.8-11.824,9.18-13.283,2.707-2.3,5.3-11.775,5.9-12.864-1.329C6.653,31.023.9,22.853,0,14.66Z" fill="#fff"/><path d="M29.64.007A8.715,8.715,0,0,0,25,1.077a4.76,4.76,0,0,0-2.442,3.231c-2.9,11.447,10.445,9.331,7.233,2.107l1.156-.649c3.948,9.4-12.043,11.435-9.7-.8C16.623,2.621,12.1,7.98,13.679,12.239a1.03,1.03,0,0,1-.187,1.03.915.915,0,0,1-.973.238,2.859,2.859,0,0,0-3.382.526c-.842.744-1.5,1.955-2.507,2.832a4.448,4.448,0,0,1-4.236.664A8.083,8.083,0,0,1,0,16.333a18.822,18.822,0,0,0,3.7,7.591c2.169,2.511,4.667,3.618,7.451,2.372-.944-5.983,7.759-8.73,8.624-1.476l-1.085.062c-.842-5.6-7.637-3.522-6.221,2.192a5.858,5.858,0,0,0,1.78,3.352,5.479,5.479,0,0,0,3.285,1.155A6.4,6.4,0,0,0,23.556,28.1a.929.929,0,0,1,.947-.555,1.019,1.019,0,0,1,.828.779,3.438,3.438,0,0,0,2.1,2.559,6.679,6.679,0,0,0,3.928.291,7.865,7.865,0,0,0,3.78-1.892,4.861,4.861,0,0,0,1.618-3.517c-7.812-3.673-2.459-12.989,2.689-9.852l-.2,1.022c-3.989-2.743-8.95,5.752-1.439,7.91,3.325.5,5.448-.566,6.841-2.4a11.04,11.04,0,0,0,1.83-7.24A12.134,12.134,0,0,0,43.84,8.139a5.568,5.568,0,0,0-6.147-1.78A1.015,1.015,0,0,1,36.5,5.511a5.648,5.648,0,0,0-2.324-4.02A8.243,8.243,0,0,0,29.64.007Z" transform="translate(1.491 0.986)" fill="#04192e"/></g><g transform="translate(-157.315 72) rotate(15.009)"><path d="M0,14.66c2.5,3.111,5.847,3.823,7.45,2.424s2.811-4.961,6.789-3.529c-1.9-5.113,3.476-11.207,8.845-8.488C24.416-1.81,37.819-1.992,38.863,6.4c11.912-3.372,14.614,22.576.271,20.407-.121,6.8-11.824,9.18-13.283,2.707-2.3,5.3-11.775,5.9-12.864-1.329C6.653,31.023.9,22.853,0,14.66Z" fill="#fff"/><path d="M29.64.007A8.715,8.715,0,0,0,25,1.077a4.76,4.76,0,0,0-2.442,3.231c-2.9,11.447,10.445,9.331,7.233,2.107l1.156-.649c3.948,9.4-12.043,11.435-9.7-.8C16.623,2.621,12.1,7.98,13.679,12.239a1.03,1.03,0,0,1-.187,1.03.915.915,0,0,1-.973.238,2.859,2.859,0,0,0-3.382.526c-.842.744-1.5,1.955-2.507,2.832a4.448,4.448,0,0,1-4.236.664A8.083,8.083,0,0,1,0,16.333a18.822,18.822,0,0,0,3.7,7.591c2.169,2.511,4.667,3.618,7.451,2.372-.944-5.983,7.759-8.73,8.624-1.476l-1.085.062c-.842-5.6-7.637-3.522-6.221,2.192a5.858,5.858,0,0,0,1.78,3.352,5.479,5.479,0,0,0,3.285,1.155A6.4,6.4,0,0,0,23.556,28.1a.929.929,0,0,1,.947-.555,1.019,1.019,0,0,1,.828.779,3.438,3.438,0,0,0,2.1,2.559,6.679,6.679,0,0,0,3.928.291,7.865,7.865,0,0,0,3.78-1.892,4.861,4.861,0,0,0,1.618-3.517c-7.812-3.673-2.459-12.989,2.689-9.852l-.2,1.022c-3.989-2.743-8.95,5.752-1.439,7.91,3.325.5,5.448-.566,6.841-2.4a11.04,11.04,0,0,0,1.83-7.24A12.134,12.134,0,0,0,43.84,8.139a5.568,5.568,0,0,0-6.147-1.78A1.015,1.015,0,0,1,36.5,5.511a5.648,5.648,0,0,0-2.324-4.02A8.243,8.243,0,0,0,29.64.007Z" transform="translate(1.491 0.986)" fill="#04192e"/></g><g transform="translate(-157.315 216) rotate(15.009)"><path d="M0,14.66c2.5,3.111,5.847,3.823,7.45,2.424s2.811-4.961,6.789-3.529c-1.9-5.113,3.476-11.207,8.845-8.488C24.416-1.81,37.819-1.992,38.863,6.4c11.912-3.372,14.614,22.576.271,20.407-.121,6.8-11.824,9.18-13.283,2.707-2.3,5.3-11.775,5.9-12.864-1.329C6.653,31.023.9,22.853,0,14.66Z" fill="#fff"/><path d="M29.64.007A8.715,8.715,0,0,0,25,1.077a4.76,4.76,0,0,0-2.442,3.231c-2.9,11.447,10.445,9.331,7.233,2.107l1.156-.649c3.948,9.4-12.043,11.435-9.7-.8C16.623,2.621,12.1,7.98,13.679,12.239a1.03,1.03,0,0,1-.187,1.03.915.915,0,0,1-.973.238,2.859,2.859,0,0,0-3.382.526c-.842.744-1.5,1.955-2.507,2.832a4.448,4.448,0,0,1-4.236.664A8.083,8.083,0,0,1,0,16.333a18.822,18.822,0,0,0,3.7,7.591c2.169,2.511,4.667,3.618,7.451,2.372-.944-5.983,7.759-8.73,8.624-1.476l-1.085.062c-.842-5.6-7.637-3.522-6.221,2.192a5.858,5.858,0,0,0,1.78,3.352,5.479,5.479,0,0,0,3.285,1.155A6.4,6.4,0,0,0,23.556,28.1a.929.929,0,0,1,.947-.555,1.019,1.019,0,0,1,.828.779,3.438,3.438,0,0,0,2.1,2.559,6.679,6.679,0,0,0,3.928.291,7.865,7.865,0,0,0,3.78-1.892,4.861,4.861,0,0,0,1.618-3.517c-7.812-3.673-2.459-12.989,2.689-9.852l-.2,1.022c-3.989-2.743-8.95,5.752-1.439,7.91,3.325.5,5.448-.566,6.841-2.4a11.04,11.04,0,0,0,1.83-7.24A12.134,12.134,0,0,0,43.84,8.139a5.568,5.568,0,0,0-6.147-1.78A1.015,1.015,0,0,1,36.5,5.511a5.648,5.648,0,0,0-2.324-4.02A8.243,8.243,0,0,0,29.64.007Z" transform="translate(1.491 0.986)" fill="#04192e"/></g><g transform="translate(-157.315 360) rotate(15.009)"><path d="M0,14.66c2.5,3.111,5.847,3.823,7.45,2.424s2.811-4.961,6.789-3.529c-1.9-5.113,3.476-11.207,8.845-8.488C24.416-1.81,37.819-1.992,38.863,6.4c11.912-3.372,14.614,22.576.271,20.407-.121,6.8-11.824,9.18-13.283,2.707-2.3,5.3-11.775,5.9-12.864-1.329C6.653,31.023.9,22.853,0,14.66Z" fill="#fff"/><path d="M29.64.007A8.715,8.715,0,0,0,25,1.077a4.76,4.76,0,0,0-2.442,3.231c-2.9,11.447,10.445,9.331,7.233,2.107l1.156-.649c3.948,9.4-12.043,11.435-9.7-.8C16.623,2.621,12.1,7.98,13.679,12.239a1.03,1.03,0,0,1-.187,1.03.915.915,0,0,1-.973.238,2.859,2.859,0,0,0-3.382.526c-.842.744-1.5,1.955-2.507,2.832a4.448,4.448,0,0,1-4.236.664A8.083,8.083,0,0,1,0,16.333a18.822,18.822,0,0,0,3.7,7.591c2.169,2.511,4.667,3.618,7.451,2.372-.944-5.983,7.759-8.73,8.624-1.476l-1.085.062c-.842-5.6-7.637-3.522-6.221,2.192a5.858,5.858,0,0,0,1.78,3.352,5.479,5.479,0,0,0,3.285,1.155A6.4,6.4,0,0,0,23.556,28.1a.929.929,0,0,1,.947-.555,1.019,1.019,0,0,1,.828.779,3.438,3.438,0,0,0,2.1,2.559,6.679,6.679,0,0,0,3.928.291,7.865,7.865,0,0,0,3.78-1.892,4.861,4.861,0,0,0,1.618-3.517c-7.812-3.673-2.459-12.989,2.689-9.852l-.2,1.022c-3.989-2.743-8.95,5.752-1.439,7.91,3.325.5,5.448-.566,6.841-2.4a11.04,11.04,0,0,0,1.83-7.24A12.134,12.134,0,0,0,43.84,8.139a5.568,5.568,0,0,0-6.147-1.78A1.015,1.015,0,0,1,36.5,5.511a5.648,5.648,0,0,0-2.324-4.02A8.243,8.243,0,0,0,29.64.007Z" transform="translate(1.491 0.986)" fill="#04192e"/></g><g transform="translate(-157.315 504) rotate(15.009)"><path d="M0,14.66c2.5,3.111,5.847,3.823,7.45,2.424s2.811-4.961,6.789-3.529c-1.9-5.113,3.476-11.207,8.845-8.488C24.416-1.81,37.819-1.992,38.863,6.4c11.912-3.372,14.614,22.576.271,20.407-.121,6.8-11.824,9.18-13.283,2.707-2.3,5.3-11.775,5.9-12.864-1.329C6.653,31.023.9,22.853,0,14.66Z" fill="#fff"/><path d="M29.64.007A8.715,8.715,0,0,0,25,1.077a4.76,4.76,0,0,0-2.442,3.231c-2.9,11.447,10.445,9.331,7.233,2.107l1.156-.649c3.948,9.4-12.043,11.435-9.7-.8C16.623,2.621,12.1,7.98,13.679,12.239a1.03,1.03,0,0,1-.187,1.03.915.915,0,0,1-.973.238,2.859,2.859,0,0,0-3.382.526c-.842.744-1.5,1.955-2.507,2.832a4.448,4.448,0,0,1-4.236.664A8.083,8.083,0,0,1,0,16.333a18.822,18.822,0,0,0,3.7,7.591c2.169,2.511,4.667,3.618,7.451,2.372-.944-5.983,7.759-8.73,8.624-1.476l-1.085.062c-.842-5.6-7.637-3.522-6.221,2.192a5.858,5.858,0,0,0,1.78,3.352,5.479,5.479,0,0,0,3.285,1.155A6.4,6.4,0,0,0,23.556,28.1a.929.929,0,0,1,.947-.555,1.019,1.019,0,0,1,.828.779,3.438,3.438,0,0,0,2.1,2.559,6.679,6.679,0,0,0,3.928.291,7.865,7.865,0,0,0,3.78-1.892,4.861,4.861,0,0,0,1.618-3.517c-7.812-3.673-2.459-12.989,2.689-9.852l-.2,1.022c-3.989-2.743-8.95,5.752-1.439,7.91,3.325.5,5.448-.566,6.841-2.4a11.04,11.04,0,0,0,1.83-7.24A12.134,12.134,0,0,0,43.84,8.139a5.568,5.568,0,0,0-6.147-1.78A1.015,1.015,0,0,1,36.5,5.511a5.648,5.648,0,0,0-2.324-4.02A8.243,8.243,0,0,0,29.64.007Z" transform="translate(1.491 0.986)" fill="#04192e"/></g><g transform="translate(-157.315 648) rotate(15.009)"><path d="M0,14.66c2.5,3.111,5.847,3.823,7.45,2.424s2.811-4.961,6.789-3.529c-1.9-5.113,3.476-11.207,8.845-8.488C24.416-1.81,37.819-1.992,38.863,6.4c11.912-3.372,14.614,22.576.271,20.407-.121,6.8-11.824,9.18-13.283,2.707-2.3,5.3-11.775,5.9-12.864-1.329C6.653,31.023.9,22.853,0,14.66Z" fill="#fff"/><path d="M29.64.007A8.715,8.715,0,0,0,25,1.077a4.76,4.76,0,0,0-2.442,3.231c-2.9,11.447,10.445,9.331,7.233,2.107l1.156-.649c3.948,9.4-12.043,11.435-9.7-.8C16.623,2.621,12.1,7.98,13.679,12.239a1.03,1.03,0,0,1-.187,1.03.915.915,0,0,1-.973.238,2.859,2.859,0,0,0-3.382.526c-.842.744-1.5,1.955-2.507,2.832a4.448,4.448,0,0,1-4.236.664A8.083,8.083,0,0,1,0,16.333a18.822,18.822,0,0,0,3.7,7.591c2.169,2.511,4.667,3.618,7.451,2.372-.944-5.983,7.759-8.73,8.624-1.476l-1.085.062c-.842-5.6-7.637-3.522-6.221,2.192a5.858,5.858,0,0,0,1.78,3.352,5.479,5.479,0,0,0,3.285,1.155A6.4,6.4,0,0,0,23.556,28.1a.929.929,0,0,1,.947-.555,1.019,1.019,0,0,1,.828.779,3.438,3.438,0,0,0,2.1,2.559,6.679,6.679,0,0,0,3.928.291,7.865,7.865,0,0,0,3.78-1.892,4.861,4.861,0,0,0,1.618-3.517c-7.812-3.673-2.459-12.989,2.689-9.852l-.2,1.022c-3.989-2.743-8.95,5.752-1.439,7.91,3.325.5,5.448-.566,6.841-2.4a11.04,11.04,0,0,0,1.83-7.24A12.134,12.134,0,0,0,43.84,8.139a5.568,5.568,0,0,0-6.147-1.78A1.015,1.015,0,0,1,36.5,5.511a5.648,5.648,0,0,0-2.324-4.02A8.243,8.243,0,0,0,29.64.007Z" transform="translate(1.491 0.986)" fill="#04192e"/></g><g transform="translate(-323.316 72) rotate(15.009)"><path d="M0,14.66c2.5,3.111,5.847,3.823,7.45,2.424s2.811-4.961,6.789-3.529c-1.9-5.113,3.476-11.207,8.845-8.488C24.416-1.81,37.819-1.992,38.863,6.4c11.912-3.372,14.614,22.576.271,20.407-.121,6.8-11.824,9.18-13.283,2.707-2.3,5.3-11.775,5.9-12.864-1.329C6.653,31.023.9,22.853,0,14.66Z" fill="#fff"/><path d="M29.64.007A8.715,8.715,0,0,0,25,1.077a4.76,4.76,0,0,0-2.442,3.231c-2.9,11.447,10.445,9.331,7.233,2.107l1.156-.649c3.948,9.4-12.043,11.435-9.7-.8C16.623,2.621,12.1,7.98,13.679,12.239a1.03,1.03,0,0,1-.187,1.03.915.915,0,0,1-.973.238,2.859,2.859,0,0,0-3.382.526c-.842.744-1.5,1.955-2.507,2.832a4.448,4.448,0,0,1-4.236.664A8.083,8.083,0,0,1,0,16.333a18.822,18.822,0,0,0,3.7,7.591c2.169,2.511,4.667,3.618,7.451,2.372-.944-5.983,7.759-8.73,8.624-1.476l-1.085.062c-.842-5.6-7.637-3.522-6.221,2.192a5.858,5.858,0,0,0,1.78,3.352,5.479,5.479,0,0,0,3.285,1.155A6.4,6.4,0,0,0,23.556,28.1a.929.929,0,0,1,.947-.555,1.019,1.019,0,0,1,.828.779,3.438,3.438,0,0,0,2.1,2.559,6.679,6.679,0,0,0,3.928.291,7.865,7.865,0,0,0,3.78-1.892,4.861,4.861,0,0,0,1.618-3.517c-7.812-3.673-2.459-12.989,2.689-9.852l-.2,1.022c-3.989-2.743-8.95,5.752-1.439,7.91,3.325.5,5.448-.566,6.841-2.4a11.04,11.04,0,0,0,1.83-7.24A12.134,12.134,0,0,0,43.84,8.139a5.568,5.568,0,0,0-6.147-1.78A1.015,1.015,0,0,1,36.5,5.511a5.648,5.648,0,0,0-2.324-4.02A8.243,8.243,0,0,0,29.64.007Z" transform="translate(1.491 0.986)" fill="#04192e"/></g><g transform="translate(-323.316 216) rotate(15.009)"><path d="M0,14.66c2.5,3.111,5.847,3.823,7.45,2.424s2.811-4.961,6.789-3.529c-1.9-5.113,3.476-11.207,8.845-8.488C24.416-1.81,37.819-1.992,38.863,6.4c11.912-3.372,14.614,22.576.271,20.407-.121,6.8-11.824,9.18-13.283,2.707-2.3,5.3-11.775,5.9-12.864-1.329C6.653,31.023.9,22.853,0,14.66Z" fill="#fff"/><path d="M29.64.007A8.715,8.715,0,0,0,25,1.077a4.76,4.76,0,0,0-2.442,3.231c-2.9,11.447,10.445,9.331,7.233,2.107l1.156-.649c3.948,9.4-12.043,11.435-9.7-.8C16.623,2.621,12.1,7.98,13.679,12.239a1.03,1.03,0,0,1-.187,1.03.915.915,0,0,1-.973.238,2.859,2.859,0,0,0-3.382.526c-.842.744-1.5,1.955-2.507,2.832a4.448,4.448,0,0,1-4.236.664A8.083,8.083,0,0,1,0,16.333a18.822,18.822,0,0,0,3.7,7.591c2.169,2.511,4.667,3.618,7.451,2.372-.944-5.983,7.759-8.73,8.624-1.476l-1.085.062c-.842-5.6-7.637-3.522-6.221,2.192a5.858,5.858,0,0,0,1.78,3.352,5.479,5.479,0,0,0,3.285,1.155A6.4,6.4,0,0,0,23.556,28.1a.929.929,0,0,1,.947-.555,1.019,1.019,0,0,1,.828.779,3.438,3.438,0,0,0,2.1,2.559,6.679,6.679,0,0,0,3.928.291,7.865,7.865,0,0,0,3.78-1.892,4.861,4.861,0,0,0,1.618-3.517c-7.812-3.673-2.459-12.989,2.689-9.852l-.2,1.022c-3.989-2.743-8.95,5.752-1.439,7.91,3.325.5,5.448-.566,6.841-2.4a11.04,11.04,0,0,0,1.83-7.24A12.134,12.134,0,0,0,43.84,8.139a5.568,5.568,0,0,0-6.147-1.78A1.015,1.015,0,0,1,36.5,5.511a5.648,5.648,0,0,0-2.324-4.02A8.243,8.243,0,0,0,29.64.007Z" transform="translate(1.491 0.986)" fill="#04192e"/></g><g transform="translate(-323.316 360) rotate(15.009)"><path d="M0,14.66c2.5,3.111,5.847,3.823,7.45,2.424s2.811-4.961,6.789-3.529c-1.9-5.113,3.476-11.207,8.845-8.488C24.416-1.81,37.819-1.992,38.863,6.4c11.912-3.372,14.614,22.576.271,20.407-.121,6.8-11.824,9.18-13.283,2.707-2.3,5.3-11.775,5.9-12.864-1.329C6.653,31.023.9,22.853,0,14.66Z" fill="#fff"/><path d="M29.64.007A8.715,8.715,0,0,0,25,1.077a4.76,4.76,0,0,0-2.442,3.231c-2.9,11.447,10.445,9.331,7.233,2.107l1.156-.649c3.948,9.4-12.043,11.435-9.7-.8C16.623,2.621,12.1,7.98,13.679,12.239a1.03,1.03,0,0,1-.187,1.03.915.915,0,0,1-.973.238,2.859,2.859,0,0,0-3.382.526c-.842.744-1.5,1.955-2.507,2.832a4.448,4.448,0,0,1-4.236.664A8.083,8.083,0,0,1,0,16.333a18.822,18.822,0,0,0,3.7,7.591c2.169,2.511,4.667,3.618,7.451,2.372-.944-5.983,7.759-8.73,8.624-1.476l-1.085.062c-.842-5.6-7.637-3.522-6.221,2.192a5.858,5.858,0,0,0,1.78,3.352,5.479,5.479,0,0,0,3.285,1.155A6.4,6.4,0,0,0,23.556,28.1a.929.929,0,0,1,.947-.555,1.019,1.019,0,0,1,.828.779,3.438,3.438,0,0,0,2.1,2.559,6.679,6.679,0,0,0,3.928.291,7.865,7.865,0,0,0,3.78-1.892,4.861,4.861,0,0,0,1.618-3.517c-7.812-3.673-2.459-12.989,2.689-9.852l-.2,1.022c-3.989-2.743-8.95,5.752-1.439,7.91,3.325.5,5.448-.566,6.841-2.4a11.04,11.04,0,0,0,1.83-7.24A12.134,12.134,0,0,0,43.84,8.139a5.568,5.568,0,0,0-6.147-1.78A1.015,1.015,0,0,1,36.5,5.511a5.648,5.648,0,0,0-2.324-4.02A8.243,8.243,0,0,0,29.64.007Z" transform="translate(1.491 0.986)" fill="#04192e"/></g><g transform="translate(-323.316 504) rotate(15.009)"><path d="M0,14.66c2.5,3.111,5.847,3.823,7.45,2.424s2.811-4.961,6.789-3.529c-1.9-5.113,3.476-11.207,8.845-8.488C24.416-1.81,37.819-1.992,38.863,6.4c11.912-3.372,14.614,22.576.271,20.407-.121,6.8-11.824,9.18-13.283,2.707-2.3,5.3-11.775,5.9-12.864-1.329C6.653,31.023.9,22.853,0,14.66Z" fill="#fff"/><path d="M29.64.007A8.715,8.715,0,0,0,25,1.077a4.76,4.76,0,0,0-2.442,3.231c-2.9,11.447,10.445,9.331,7.233,2.107l1.156-.649c3.948,9.4-12.043,11.435-9.7-.8C16.623,2.621,12.1,7.98,13.679,12.239a1.03,1.03,0,0,1-.187,1.03.915.915,0,0,1-.973.238,2.859,2.859,0,0,0-3.382.526c-.842.744-1.5,1.955-2.507,2.832a4.448,4.448,0,0,1-4.236.664A8.083,8.083,0,0,1,0,16.333a18.822,18.822,0,0,0,3.7,7.591c2.169,2.511,4.667,3.618,7.451,2.372-.944-5.983,7.759-8.73,8.624-1.476l-1.085.062c-.842-5.6-7.637-3.522-6.221,2.192a5.858,5.858,0,0,0,1.78,3.352,5.479,5.479,0,0,0,3.285,1.155A6.4,6.4,0,0,0,23.556,28.1a.929.929,0,0,1,.947-.555,1.019,1.019,0,0,1,.828.779,3.438,3.438,0,0,0,2.1,2.559,6.679,6.679,0,0,0,3.928.291,7.865,7.865,0,0,0,3.78-1.892,4.861,4.861,0,0,0,1.618-3.517c-7.812-3.673-2.459-12.989,2.689-9.852l-.2,1.022c-3.989-2.743-8.95,5.752-1.439,7.91,3.325.5,5.448-.566,6.841-2.4a11.04,11.04,0,0,0,1.83-7.24A12.134,12.134,0,0,0,43.84,8.139a5.568,5.568,0,0,0-6.147-1.78A1.015,1.015,0,0,1,36.5,5.511a5.648,5.648,0,0,0-2.324-4.02A8.243,8.243,0,0,0,29.64.007Z" transform="translate(1.491 0.986)" fill="#04192e"/></g><g transform="translate(-323.316 648) rotate(15.009)"><path d="M0,14.66c2.5,3.111,5.847,3.823,7.45,2.424s2.811-4.961,6.789-3.529c-1.9-5.113,3.476-11.207,8.845-8.488C24.416-1.81,37.819-1.992,38.863,6.4c11.912-3.372,14.614,22.576.271,20.407-.121,6.8-11.824,9.18-13.283,2.707-2.3,5.3-11.775,5.9-12.864-1.329C6.653,31.023.9,22.853,0,14.66Z" fill="#fff"/><path d="M29.64.007A8.715,8.715,0,0,0,25,1.077a4.76,4.76,0,0,0-2.442,3.231c-2.9,11.447,10.445,9.331,7.233,2.107l1.156-.649c3.948,9.4-12.043,11.435-9.7-.8C16.623,2.621,12.1,7.98,13.679,12.239a1.03,1.03,0,0,1-.187,1.03.915.915,0,0,1-.973.238,2.859,2.859,0,0,0-3.382.526c-.842.744-1.5,1.955-2.507,2.832a4.448,4.448,0,0,1-4.236.664A8.083,8.083,0,0,1,0,16.333a18.822,18.822,0,0,0,3.7,7.591c2.169,2.511,4.667,3.618,7.451,2.372-.944-5.983,7.759-8.73,8.624-1.476l-1.085.062c-.842-5.6-7.637-3.522-6.221,2.192a5.858,5.858,0,0,0,1.78,3.352,5.479,5.479,0,0,0,3.285,1.155A6.4,6.4,0,0,0,23.556,28.1a.929.929,0,0,1,.947-.555,1.019,1.019,0,0,1,.828.779,3.438,3.438,0,0,0,2.1,2.559,6.679,6.679,0,0,0,3.928.291,7.865,7.865,0,0,0,3.78-1.892,4.861,4.861,0,0,0,1.618-3.517c-7.812-3.673-2.459-12.989,2.689-9.852l-.2,1.022c-3.989-2.743-8.95,5.752-1.439,7.91,3.325.5,5.448-.566,6.841-2.4a11.04,11.04,0,0,0,1.83-7.24A12.134,12.134,0,0,0,43.84,8.139a5.568,5.568,0,0,0-6.147-1.78A1.015,1.015,0,0,1,36.5,5.511a5.648,5.648,0,0,0-2.324-4.02A8.243,8.243,0,0,0,29.64.007Z" transform="translate(1.491 0.986)" fill="#04192e"/></g><rect width="473" height="27" transform="translate(-417.005 693)" fill="none"/></g></svg>