<svg xmlns="http://www.w3.org/2000/svg" width="43.114" height="43.115" viewBox="0 0 43.114 43.115">
  <path id="_9074220_typescript_icon" data-name="9074220_typescript_icon" d="M0,0H43.115V43.115H0ZM28.743,17.246a5.749,5.749,0,0,0,0,11.5h2.874a2.874,2.874,0,0,1,0,5.749H28.743a2.874,2.874,0,0,1-2.874-2.874H22.994a5.749,5.749,0,0,0,5.749,5.749h2.874a5.749,5.749,0,0,0,0-11.5H28.743a2.874,2.874,0,0,1,0-5.749H32.1a2.4,2.4,0,0,1,2.4,2.4v.479h2.874v-.479a5.27,5.27,0,0,0-5.269-5.27Zm-20.12,0H22.994V20.12H17.246V37.366H14.372V20.12H8.623Z" transform="translate(0 0)" fill="rgba(0,34,255,0.8)" fill-rule="evenodd"/>
</svg>
