<?xml version="1.0" ?><svg id="Layer_1" style="enable-background:new 0 0 512 512;" version="1.1" viewBox="0 0 512 512" xml:space="preserve" xmlns="http://www.w3.org/2000/svg" xmlns:xlink="http://www.w3.org/1999/xlink"><style type="text/css">
	.st0{fill:none;stroke:#000000;stroke-width:10;stroke-linecap:round;stroke-linejoin:round;stroke-miterlimit:10;}
	.st1{fill:none;stroke:#000000;stroke-width:10;stroke-miterlimit:10;}
</style><g><path class="st0" d="M159.7,292c-11.3,16.3-22.3,32.2-33.5,48.3c42.8,0,85.1,0,127.3,0"/><path class="st0" d="M271.4,340.4c0.7,0,0.3,0,1,0"/><path class="st0" d="M290.7,340.4c33.6,0,67.2,0,101,0c-24.2-34.5-47.9-68.2-71.6-101.9"/><path class="st0" d="M310.4,224.6c-6.5-9.2-13-18.5-19.5-27.8c-25,25-48.8,48.5-72.1,72.3c-6.5,6.6-12.1,7.7-18.3,0.3   c-4.2-5-8.4-9.9-13.8-16.3c-5.6,8.1-11.1,15.9-16.4,23.7"/><path class="st1" d="M225.1,163.9c22.4,0,43.7,0,65.3,0c0-11.2,0-21.6,0-32.1c-22.2,0-43.5,0-65.3,0   C225.1,142.7,225.1,152.7,225.1,163.9z"/><path d="M290.9,199.9L290.9,199.9c-2.5,0-4.5-2-4.5-4.5v-31c0-2.5,2-4.5,4.5-4.5l0,0c2.5,0,4.5,2,4.5,4.5v31   C295.4,197.9,293.4,199.9,290.9,199.9z"/></g></svg>