<svg xmlns="http://www.w3.org/2000/svg" width="88.091" height="69.641" viewBox="0 0 88.091 69.641">
  <g id="_1214964_achieve_flag_goal_milestone_mountain_icon" data-name="1214964_achieve_flag_goal_milestone_mountain_icon" transform="translate(1 1)">
    <path id="Tracé_60" data-name="Tracé 60" d="M137.063,292c-3.664,5.285-7.231,10.441-10.863,15.662h41.278" transform="translate(-126.2 -240.053)" fill="none" stroke="rgba(255,255,255,0.85)" stroke-linecap="round" stroke-linejoin="round" stroke-miterlimit="10" stroke-width="2"/>
    <path id="Tracé_61" data-name="Tracé 61" d="M271.4,340.4h.324" transform="translate(-224.317 -272.759)" fill="none" stroke="rgba(255,255,255,0.85)" stroke-linecap="round" stroke-linejoin="round" stroke-miterlimit="10" stroke-width="2"/>
    <path id="Tracé_62" data-name="Tracé 62" d="M290.7,271.542h32.75c-7.847-11.187-15.532-22.115-23.217-33.042" transform="translate(-237.359 -203.901)" fill="none" stroke="rgba(255,255,255,0.85)" stroke-linecap="round" stroke-linejoin="round" stroke-miterlimit="10" stroke-width="2"/>
    <path id="Tracé_63" data-name="Tracé 63" d="M215.729,205.814c-2.108-2.983-4.215-6-6.323-9.014-8.107,8.107-15.824,15.727-23.379,23.444-2.108,2.14-3.924,2.5-5.934.1-1.362-1.621-2.724-3.21-4.475-5.285-1.816,2.627-3.6,5.156-5.318,7.685" transform="translate(-156 -175.723)" fill="none" stroke="rgba(255,255,255,0.85)" stroke-linecap="round" stroke-linejoin="round" stroke-miterlimit="10" stroke-width="2"/>
    <path id="Tracé_64" data-name="Tracé 64" d="M225.1,142.209h21.174V131.8H225.1Z" transform="translate(-193.031 -131.8)" fill="none" stroke="rgba(255,255,255,0.85)" stroke-miterlimit="10" stroke-width="2"/>
    <path id="Tracé_65" data-name="Tracé 65" d="M287.859,172.87h0a1.453,1.453,0,0,1-1.459-1.459V161.359a1.453,1.453,0,0,1,1.459-1.459h0a1.453,1.453,0,0,1,1.459,1.459v10.052A1.453,1.453,0,0,1,287.859,172.87Z" transform="translate(-234.453 -150.788)" fill="none"/>
  </g>
</svg>
