<svg xmlns="http://www.w3.org/2000/svg" width="59.203" height="59.192" viewBox="0 0 59.203 59.192">
  <path id="_298880_tools_icon" data-name="298880_tools_icon" d="M16.877,26.879c.974.972,4.727,4.929,4.727,4.929l2.081-2.144L20.424,26.3l6.26-6.644S23.859,16.9,25.1,18A13.337,13.337,0,0,0,21.865,5.266,12.334,12.334,0,0,0,9.639,1.9l7.154,7.382L14.91,16.527l-7,1.933L.757,11.075A13.328,13.328,0,0,0,4.015,23.708,12.35,12.35,0,0,0,16.877,26.879Zm23.85,7.18L32.1,42.573,46.328,57.3a5.827,5.827,0,0,0,8.428,0,6.3,6.3,0,0,0,0-8.706Zm18.794-24.7L50.461,0,23.752,27.588l3.261,3.367L11.027,47.465,7.374,49.416,2.212,57.83l1.314,1.362,8.148-5.332,1.889-3.775L29.55,33.578l3.263,3.367Z" transform="translate(-0.318 0.001)" fill="rgba(255,255,255,0.77)"/>
</svg>
