<svg xmlns="http://www.w3.org/2000/svg" viewBox="0 0 303.98 336.01"><title>compTech</title><g id="Calque_2" data-name="Calque 2"><g id="Calque_1-2" data-name="Calque 1"><path d="M0,168.09Q0,105.27,0,42.46C0,17,17,0,42.57,0Q129,0,215.44,0c18.76,0,34.2,11.65,39,29.15,1.59,5.84-.36,10.16-5.16,11.42s-8.43-1.23-10.12-6.87C235.74,22.33,226.93,16,214.38,16Q146.7,15.92,79,16c-12.37,0-24.75,0-37.12,0C26,16,16,26.05,16,42q0,126,0,252c0,15.94,10.08,26,26,26q86.07,0,172.12,0C230,320.05,240,310,240,294q0-34.5,0-69c0-5.94,4.31-9.88,9.46-8.85,3.94.78,6.38,3.86,6.43,8.46.08,8.12,0,16.24,0,24.37,0,15,0,30,0,45-.06,25.12-17,42-42.21,42H42.35C17.06,336,0,319,0,293.71Q0,230.89,0,168.09Z"/><path d="M152.89,260.31c.31-5.36.05-10.84,1.08-16.06,1.19-6,2.5-12.43,5.5-17.67q45.89-80.33,92.4-160.3c7.37-12.73,21.08-16.35,33.85-9.21,1.75,1,3.47,2,5.2,3,13,7.62,16.73,21.39,9.27,34.42q-15.92,27.8-32,55.49c-19.53,33.84-39.15,67.64-58.56,101.56a51.32,51.32,0,0,1-18,19.07c-4.59,2.78-9,5.87-13.48,8.83-5.71,3.78-11.71,4.4-17.65.87S152,271,152.67,264.06c.12-1.25.19-2.5.28-3.74Zm15.63,6.18c5.31-3.49,9.77-6.64,14.43-9.44a36.62,36.62,0,0,0,12.9-13.71Q232.32,179.89,269,116.58c.61-1.06,1.18-2.13,1.91-3.45l-20.67-11.94c-.78,1.3-1.43,2.35-2.05,3.42-24.15,41.81-48,83.79-72.63,125.32C168.75,241.42,169.84,253.5,168.52,266.49ZM279,99.31c2.87-5.08,5.78-9.85,8.3-14.83a6.87,6.87,0,0,0-2.24-9,43.7,43.7,0,0,0-9.37-5.4c-3.06-1.26-6.49-.68-8.45,2.2-3.25,4.79-6,9.91-9.12,15.06Z"/><path d="M124.7,112h65.21a29.16,29.16,0,0,1,3.74.12c4.46.58,7.39,3.83,7.34,8s-2.86,7.19-7.15,7.81a28.15,28.15,0,0,1-4.11.16H59.32a28.15,28.15,0,0,1-4.11-.16A8,8,0,0,1,48,120.1c-.05-4.15,2.92-7.45,7.36-8a29.1,29.1,0,0,1,3.74-.12Z"/><path d="M144.16,64h60.32c1.12,0,2.25-.05,3.37,0,4.89.37,8.17,3.65,8.12,8.09s-3.32,7.6-8.26,8c-.87.07-1.75,0-2.62,0H83c-.62,0-1.25,0-1.87,0-5.49-.19-9-3.26-9.06-7.95S75.54,64,81.23,64C102.21,63.92,123.19,64,144.16,64Z"/><path d="M110.75,176.07q-26,0-52.1,0a19.44,19.44,0,0,1-4.82-.48,7.83,7.83,0,0,1,0-15.14,15.89,15.89,0,0,1,4.07-.46q52.68,0,105.34,0a17,17,0,0,1,4.44.51,7.86,7.86,0,0,1,0,15.05,20.43,20.43,0,0,1-5.19.52Q136.62,176.11,110.75,176.07Z"/><path d="M96.69,224.07q-19.47,0-38.93,0c-3.26,0-6.22-.61-8.24-3.48a7.82,7.82,0,0,1,4.09-12.11,12.69,12.69,0,0,1,3.68-.52q39.49,0,79,0c5.47,0,8.88,2.78,9.26,7.24.44,5.24-3.14,8.81-9.17,8.84C123.15,224.12,109.92,224.07,96.69,224.07Z"/><path d="M92.36,272.07c-11.5,0-23,.13-34.49-.1a12.56,12.56,0,0,1-7.22-2.28c-4.71-3.8-2.9-11.36,2.89-13.19a12.32,12.32,0,0,1,3.68-.53q35.06,0,70.11,0c5.27,0,8.65,2.69,9.17,7,.65,5.32-3.07,9.08-9.28,9.11C115.6,272.12,104,272.07,92.36,272.07Z"/></g></g></svg>