<svg xmlns="http://www.w3.org/2000/svg" width="53.58" height="55.233" viewBox="0 0 53.58 55.233">
  <g id="Groupe_275" data-name="Groupe 275" transform="translate(-181 -604)">
    <g id="_1214955_bubble_bubbles_chat_chat_bubbles_conversation_icon" data-name="1214955_bubble_bubbles_chat_chat bubbles_conversation_icon" transform="translate(182 605)">
      <path id="Tracé_37" data-name="Tracé 37" d="M51.9,42.695c.305-.244.634-.476.952-.7m2.794-1.635c.2-.1.39-.2.6-.281a23.158,23.158,0,0,1,8.565-2.111,1.826,1.826,0,0,0,.354-.073h2.184c.5.073.988.134,1.489.207.354.049.7.11,1.049.183m2.526.647a20.207,20.207,0,0,1,5.478,2.794m2.684,2.257c.073.073.146.146.22.207m2.721,3.392a18.7,18.7,0,0,1,2.282,5.271,17.211,17.211,0,0,1,.244,7.016,18.929,18.929,0,0,1-3.685,8.748m-2.16,2.33c-.232.207-.464.427-.708.634a19.239,19.239,0,0,1-8.37,4.063,25.421,25.421,0,0,1-7.809.366c-.756-.061-1.513-.183-2.269-.232a1.39,1.39,0,0,0-.72.2q-4.209,2.416-8.406,4.856c-.159.1-.329.183-.549.305-.012-.232-.024-.415-.024-.586,0-2.77-.012-5.551.012-8.321a1.018,1.018,0,0,0-.378-.842,18.613,18.613,0,0,1-6.21-12.75,17.248,17.248,0,0,1,3.575-12.323,19.247,19.247,0,0,1,1.281-1.525" transform="translate(-44.685 -37.9)" fill="none" stroke="#fff" stroke-linecap="round" stroke-linejoin="round" stroke-miterlimit="10" stroke-width="2"/>
      <path id="Tracé_38" data-name="Tracé 38" d="M438.7,293.9" transform="translate(-390.626 -262.665)" fill="none" stroke="#fff" stroke-linecap="round" stroke-linejoin="round" stroke-miterlimit="10" stroke-width="2"/>
      <path id="Tracé_39" data-name="Tracé 39" d="M424.4,173.8a19.139,19.139,0,0,1,3.929,5.783" transform="translate(-378.071 -157.219)" fill="none" stroke="#fff" stroke-linecap="round" stroke-linejoin="round" stroke-miterlimit="10" stroke-width="2"/>
      <path id="Tracé_40" data-name="Tracé 40" d="M463.4,241.9c.049.2.1.4.134.6" transform="translate(-412.313 -217.01)" fill="none" stroke="#fff" stroke-linecap="round" stroke-linejoin="round" stroke-miterlimit="10" stroke-width="2"/>
      <path id="Tracé_41" data-name="Tracé 41" d="M268.008,272a16.662,16.662,0,0,1-2.379,8.968,19.115,19.115,0,0,1-5.539,5.991.872.872,0,0,0-.415.805q.018,4.136.012,8.272v.634c-.22-.122-.39-.207-.537-.293-2.77-1.708-5.551-3.4-8.309-5.124a1.507,1.507,0,0,0-1.074-.22,20.875,20.875,0,0,1-9.468-.634" transform="translate(-216.433 -243.437)" fill="none" stroke="#fff" stroke-linecap="round" stroke-linejoin="round" stroke-miterlimit="10" stroke-width="2"/>
      <path id="Tracé_42" data-name="Tracé 42" d="M177.739,382.709A24.362,24.362,0,0,1,172.2,378.5" transform="translate(-156.642 -336.943)" fill="none" stroke="#fff" stroke-linecap="round" stroke-linejoin="round" stroke-miterlimit="10" stroke-width="2"/>
    </g>
  </g>
</svg>
