<svg xmlns="http://www.w3.org/2000/svg" width="44.627" height="58.609" viewBox="0 0 44.627 58.609">
  <g id="Groupe_272" data-name="Groupe 272" transform="translate(-185 -99)">
    <g id="Groupe_62" data-name="Groupe 62" transform="translate(154.391 -28.654)">
      <path id="Tracé_66" data-name="Tracé 66" d="M203.9,200.827h31.613c1.082,0,1.536-.384,1.693-1.484a8,8,0,0,0,.07-1.117q0-17.15.017-34.283a1.2,1.2,0,0,0-.471-1.012c-2.357-2.077-4.678-4.172-7.017-6.267-.786-.716-1.187-1.047-1.973-1.763" transform="translate(-163.057 -15.598)" fill="none" stroke="#fff" stroke-linecap="round" stroke-linejoin="round" stroke-miterlimit="10" stroke-width="2"/>
      <path id="Tracé_67" data-name="Tracé 67" d="M325.233,141.865c-.122-.1.122.122,0,0" transform="translate(-263.181 -4.815)" fill="none" stroke="#fff" stroke-linecap="round" stroke-linejoin="round" stroke-miterlimit="10" stroke-width="2"/>
      <path id="Tracé_68" data-name="Tracé 68" d="M178.912,99.835c-2.374-2.13-4.277-3.788-6.668-5.935-.122.1-.209.157-.3.227q-10.29,9.191-20.563,18.381a1.271,1.271,0,0,0-.367.838c0,3.805-.017,7.628-.017,11.434" transform="translate(-119.391 34.754)" fill="none" stroke="#fff" stroke-linecap="round" stroke-linejoin="round" stroke-miterlimit="10" stroke-width="2"/>
      <path id="Tracé_69" data-name="Tracé 69" d="M151.1,301.9v18.887c0,1.1.332,1.414,1.431,1.414h9.147" transform="translate(-119.473 -136.938)" fill="none" stroke="#fff" stroke-linecap="round" stroke-linejoin="round" stroke-miterlimit="10" stroke-width="2"/>
    </g>
  </g>
</svg>
