<svg xmlns="http://www.w3.org/2000/svg" xmlns:xlink="http://www.w3.org/1999/xlink" width="154.039" height="73.154" viewBox="0 0 154.039 73.154">
  <defs>
    <filter id="Tracé_422" x="0" y="0" width="65.112" height="73.154" filterUnits="userSpaceOnUse">
      <feOffset input="SourceAlpha"/>
      <feGaussianBlur stdDeviation="2" result="blur"/>
      <feFlood/>
      <feComposite operator="in" in2="blur"/>
      <feComposite in="SourceGraphic"/>
    </filter>
    <filter id="Tracé_423" x="88.928" y="0" width="65.111" height="73.154" filterUnits="userSpaceOnUse">
      <feOffset input="SourceAlpha"/>
      <feGaussianBlur stdDeviation="2" result="blur-2"/>
      <feFlood/>
      <feComposite operator="in" in2="blur-2"/>
      <feComposite in="SourceGraphic"/>
    </filter>
    <filter id="_" x="111.93" y="17.231" width="19" height="39" filterUnits="userSpaceOnUse">
      <feOffset input="SourceAlpha"/>
      <feGaussianBlur stdDeviation="1" result="blur-3"/>
      <feFlood/>
      <feComposite operator="in" in2="blur-3"/>
      <feComposite in="SourceGraphic"/>
    </filter>
  </defs>
  <g id="Groupe_769" data-name="Groupe 769" transform="translate(-25.923 -227.769)">
    <g id="Groupe_768" data-name="Groupe 768" transform="translate(33.424 235.5)">
      <g transform="matrix(1, 0, 0, 1, -7.5, -7.73)" filter="url(#Tracé_422)">
        <path id="Tracé_422-2" data-name="Tracé 422" d="M51.069,15.547l.041,28.846L26.1,58.852,1.043,44.465,1,15.619,26.013,1.16Z" transform="translate(6.5 6.57)" fill="rgba(32,32,32,0.5)" stroke="#fff" stroke-miterlimit="10" stroke-width="3"/>
      </g>
      <g id="Groupe_334" data-name="Groupe 334" transform="translate(18.501 13.5)">
        <g id="Groupe_331" data-name="Groupe 331" transform="translate(0 0)">
          <text id="_2" data-name="&lt;" transform="translate(0 23)" fill="#fff" font-size="22" font-family="Poppins-Regular, Poppins"><tspan x="0" y="0">&lt;</tspan></text>
        </g>
      </g>
    </g>
    <g id="Groupe_767" data-name="Groupe 767" transform="translate(122.351 235.5)">
      <g transform="matrix(1, 0, 0, 1, -96.43, -7.73)" filter="url(#Tracé_423)">
        <path id="Tracé_423-2" data-name="Tracé 423" d="M51.069,15.547l.041,28.846L26.1,58.852,1.043,44.465,1,15.619,26.013,1.16Z" transform="translate(95.43 6.57)" fill="rgba(32,32,32,0.5)" stroke="#fff" stroke-miterlimit="10" stroke-width="3"/>
      </g>
      <g transform="matrix(1, 0, 0, 1, -96.43, -7.73)" filter="url(#_)">
        <text id="_3" data-name="&gt;" transform="translate(114.93 45.23)" fill="#fff" font-size="24" font-family="Poppins-Regular, Poppins"><tspan x="0" y="0">&gt;</tspan></text>
      </g>
    </g>
  </g>
</svg>
