<svg xmlns="http://www.w3.org/2000/svg" width="68.091" height="53.927" viewBox="0 0 68.091 53.927">
  <g id="Groupe_273" data-name="Groupe 273" transform="translate(-173 -274)">
    <g id="_1214964_achieve_flag_goal_milestone_mountain_icon" data-name="1214964_achieve_flag_goal_milestone_mountain_icon" transform="translate(174 275)">
      <path id="Tracé_60" data-name="Tracé 60" d="M134.539,292c-2.813,4.058-5.551,8.016-8.339,12.023h31.689" transform="translate(-126.2 -252.121)" fill="none" stroke="#fff" stroke-linecap="round" stroke-linejoin="round" stroke-miterlimit="10" stroke-width="2"/>
      <path id="Tracé_61" data-name="Tracé 61" d="M271.4,340.4h.249" transform="translate(-235.255 -288.473)" fill="none" stroke="#fff" stroke-linecap="round" stroke-linejoin="round" stroke-miterlimit="10" stroke-width="2"/>
      <path id="Tracé_62" data-name="Tracé 62" d="M290.7,263.866h25.142c-6.024-8.588-11.924-16.977-17.823-25.366" transform="translate(-249.751 -211.939)" fill="none" stroke="#fff" stroke-linecap="round" stroke-linejoin="round" stroke-miterlimit="10" stroke-width="2"/>
      <path id="Tracé_63" data-name="Tracé 63" d="M205.175,203.72c-1.618-2.29-3.236-4.605-4.854-6.92-6.223,6.223-12.148,12.073-17.948,18-1.618,1.643-3.012,1.917-4.555.075-1.045-1.245-2.091-2.464-3.435-4.058-1.394,2.016-2.763,3.958-4.082,5.9" transform="translate(-159.322 -180.619)" fill="none" stroke="#fff" stroke-linecap="round" stroke-linejoin="round" stroke-miterlimit="10" stroke-width="2"/>
      <path id="Tracé_64" data-name="Tracé 64" d="M225.1,139.791h16.255V131.8H225.1Z" transform="translate(-200.481 -131.8)" fill="none" stroke="#fff" stroke-miterlimit="10" stroke-width="2"/>
      <path id="Tracé_65" data-name="Tracé 65" d="M287.52,169.857h0a1.116,1.116,0,0,1-1.12-1.12V161.02a1.116,1.116,0,0,1,1.12-1.12h0a1.116,1.116,0,0,1,1.12,1.12v7.717A1.116,1.116,0,0,1,287.52,169.857Z" transform="translate(-246.521 -152.905)" fill="none"/>
    </g>
  </g>
</svg>
