<svg id="Groupe_507" data-name="Groupe 507" xmlns="http://www.w3.org/2000/svg" width="67.238" height="67.182" viewBox="0 0 67.238 67.182">
  <g id="Groupe_170" data-name="Groupe 170" transform="translate(0 0)">
    <path id="_298852_puzzle_icon" data-name="298852_puzzle_icon" d="M49.643,37.759a7.842,7.842,0,0,0-2.854-1.307,7.461,7.461,0,0,0-1.81-.119,10.211,10.211,0,0,0-1.687.231,8.863,8.863,0,0,0-1.2.432,10.724,10.724,0,0,0-3.072,1.99,10.71,10.71,0,0,0-1.992,3.07,8.806,8.806,0,0,0-.433,1.2,10.127,10.127,0,0,0-.231,1.685,7.443,7.443,0,0,0,.119,1.809,8.172,8.172,0,0,0,2.133,3.828,8.1,8.1,0,0,0,4.952,2.238,8.641,8.641,0,0,1,1.742.294,1.98,1.98,0,0,1,.793.461,1.486,1.486,0,0,1,.164,1.787,4.5,4.5,0,0,1-.851,1.236l-.183.188-.463.462-.595.6-.194.192Q42.939,59.08,41.9,60.116q-2.242,2.246-4.49,4.485l-1.477,1.476a4.4,4.4,0,0,1-.708.577c-.118.08-.229.147-.34.207a3.241,3.241,0,0,1-3.89-.779L29.95,65.042q-2.979-2.977-5.96-5.953L22.3,57.41a12.62,12.62,0,0,0-1.284-1.119,4.482,4.482,0,0,0-1.146-.638,3.2,3.2,0,0,0-3.59.87,4.02,4.02,0,0,0-.617,1.111,8.885,8.885,0,0,0-.387,1.926A6.819,6.819,0,0,1,11.6,64.982a5.937,5.937,0,0,1-1.569.51,6.039,6.039,0,0,1-1.566.068,6.66,6.66,0,0,1-4.5-2.137L3.8,63.26a6.649,6.649,0,0,1-2.139-4.494A6,6,0,0,1,1.734,57.2a5.917,5.917,0,0,1,.511-1.568A6.825,6.825,0,0,1,7.672,51.96,8.867,8.867,0,0,0,9.6,51.573a3.987,3.987,0,0,0,1.18-.671,3.127,3.127,0,0,0,.843-3.434,4.776,4.776,0,0,0-.678-1.243,12.68,12.68,0,0,0-1.12-1.283L8.147,43.261q-2.651-2.655-5.3-5.3L2.186,37.3l-1-1a3.258,3.258,0,0,1-.818-3.925c.06-.111.127-.221.2-.331a4.4,4.4,0,0,1,.582-.716l1.477-1.476q2.243-2.245,4.489-4.486,1.037-1.04,2.078-2.077l.192-.194.59-.584.473-.474.188-.183a4.516,4.516,0,0,1,1.237-.85,1.489,1.489,0,0,1,1.789.164,1.978,1.978,0,0,1,.461.793,8.712,8.712,0,0,1,.294,1.741,8.085,8.085,0,0,0,2.24,4.948,8.181,8.181,0,0,0,3.831,2.131,7.461,7.461,0,0,0,1.81.119,10.211,10.211,0,0,0,1.687-.231,8.863,8.863,0,0,0,1.2-.432,10.724,10.724,0,0,0,3.072-1.99,10.71,10.71,0,0,0,1.992-3.07,8.806,8.806,0,0,0,.433-1.2,10.127,10.127,0,0,0,.231-1.685,7.443,7.443,0,0,0-.119-1.809,8.172,8.172,0,0,0-2.133-3.828,8.1,8.1,0,0,0-4.952-2.238,8.64,8.64,0,0,1-1.742-.294,1.98,1.98,0,0,1-.793-.461,1.486,1.486,0,0,1-.164-1.787,4.5,4.5,0,0,1,.851-1.236l.183-.188.463-.462.595-.6.194-.192q1.036-1.041,2.079-2.077,2.242-2.246,4.49-4.484l1.477-1.476A4.4,4.4,0,0,1,32.056.58c.118-.08.229-.147.34-.207a3.241,3.241,0,0,1,3.89.779l1.041,1.039q2.979,2.977,5.96,5.953l1.686,1.679a12.62,12.62,0,0,0,1.284,1.119,4.482,4.482,0,0,0,1.146.638,3.2,3.2,0,0,0,3.59-.87A4.02,4.02,0,0,0,51.611,9.6,8.886,8.886,0,0,0,52,7.673a6.819,6.819,0,0,1,3.676-5.423,5.961,5.961,0,0,1,1.569-.51,6.04,6.04,0,0,1,1.566-.068,6.66,6.66,0,0,1,4.5,2.137l.165.165a6.649,6.649,0,0,1,2.139,4.494,6,6,0,0,1-.068,1.565,5.917,5.917,0,0,1-.511,1.568,6.825,6.825,0,0,1-5.427,3.672,8.867,8.867,0,0,0-1.928.387,3.987,3.987,0,0,0-1.18.671,3.127,3.127,0,0,0-.843,3.434,4.776,4.776,0,0,0,.678,1.243,12.68,12.68,0,0,0,1.12,1.283l1.678,1.682q2.98,2.985,5.961,5.958l1,1a3.258,3.258,0,0,1,.818,3.925c-.06.111-.127.221-.2.331a4.4,4.4,0,0,1-.582.716L64.65,37.38q-2.243,2.245-4.489,4.486-1.037,1.04-2.078,2.077l-.192.194-.59.584-.473.474-.188.183a4.517,4.517,0,0,1-1.237.85,1.489,1.489,0,0,1-1.789-.164,1.978,1.978,0,0,1-.461-.793,8.712,8.712,0,0,1-.294-1.741,8.085,8.085,0,0,0-2.24-4.948A7.661,7.661,0,0,0,49.643,37.759Z" transform="translate(-0.019 -0.026)" fill="rgba(255,255,255,0.91)"/>
  </g>
</svg>
