<svg xmlns="http://www.w3.org/2000/svg" width="66.091" height="47.157" viewBox="0 0 66.091 47.157">
  <g id="skills_icn" data-name="skills icn" transform="translate(0 0.07)">
    <g id="Calque_1" data-name="Calque 1" transform="translate(0 -0.07)">
      <path id="Tracé_154" data-name="Tracé 154" d="M30.916,22.235a11.252,11.252,0,0,1-6.741-2.269A10.95,10.95,0,0,1,19.751,9.5a10.744,10.744,0,0,1,5.628-7.8,11.418,11.418,0,0,1,9.377-.631.657.657,0,0,1,.368.876h0a.639.639,0,0,1-.81.346,10.074,10.074,0,0,0-8.322.574,9.452,9.452,0,0,0-4.949,6.841,9.636,9.636,0,0,0,3.942,9.2A9.592,9.592,0,0,0,34.9,20.019,9.855,9.855,0,0,0,40.284,9.731a.648.648,0,0,1,.508-.723h0a.666.666,0,0,1,.8.547,11.19,11.19,0,0,1-6.127,11.668,10.424,10.424,0,0,1-4.546,1.012Z" transform="translate(-11.036 -0.17)"/>
      <path id="Tracé_155" data-name="Tracé 155" d="M60.908,9.071A9.557,9.557,0,0,0,59.13,7.035a.657.657,0,0,1-.092-.876h0a.653.653,0,0,1,.955-.105,10.989,10.989,0,0,1,2.023,2.291.666.666,0,0,1-.228.937h0a.648.648,0,0,1-.88-.21Z" transform="translate(-33.11 -3.281)"/>
      <path id="Tracé_156" data-name="Tracé 156" d="M50.106,82.556H48.792a18.513,18.513,0,0,0-28.6-15.22.661.661,0,0,1-.907-.158h0a.653.653,0,0,1,.162-.924,19.664,19.664,0,0,1,30.654,16.3Z" transform="translate(-10.771 -35.399)"/>
      <path id="Tracé_157" data-name="Tracé 157" d="M13.344,75.684h0a.67.67,0,0,1,0-.955l.368-.346a.661.661,0,0,1,.95.053h0a.648.648,0,0,1-.048.9l-.368.346a.648.648,0,0,1-.9,0Z" transform="translate(-7.387 -41.675)"/>
      <path id="Tracé_158" data-name="Tracé 158" d="M0,92.282A19.709,19.709,0,0,1,3.841,80.605a.657.657,0,0,1,.933-.118h0a.661.661,0,0,1,.114.911A18.43,18.43,0,0,0,1.314,92.282Z" transform="translate(0 -45.124)"/>
      <path id="Tracé_159" data-name="Tracé 159" d="M133.718,9.566a4.818,4.818,0,1,1,4.818-4.818,4.818,4.818,0,0,1-4.818,4.818Zm0-8.291a3.5,3.5,0,1,0,3.5,3.5A3.5,3.5,0,0,0,133.718,1.275Z" transform="translate(-72.444 0.07)"/>
      <path id="Tracé_433" data-name="Tracé 433" d="M133.718,9.566a4.818,4.818,0,1,1,4.818-4.818,4.818,4.818,0,0,1-4.818,4.818Zm0-8.291a3.5,3.5,0,1,0,3.5,3.5A3.5,3.5,0,0,0,133.718,1.275Z" transform="translate(-72.444 18.47)"/>
      <path id="Tracé_434" data-name="Tracé 434" d="M133.718,9.566a4.818,4.818,0,1,1,4.818-4.818,4.818,4.818,0,0,1-4.818,4.818Zm0-8.291a3.5,3.5,0,1,0,3.5,3.5A3.5,3.5,0,0,0,133.718,1.275Z" transform="translate(-72.444 37.07)"/>
      <rect id="Rectangle_262" data-name="Rectangle 262" width="10.31" height="1.314" rx="0.657" transform="translate(46.82 4.174)"/>
      <path id="Tracé_162" data-name="Tracé 162" d="M128.552,52.724h-.815a.657.657,0,0,1-.657-.657h0a.657.657,0,0,1,.657-.657h.815Z" transform="translate(-71.421 -28.863)"/>
      <rect id="Rectangle_263" data-name="Rectangle 263" width="1.765" height="1.314" rx="0.657" transform="translate(53.158 22.547)"/>
      <path id="Tracé_163" data-name="Tracé 163" d="M101.882,52.723H89.921a.679.679,0,0,1-.7-.657h0a.679.679,0,0,1,.7-.657h11.961a.674.674,0,0,1,.7.657h0a.674.674,0,0,1-.7.657Z" transform="translate(-50.143 -28.862)"/>
      <path id="Tracé_164" data-name="Tracé 164" d="M97.41,31.754H89.877a.657.657,0,0,1-.657-.657h0a.657.657,0,0,1,.657-.657H97.41Z" transform="translate(-50.143 -17.077)"/>
      <path id="Tracé_165" data-name="Tracé 165" d="M107.077,29.859h0c-.364,0-.657-.39-.657-.876V27.976c0-.482.293-.876.657-.876h0c.359,0,.657.39.657.876v1.012C107.734,29.469,107.436,29.859,107.077,29.859Z" transform="translate(-59.81 -15.2)"/>
      <rect id="Rectangle_264" data-name="Rectangle 264" width="1.314" height="2.369" rx="0.657" transform="translate(46.61 9.036)"/>
      <rect id="Rectangle_265" data-name="Rectangle 265" width="1.314" height="3.81" rx="0.657" transform="translate(46.61 4.174)"/>
      <path id="Tracé_166" data-name="Tracé 166" d="M117.233,95.314H107.6a.657.657,0,0,1-.657-.657h0A.657.657,0,0,1,107.6,94h9.636Z" transform="translate(-60.102 -52.799)"/>
      <path id="Tracé_167" data-name="Tracé 167" d="M104.434,74.309h-1.621a.758.758,0,0,1-.823-.657h0a.753.753,0,0,1,.823-.657h1.621a.753.753,0,0,1,.823.657h0A.758.758,0,0,1,104.434,74.309Z" transform="translate(-57.32 -40.992)"/>
      <rect id="Rectangle_266" data-name="Rectangle 266" width="1.739" height="1.314" rx="0.657" transform="translate(42.497 32.012)"/>
      <path id="Tracé_168" data-name="Tracé 168" d="M90.942,74.3h-.876a.775.775,0,0,1-.876-.657h0a.775.775,0,0,1,.876-.657h.876a.775.775,0,0,1,.876.657h0a.775.775,0,0,1-.876.657Z" transform="translate(-50.126 -40.987)"/>
      <path id="Tracé_169" data-name="Tracé 169" d="M107.792,83.512h-.635a.657.657,0,0,1-.657-.657v-9.2a.657.657,0,0,1,.657-.657h0a.657.657,0,0,1,.657.657Z" transform="translate(-59.855 -40.997)"/>
    </g>
  </g>
</svg>
