<svg xmlns="http://www.w3.org/2000/svg" viewBox="0 0 512 512"><title>stack</title><g id="Calque_2" data-name="Calque 2"><g id="Calque_1-2" data-name="Calque 1"><path d="M272,0c9.54,1.31,19.08,2.6,28.62,3.94,1.81.25,3.61.61,5.4,1,6.28,1.39,9.91,6.31,8.77,11.82s-6.29,8.52-12.56,7.85c-16-1.7-32.16-4.84-48.15-4.32-93.68,3-165,45.4-207.59,128.69C2.85,234.3,12.08,318,66.57,396.66c1,1.36,2,2.64,2.46,3.23,7.5-1.37,14.42-3.58,21.38-3.72,18.79-.38,35.18,12.59,40.16,30.76a42,42,0,0,1-69,41.83,41.35,41.35,0,0,1-9-49.39c2-3.9,1.57-6.17-.94-9.51Q6.7,350,.83,275.34A40.48,40.48,0,0,0,0,271V240c1.63-11.34,2.86-22.75,5-34C24,104,109.14,20.76,211.39,3.94,220.88,2.38,230.46,1.3,240,0ZM89.86,416A22,22,0,1,0,112,437.63,22,22,0,0,0,89.86,416Z"/><path d="M240,512q-14.31-2-28.61-3.94c-1.64-.23-3.28-.56-4.9-.93-6.45-1.46-9.73-5.93-8.69-11.79,1-5.68,6-8.48,12.42-7.83,16.54,1.66,33.12,4.31,49.67,4.24,93-.41,180.52-59.89,214.37-146.6C506.14,263.49,495.6,186.53,445.14,115c-.67-1-1.4-1.87-2.12-2.78-.21-.26-.48-.46-.08-.08-7.46,1.37-14.37,3.58-21.33,3.73-18.74.4-35.25-12.66-40.18-30.75a42,42,0,0,1,69-41.88,41.44,41.44,0,0,1,9,49.4c-2,3.89-1.53,6.17,1,9.52Q505.27,162,511.17,236.64A36.4,36.4,0,0,0,512,241v31c-.28,1.29-.65,2.56-.84,3.87-1.74,11.84-2.84,23.82-5.26,35.52-20.5,99.23-105.39,180.46-205.3,196.66-9.5,1.54-19.06,2.64-28.6,3.95ZM421.79,96A22,22,0,1,0,400,74,22,22,0,0,0,421.79,96Z"/><path d="M393.86,336c3.22,3.05,7.52,7,11.63,11.08,5.77,5.77,5.75,11-.07,16.87q-20.61,20.74-41.35,41.36c-6,5.93-11.12,5.83-17.23-.19-3.8-3.74-7.58-7.5-11.38-11.23-.23-.22-.59-.3.18.08-12.34,4.82-24,9.26-35.45,14a5.73,5.73,0,0,0-2.87,4.12c-.36,5.14-.05,10.33-.19,15.49C297,434,293.2,437.91,286.83,438q-30.75.17-61.49,0c-6.64,0-10.34-4-10.49-10.72-.11-5-.13-10,0-15,.07-2.53-.74-3.65-3.28-4.59-11.52-4.27-22.9-8.89-35.63-13.89-3,3.19-6.93,7.49-11,11.59-5.83,5.81-11.08,5.82-16.87.07q-20.89-20.82-41.69-41.73c-5.57-5.62-5.55-10.88.06-16.48,4.11-4.11,8.44-8,11.71-11.08-5-13-9.5-24.76-14.24-36.43-.49-1.19-2.57-2.36-4-2.45-5-.3-10,0-15-.14-7-.15-10.86-3.9-10.88-10.87q-.11-30.24,0-60.49c0-7.1,3.75-10.81,10.76-11,5-.11,10,.19,15-.17a5.79,5.79,0,0,0,4.17-2.83c4.73-11.5,9.17-23.12,14.25-36.14-3.23-3-7.59-6.85-11.71-10.94-5.6-5.57-5.6-10.91-.06-16.48q20.79-20.91,41.71-41.71c5.82-5.78,11-5.72,16.87,0,3.33,3.26,6.45,6.76,10,9.78a5.77,5.77,0,0,0,4.9.76q16-6.28,31.75-13.16a5.81,5.81,0,0,0,3-4c.37-5.14.06-10.32.19-15.48.18-6.45,3.91-10.34,10.31-10.38q30.75-.17,61.49,0c6.64,0,10.34,4,10.49,10.72.11,5-.15,10,.14,15,.09,1.43,1.22,3.55,2.41,4,11.68,4.73,23.46,9.19,36.56,14.24,3-3.24,6.89-7.58,11-11.69,5.56-5.57,10.83-5.54,16.48.07q20.94,20.78,41.73,41.69c5.71,5.73,5.65,11-.19,16.87-4,4-8.22,7.74-11.4,10.72,5,13,9.5,24.78,14.23,36.44a5.39,5.39,0,0,0,4,2.5c5,.3,10,.05,15,.14,7.08.14,10.88,3.81,10.91,10.8q.12,30.24,0,60.49c0,7.23-3.86,10.92-11.23,11-5,.09-10-.17-15,.16A5.31,5.31,0,0,0,408,300C403.33,311.53,398.88,323.15,393.86,336Zm23.9-101.24h-8c-2.5,0-5,.06-7.5,0-6.63-.22-9.87-2.65-11.38-9a145.51,145.51,0,0,0-18.31-44c-3.27-5.21-2.67-9.55,1.72-14,3.63-3.65,7.52-7,11.09-10.36-10.46-10.49-20.28-20.37-30.93-31.07-3.15,3.49-6.36,7.31-9.86,10.85-5,5.08-9.07,5.55-15.17,1.72a141.91,141.91,0,0,0-42.66-17.74c-7-1.68-9.48-4.77-9.58-11.89-.06-4.94,0-9.88,0-15H235.46c-.25.52-.5.8-.51,1.09-.06,4.66-.06,9.33-.14,14-.13,6.89-2.56,10.19-9.16,11.76a145.26,145.26,0,0,0-43.58,18.08c-5.57,3.48-9.76,3-14.36-1.71-3.6-3.65-6.9-7.6-9.92-10.95l-30.83,31c3.23,3,7,6.35,10.47,9.9,4.79,4.85,5.28,9,1.67,14.79a143.29,143.29,0,0,0-17.78,42.64c-1.81,7.52-4.84,9.79-12.71,9.87-4.75,0-9.51,0-14.33,0v42.38c5.41,0,10.54-.07,15.67,0,6.29.11,9.68,2.62,11.09,8.67a144.84,144.84,0,0,0,18.23,44.06c3.44,5.51,2.89,9.75-1.74,14.36-3.65,3.63-7.57,7-11.19,10.27,10.69,10.58,20.6,20.37,31.14,30.79,3.1-3.34,6.38-7.1,9.9-10.63,5.06-5.09,9-5.52,15.15-1.73a140,140,0,0,0,42.21,17.5c7.74,1.78,10,4.95,10.07,13.11,0,4.74,0,9.49,0,14.12h42a6.74,6.74,0,0,0,.32-1.28c0-4.5,0-9,.08-13.49.09-7.47,2.4-10.51,9.75-12.28a142.81,142.81,0,0,0,42.66-17.75c6-3.76,10-3.26,15.14,1.89,3.5,3.52,6.73,7.32,9.72,10.61l30.91-30.88c-3.5-3.28-7.35-6.7-11-10.35-4.57-4.58-5.05-8.78-1.58-14.37a145.3,145.3,0,0,0,18.07-43.59c1.53-6.44,4.78-8.93,11.3-9,5.12-.07,10.24,0,15.59,0Z"/><path d="M347.89,37.83a10.25,10.25,0,0,1-9.79-10.45,10,10,0,0,1,10.17-9.45A9.84,9.84,0,0,1,358,28.26,10.11,10.11,0,0,1,347.89,37.83Z"/><path d="M174.2,484.77a9.66,9.66,0,0,1-10.15,9.43,9.89,9.89,0,0,1-9.66-10,10.07,10.07,0,0,1,10.5-9.76A9.86,9.86,0,0,1,174.2,484.77Z"/><path d="M256,173.34c45.44,0,82.68,37.18,82.71,82.63S301.46,338.64,256,338.66s-82.68-37.21-82.7-82.64S210.52,173.36,256,173.34Zm62.71,82.5c-.14-34.41-28.5-62.62-62.83-62.5s-62.65,28.48-62.53,62.8,28.52,62.65,62.82,62.52S318.82,290.13,318.68,255.84Z"/></g></g></svg>