<svg id="Groupe_172" data-name="Groupe 172" xmlns="http://www.w3.org/2000/svg" width="53.568" height="51.119" viewBox="0 0 53.568 51.119">
  <path id="_298880_tools_icon" data-name="298880_tools_icon" d="M15.3,23.212c.882.839,4.277,4.257,4.277,4.257l1.883-1.852L18.51,22.71l5.664-5.737s-2.557-2.377-1.438-1.43A11.15,11.15,0,0,0,19.814,4.548,11.521,11.521,0,0,0,8.752,1.642l6.473,6.375-1.7,6.255L7.185,15.942.715,9.565a11.145,11.145,0,0,0,2.948,10.91A11.548,11.548,0,0,0,15.3,23.212Zm21.58,6.2-7.806,7.354,12.873,12.72a5.447,5.447,0,0,0,7.626,0,5.262,5.262,0,0,0,0-7.519ZM53.886,8.078,45.688,0,21.522,23.825l2.951,2.908L10.008,40.991,6.7,42.676l-4.67,7.266,1.189,1.176,7.372-4.6,1.709-3.26L26.768,29l2.952,2.908Z" transform="translate(-0.319 0.001)" fill="rgba(255,255,255,0.77)"/>
</svg>
