<svg xmlns="http://www.w3.org/2000/svg" width="49.277" height="49.277" viewBox="0 0 49.277 49.277">
  <path id="linkedin-brands_1_" data-name="linkedin-brands (1)" d="M45.758,32H3.509A3.535,3.535,0,0,0,0,35.553V77.725a3.535,3.535,0,0,0,3.509,3.553H45.758a3.544,3.544,0,0,0,3.52-3.553V35.553A3.544,3.544,0,0,0,45.758,32ZM14.893,74.238H7.59V50.721H14.9V74.238ZM11.241,47.509a4.235,4.235,0,1,1,4.235-4.235A4.237,4.237,0,0,1,11.241,47.509ZM42.271,74.238h-7.3V62.8c0-2.728-.055-6.237-3.795-6.237-3.806,0-4.389,2.97-4.389,6.039V74.238h-7.3V50.721h7.007v3.212h.1A7.693,7.693,0,0,1,33.5,50.138c7.392,0,8.767,4.873,8.767,11.208Z" transform="translate(0 -32)" fill="#fff"/>
</svg>
